<svg width="163" height="38" viewBox="0 0 163 38" fill="none" xmlns="http://www.w3.org/2000/svg">
<rect width="163" height="38" rx="19" fill="#F7F7F7"/>
<path fill-rule="evenodd" clip-rule="evenodd" d="M19 26.5C23.1421 26.5 26.5 23.1421 26.5 19C26.5 14.8579 23.1421 11.5 19 11.5C14.8579 11.5 11.5 14.8579 11.5 19C11.5 23.1421 14.8579 26.5 19 26.5ZM18.25 14.5V19C18.25 19.4142 18.5858 19.75 19 19.75H22.75V18.25H19.75V14.5H18.25Z" fill="#202020"/>
<path d="M42.3984 22.8125V24H34.9531V22.9609L38.6797 18.8125C39.138 18.3021 39.4922 17.8698 39.7422 17.5156C39.9974 17.1562 40.1745 16.8359 40.2734 16.5547C40.3776 16.2682 40.4297 15.9766 40.4297 15.6797C40.4297 15.3047 40.3516 14.9661 40.1953 14.6641C40.0443 14.3568 39.8203 14.112 39.5234 13.9297C39.2266 13.7474 38.8672 13.6562 38.4453 13.6562C37.9401 13.6562 37.5182 13.7552 37.1797 13.9531C36.8464 14.1458 36.5964 14.4167 36.4297 14.7656C36.263 15.1146 36.1797 15.5156 36.1797 15.9688H34.7344C34.7344 15.3281 34.875 14.7422 35.1562 14.2109C35.4375 13.6797 35.8542 13.2578 36.4062 12.9453C36.9583 12.6276 37.638 12.4688 38.4453 12.4688C39.1641 12.4688 39.7786 12.5964 40.2891 12.8516C40.7995 13.1016 41.1901 13.4557 41.4609 13.9141C41.737 14.3672 41.875 14.8984 41.875 15.5078C41.875 15.8411 41.8177 16.1797 41.7031 16.5234C41.5938 16.862 41.4401 17.2005 41.2422 17.5391C41.0495 17.8776 40.8229 18.2109 40.5625 18.5391C40.3073 18.8672 40.0339 19.1901 39.7422 19.5078L36.6953 22.8125H42.3984ZM51.2422 17.4062V19.1406C51.2422 20.0729 51.1589 20.8594 50.9922 21.5C50.8255 22.1406 50.5859 22.6562 50.2734 23.0469C49.9609 23.4375 49.5833 23.7214 49.1406 23.8984C48.7031 24.0703 48.2083 24.1562 47.6562 24.1562C47.2188 24.1562 46.8151 24.1016 46.4453 23.9922C46.0755 23.8828 45.7422 23.7083 45.4453 23.4688C45.1536 23.224 44.9036 22.9062 44.6953 22.5156C44.487 22.125 44.3281 21.651 44.2188 21.0938C44.1094 20.5365 44.0547 19.8854 44.0547 19.1406V17.4062C44.0547 16.474 44.138 15.6927 44.3047 15.0625C44.4766 14.4323 44.7188 13.9271 45.0312 13.5469C45.3438 13.1615 45.7188 12.8854 46.1562 12.7188C46.599 12.5521 47.0938 12.4688 47.6406 12.4688C48.0833 12.4688 48.4896 12.5234 48.8594 12.6328C49.2344 12.737 49.5677 12.9062 49.8594 13.1406C50.151 13.3698 50.3984 13.6771 50.6016 14.0625C50.8099 14.4427 50.9688 14.9089 51.0781 15.4609C51.1875 16.013 51.2422 16.6615 51.2422 17.4062ZM49.7891 19.375V17.1641C49.7891 16.6536 49.7578 16.2057 49.6953 15.8203C49.638 15.4297 49.5521 15.0964 49.4375 14.8203C49.3229 14.5443 49.1771 14.3203 49 14.1484C48.8281 13.9766 48.6276 13.8516 48.3984 13.7734C48.1745 13.6901 47.9219 13.6484 47.6406 13.6484C47.2969 13.6484 46.9922 13.7135 46.7266 13.8438C46.4609 13.9688 46.237 14.1693 46.0547 14.4453C45.8776 14.7214 45.7422 15.0833 45.6484 15.5312C45.5547 15.9792 45.5078 16.5234 45.5078 17.1641V19.375C45.5078 19.8854 45.5365 20.3359 45.5938 20.7266C45.6562 21.1172 45.7474 21.4557 45.8672 21.7422C45.987 22.0234 46.1328 22.2552 46.3047 22.4375C46.4766 22.6198 46.6745 22.7552 46.8984 22.8438C47.1276 22.9271 47.3802 22.9688 47.6562 22.9688C48.0104 22.9688 48.3203 22.901 48.5859 22.7656C48.8516 22.6302 49.0729 22.4193 49.25 22.1328C49.4323 21.8411 49.5677 21.4688 49.6562 21.0156C49.7448 20.5573 49.7891 20.0104 49.7891 19.375ZM56.4219 18.5703V19.7578H52.6094V18.5703H56.4219ZM59.5078 18.5859L58.3516 18.2891L58.9219 12.625H64.7578V13.9609H60.1484L59.8047 17.0547C60.013 16.9349 60.276 16.8229 60.5938 16.7188C60.9167 16.6146 61.2865 16.5625 61.7031 16.5625C62.2292 16.5625 62.7005 16.6536 63.1172 16.8359C63.5339 17.013 63.888 17.2682 64.1797 17.6016C64.4766 17.9349 64.7031 18.3359 64.8594 18.8047C65.0156 19.2734 65.0938 19.7969 65.0938 20.375C65.0938 20.9219 65.0182 21.4245 64.8672 21.8828C64.7214 22.3411 64.5 22.7422 64.2031 23.0859C63.9062 23.4245 63.5312 23.6875 63.0781 23.875C62.6302 24.0625 62.1016 24.1562 61.4922 24.1562C61.0339 24.1562 60.599 24.0938 60.1875 23.9688C59.7812 23.8385 59.4167 23.6432 59.0938 23.3828C58.776 23.1172 58.5156 22.7891 58.3125 22.3984C58.1146 22.0026 57.9896 21.5391 57.9375 21.0078H59.3125C59.375 21.4349 59.5 21.7943 59.6875 22.0859C59.875 22.3776 60.1198 22.599 60.4219 22.75C60.7292 22.8958 61.0859 22.9688 61.4922 22.9688C61.8359 22.9688 62.1406 22.9089 62.4062 22.7891C62.6719 22.6693 62.8958 22.4974 63.0781 22.2734C63.2604 22.0495 63.3984 21.7786 63.4922 21.4609C63.5911 21.1432 63.6406 20.7865 63.6406 20.3906C63.6406 20.0312 63.5911 19.6979 63.4922 19.3906C63.3932 19.0833 63.2448 18.8151 63.0469 18.5859C62.8542 18.3568 62.6172 18.1797 62.3359 18.0547C62.0547 17.9245 61.7318 17.8594 61.3672 17.8594C60.8828 17.8594 60.5156 17.9245 60.2656 18.0547C60.0208 18.1849 59.7682 18.362 59.5078 18.5859ZM73.9766 17.4062V19.1406C73.9766 20.0729 73.8932 20.8594 73.7266 21.5C73.5599 22.1406 73.3203 22.6562 73.0078 23.0469C72.6953 23.4375 72.3177 23.7214 71.875 23.8984C71.4375 24.0703 70.9427 24.1562 70.3906 24.1562C69.9531 24.1562 69.5495 24.1016 69.1797 23.9922C68.8099 23.8828 68.4766 23.7083 68.1797 23.4688C67.888 23.224 67.638 22.9062 67.4297 22.5156C67.2214 22.125 67.0625 21.651 66.9531 21.0938C66.8438 20.5365 66.7891 19.8854 66.7891 19.1406V17.4062C66.7891 16.474 66.8724 15.6927 67.0391 15.0625C67.2109 14.4323 67.4531 13.9271 67.7656 13.5469C68.0781 13.1615 68.4531 12.8854 68.8906 12.7188C69.3333 12.5521 69.8281 12.4688 70.375 12.4688C70.8177 12.4688 71.224 12.5234 71.5938 12.6328C71.9688 12.737 72.3021 12.9062 72.5938 13.1406C72.8854 13.3698 73.1328 13.6771 73.3359 14.0625C73.5443 14.4427 73.7031 14.9089 73.8125 15.4609C73.9219 16.013 73.9766 16.6615 73.9766 17.4062ZM72.5234 19.375V17.1641C72.5234 16.6536 72.4922 16.2057 72.4297 15.8203C72.3724 15.4297 72.2865 15.0964 72.1719 14.8203C72.0573 14.5443 71.9115 14.3203 71.7344 14.1484C71.5625 13.9766 71.362 13.8516 71.1328 13.7734C70.9089 13.6901 70.6562 13.6484 70.375 13.6484C70.0312 13.6484 69.7266 13.7135 69.4609 13.8438C69.1953 13.9688 68.9714 14.1693 68.7891 14.4453C68.612 14.7214 68.4766 15.0833 68.3828 15.5312C68.2891 15.9792 68.2422 16.5234 68.2422 17.1641V19.375C68.2422 19.8854 68.2708 20.3359 68.3281 20.7266C68.3906 21.1172 68.4818 21.4557 68.6016 21.7422C68.7214 22.0234 68.8672 22.2552 69.0391 22.4375C69.2109 22.6198 69.4089 22.7552 69.6328 22.8438C69.862 22.9271 70.1146 22.9688 70.3906 22.9688C70.7448 22.9688 71.0547 22.901 71.3203 22.7656C71.5859 22.6302 71.8073 22.4193 71.9844 22.1328C72.1667 21.8411 72.3021 21.4688 72.3906 21.0156C72.4792 20.5573 72.5234 20.0104 72.5234 19.375ZM84.9766 22.0781L87.8516 15.5469H89.2422L85.4766 24H84.4766L80.7266 15.5469H82.1172L84.9766 22.0781ZM81.6953 15.5469V24H80.25V15.5469H81.6953ZM88.2109 24V15.5469H89.6641V24H88.2109ZM93.5547 21.7109L97.4531 15.5469H98.9062V24H97.4531V17.8359L93.5547 24H92.1172V15.5469H93.5547V21.7109ZM106.961 19.2109V20.3828H102.492V19.2109H106.961ZM102.797 15.5469V24H101.352V15.5469H102.797ZM108.133 15.5469V24H106.68V15.5469H108.133ZM115.492 12.625L110.75 24.9766H109.508L114.258 12.625H115.492ZM118.594 15.5469H120.039L119.914 18.7109C119.883 19.513 119.792 20.2057 119.641 20.7891C119.49 21.3724 119.297 21.8698 119.062 22.2812C118.828 22.6875 118.565 23.0286 118.273 23.3047C117.987 23.5807 117.69 23.8125 117.383 24H116.664L116.703 22.8203L117 22.8125C117.172 22.6094 117.339 22.401 117.5 22.1875C117.661 21.9688 117.81 21.7109 117.945 21.4141C118.081 21.112 118.193 20.7448 118.281 20.3125C118.375 19.875 118.435 19.3411 118.461 18.7109L118.594 15.5469ZM118.953 15.5469H124.039V24H122.594V16.8828H118.953V15.5469ZM116.336 22.8125H125.125V26.4922H123.68V24H117.781V26.4922H116.328L116.336 22.8125ZM130.234 24.1562C129.646 24.1562 129.112 24.0573 128.633 23.8594C128.159 23.6562 127.75 23.3724 127.406 23.0078C127.068 22.6432 126.807 22.2109 126.625 21.7109C126.443 21.2109 126.352 20.6641 126.352 20.0703V19.7422C126.352 19.0547 126.453 18.4427 126.656 17.9062C126.859 17.3646 127.135 16.9062 127.484 16.5312C127.833 16.1562 128.229 15.8724 128.672 15.6797C129.115 15.487 129.573 15.3906 130.047 15.3906C130.651 15.3906 131.172 15.4948 131.609 15.7031C132.052 15.9115 132.414 16.2031 132.695 16.5781C132.977 16.9479 133.185 17.3854 133.32 17.8906C133.456 18.3906 133.523 18.9375 133.523 19.5312V20.1797H127.211V19H132.078V18.8906C132.057 18.5156 131.979 18.151 131.844 17.7969C131.714 17.4427 131.505 17.151 131.219 16.9219C130.932 16.6927 130.542 16.5781 130.047 16.5781C129.719 16.5781 129.417 16.6484 129.141 16.7891C128.865 16.9245 128.628 17.1276 128.43 17.3984C128.232 17.6693 128.078 18 127.969 18.3906C127.859 18.7812 127.805 19.2318 127.805 19.7422V20.0703C127.805 20.4714 127.859 20.849 127.969 21.2031C128.083 21.5521 128.247 21.8594 128.461 22.125C128.68 22.3906 128.943 22.599 129.25 22.75C129.562 22.901 129.917 22.9766 130.312 22.9766C130.823 22.9766 131.255 22.8724 131.609 22.6641C131.964 22.4557 132.273 22.1771 132.539 21.8281L133.414 22.5234C133.232 22.7995 133 23.0625 132.719 23.3125C132.438 23.5625 132.091 23.7656 131.68 23.9219C131.273 24.0781 130.792 24.1562 130.234 24.1562ZM140.945 19.2109V20.3828H136.477V19.2109H140.945ZM136.781 15.5469V24H135.336V15.5469H136.781ZM142.117 15.5469V24H140.664V15.5469H142.117ZM145.633 18.4531H148.172C148.854 18.4531 149.43 18.5729 149.898 18.8125C150.367 19.0469 150.721 19.3724 150.961 19.7891C151.206 20.2005 151.328 20.6693 151.328 21.1953C151.328 21.5859 151.26 21.9531 151.125 22.2969C150.99 22.6354 150.786 22.9323 150.516 23.1875C150.25 23.4427 149.919 23.6432 149.523 23.7891C149.133 23.9297 148.682 24 148.172 24H144.578V15.5469H146.023V22.8125H148.172C148.589 22.8125 148.922 22.737 149.172 22.5859C149.422 22.4349 149.602 22.2396 149.711 22C149.82 21.7604 149.875 21.5104 149.875 21.25C149.875 20.9948 149.82 20.7448 149.711 20.5C149.602 20.2552 149.422 20.0521 149.172 19.8906C148.922 19.724 148.589 19.6406 148.172 19.6406H145.633V18.4531Z" fill="#202020"/>
</svg>
