<svg width="103" height="38" viewBox="0 0 103 38" fill="none" xmlns="http://www.w3.org/2000/svg">
<rect width="103" height="38" rx="19" fill="#F7F7F7"/>
<path d="M17.5 12.625C17.5 11.7966 16.8284 11.125 16 11.125C15.1716 11.125 14.5 11.7966 14.5 12.625C12.8431 12.625 11.5 13.9681 11.5 15.625H26.5C26.5 13.9681 25.1569 12.625 23.5 12.625C23.5 11.7966 22.8284 11.125 22 11.125C21.1716 11.125 20.5 11.7966 20.5 12.625H17.5Z" fill="#202020"/>
<path fill-rule="evenodd" clip-rule="evenodd" d="M11.5 17.125H26.5V21.325C26.5 23.0052 26.5 23.8452 26.173 24.487C25.8854 25.0515 25.4265 25.5104 24.862 25.798C24.2202 26.125 23.3802 26.125 21.7 26.125H16.3C14.6198 26.125 13.7798 26.125 13.138 25.798C12.5735 25.5104 12.1146 25.0515 11.827 24.487C11.5 23.8452 11.5 23.0052 11.5 21.325V17.125ZM20.5 21.325C20.5 20.905 20.5 20.6949 20.5817 20.5345C20.6537 20.3934 20.7684 20.2787 20.9095 20.2067C21.0699 20.125 21.28 20.125 21.7 20.125H22.3C22.72 20.125 22.9301 20.125 23.0905 20.2067C23.2316 20.2787 23.3463 20.3934 23.4183 20.5345C23.5 20.6949 23.5 20.905 23.5 21.325V21.925C23.5 22.345 23.5 22.5551 23.4183 22.7155C23.3463 22.8566 23.2316 22.9713 23.0905 23.0433C22.9301 23.125 22.72 23.125 22.3 23.125H21.7C21.28 23.125 21.0699 23.125 20.9095 23.0433C20.7684 22.9713 20.6537 22.8566 20.5817 22.7155C20.5 22.5551 20.5 22.345 20.5 21.925V21.325Z" fill="#202020"/>
<path d="M42.3984 22.8125V24H34.9531V22.9609L38.6797 18.8125C39.138 18.3021 39.4922 17.8698 39.7422 17.5156C39.9974 17.1562 40.1745 16.8359 40.2734 16.5547C40.3776 16.2682 40.4297 15.9766 40.4297 15.6797C40.4297 15.3047 40.3516 14.9661 40.1953 14.6641C40.0443 14.3568 39.8203 14.112 39.5234 13.9297C39.2266 13.7474 38.8672 13.6562 38.4453 13.6562C37.9401 13.6562 37.5182 13.7552 37.1797 13.9531C36.8464 14.1458 36.5964 14.4167 36.4297 14.7656C36.263 15.1146 36.1797 15.5156 36.1797 15.9688H34.7344C34.7344 15.3281 34.875 14.7422 35.1562 14.2109C35.4375 13.6797 35.8542 13.2578 36.4062 12.9453C36.9583 12.6276 37.638 12.4688 38.4453 12.4688C39.1641 12.4688 39.7786 12.5964 40.2891 12.8516C40.7995 13.1016 41.1901 13.4557 41.4609 13.9141C41.737 14.3672 41.875 14.8984 41.875 15.5078C41.875 15.8411 41.8177 16.1797 41.7031 16.5234C41.5938 16.862 41.4401 17.2005 41.2422 17.5391C41.0495 17.8776 40.8229 18.2109 40.5625 18.5391C40.3073 18.8672 40.0339 19.1901 39.7422 19.5078L36.6953 22.8125H42.3984ZM45.7734 18.5859L44.6172 18.2891L45.1875 12.625H51.0234V13.9609H46.4141L46.0703 17.0547C46.2786 16.9349 46.5417 16.8229 46.8594 16.7188C47.1823 16.6146 47.5521 16.5625 47.9688 16.5625C48.4948 16.5625 48.9661 16.6536 49.3828 16.8359C49.7995 17.013 50.1536 17.2682 50.4453 17.6016C50.7422 17.9349 50.9688 18.3359 51.125 18.8047C51.2812 19.2734 51.3594 19.7969 51.3594 20.375C51.3594 20.9219 51.2839 21.4245 51.1328 21.8828C50.987 22.3411 50.7656 22.7422 50.4688 23.0859C50.1719 23.4245 49.7969 23.6875 49.3438 23.875C48.8958 24.0625 48.3672 24.1562 47.7578 24.1562C47.2995 24.1562 46.8646 24.0938 46.4531 23.9688C46.0469 23.8385 45.6823 23.6432 45.3594 23.3828C45.0417 23.1172 44.7812 22.7891 44.5781 22.3984C44.3802 22.0026 44.2552 21.5391 44.2031 21.0078H45.5781C45.6406 21.4349 45.7656 21.7943 45.9531 22.0859C46.1406 22.3776 46.3854 22.599 46.6875 22.75C46.9948 22.8958 47.3516 22.9688 47.7578 22.9688C48.1016 22.9688 48.4062 22.9089 48.6719 22.7891C48.9375 22.6693 49.1615 22.4974 49.3438 22.2734C49.526 22.0495 49.6641 21.7786 49.7578 21.4609C49.8568 21.1432 49.9062 20.7865 49.9062 20.3906C49.9062 20.0312 49.8568 19.6979 49.7578 19.3906C49.6589 19.0833 49.5104 18.8151 49.3125 18.5859C49.1198 18.3568 48.8828 18.1797 48.6016 18.0547C48.3203 17.9245 47.9974 17.8594 47.6328 17.8594C47.1484 17.8594 46.7812 17.9245 46.5312 18.0547C46.2865 18.1849 46.0339 18.362 45.7734 18.5859ZM58.5938 15.5469H60.0391L59.9141 18.7109C59.8828 19.513 59.7917 20.2057 59.6406 20.7891C59.4896 21.3724 59.2969 21.8698 59.0625 22.2812C58.8281 22.6875 58.5651 23.0286 58.2734 23.3047C57.987 23.5807 57.6901 23.8125 57.3828 24H56.6641L56.7031 22.8203L57 22.8125C57.1719 22.6094 57.3385 22.401 57.5 22.1875C57.6615 21.9688 57.8099 21.7109 57.9453 21.4141C58.0807 21.112 58.1927 20.7448 58.2812 20.3125C58.375 19.875 58.4349 19.3411 58.4609 18.7109L58.5938 15.5469ZM58.9531 15.5469H64.0391V24H62.5938V16.8828H58.9531V15.5469ZM56.3359 22.8125H65.125V26.4922H63.6797V24H57.7812V26.4922H56.3281L56.3359 22.8125ZM72.4609 19.2109V20.3828H67.9922V19.2109H72.4609ZM68.2969 15.5469V24H66.8516V15.5469H68.2969ZM73.6328 15.5469V24H72.1797V15.5469H73.6328ZM79.4688 24.1562C78.8802 24.1562 78.3464 24.0573 77.8672 23.8594C77.3932 23.6562 76.9844 23.3724 76.6406 23.0078C76.3021 22.6432 76.0417 22.2109 75.8594 21.7109C75.6771 21.2109 75.5859 20.6641 75.5859 20.0703V19.7422C75.5859 19.0547 75.6875 18.4427 75.8906 17.9062C76.0938 17.3646 76.3698 16.9062 76.7188 16.5312C77.0677 16.1562 77.4635 15.8724 77.9062 15.6797C78.349 15.487 78.8073 15.3906 79.2812 15.3906C79.8854 15.3906 80.4062 15.4948 80.8438 15.7031C81.2865 15.9115 81.6484 16.2031 81.9297 16.5781C82.2109 16.9479 82.4193 17.3854 82.5547 17.8906C82.6901 18.3906 82.7578 18.9375 82.7578 19.5312V20.1797H76.4453V19H81.3125V18.8906C81.2917 18.5156 81.2135 18.151 81.0781 17.7969C80.9479 17.4427 80.7396 17.151 80.4531 16.9219C80.1667 16.6927 79.776 16.5781 79.2812 16.5781C78.9531 16.5781 78.651 16.6484 78.375 16.7891C78.099 16.9245 77.862 17.1276 77.6641 17.3984C77.4661 17.6693 77.3125 18 77.2031 18.3906C77.0938 18.7812 77.0391 19.2318 77.0391 19.7422V20.0703C77.0391 20.4714 77.0938 20.849 77.2031 21.2031C77.3177 21.5521 77.4818 21.8594 77.6953 22.125C77.9141 22.3906 78.1771 22.599 78.4844 22.75C78.7969 22.901 79.151 22.9766 79.5469 22.9766C80.0573 22.9766 80.4896 22.8724 80.8438 22.6641C81.1979 22.4557 81.5078 22.1771 81.7734 21.8281L82.6484 22.5234C82.4661 22.7995 82.2344 23.0625 81.9531 23.3125C81.6719 23.5625 81.3255 23.7656 80.9141 23.9219C80.5078 24.0781 80.026 24.1562 79.4688 24.1562ZM86.0078 21.7109L89.9062 15.5469H91.3594V24H89.9062V17.8359L86.0078 24H84.5703V15.5469H86.0078V21.7109ZM89.1172 12.4844H90.2891C90.2891 12.8906 90.1953 13.2526 90.0078 13.5703C89.8203 13.8828 89.5521 14.1276 89.2031 14.3047C88.8542 14.4818 88.4401 14.5703 87.9609 14.5703C87.237 14.5703 86.6641 14.3776 86.2422 13.9922C85.8255 13.6016 85.6172 13.099 85.6172 12.4844H86.7891C86.7891 12.7917 86.8776 13.0625 87.0547 13.2969C87.2318 13.5312 87.5339 13.6484 87.9609 13.6484C88.3776 13.6484 88.6745 13.5312 88.8516 13.2969C89.0286 13.0625 89.1172 12.7917 89.1172 12.4844Z" fill="#202020"/>
</svg>
