<svg width="368" height="141" viewBox="0 0 368 141" fill="none" xmlns="http://www.w3.org/2000/svg">
<rect width="368" height="141" rx="28" fill="url(#paint0_linear_29_1244)"/>
<path d="M45.4517 42.4966V96H36.626V52.9702L23.5522 57.4014V50.1138L44.3896 42.4966H45.4517Z" fill="#BCEC30"/>
<path d="M95.3984 50.6602V52.5H82.4844V50.6602H95.3984ZM82.8477 50.6602V56.6953H80.6094L80.5977 50.6602H82.8477ZM97.3672 50.6602L97.3438 56.6836H95.1055V50.6602H97.3672ZM93.1836 35.4375V37.2891H85.707V35.4375H93.1836ZM95.1289 35.4375V52.5H92.8789V35.4375H95.1289ZM84.9336 35.4375H87.1953L86.8438 42.3047C86.7969 43.3359 86.6992 44.2891 86.5508 45.1641C86.4023 46.0312 86.2188 46.8242 86 47.543C85.7812 48.2617 85.5312 48.9062 85.25 49.4766C84.9688 50.0391 84.668 50.5273 84.3477 50.9414C84.0273 51.3477 83.6914 51.6836 83.3398 51.9492C82.9961 52.207 82.6484 52.3906 82.2969 52.5H81.2656V50.6602H81.9922C82.1953 50.4414 82.4258 50.125 82.6836 49.7109C82.9492 49.2969 83.2109 48.7617 83.4688 48.1055C83.7344 47.4414 83.9648 46.6328 84.1602 45.6797C84.3633 44.7266 84.5 43.6016 84.5703 42.3047L84.9336 35.4375ZM107.176 50.332V43.8047C107.176 43.3047 107.074 42.8711 106.871 42.5039C106.676 42.1289 106.379 41.8398 105.98 41.6367C105.582 41.4336 105.09 41.332 104.504 41.332C103.957 41.332 103.477 41.4258 103.062 41.6133C102.656 41.8008 102.336 42.0469 102.102 42.3516C101.875 42.6562 101.762 42.9844 101.762 43.3359H99.5938C99.5938 42.8828 99.7109 42.4336 99.9453 41.9883C100.18 41.543 100.516 41.1406 100.953 40.7812C101.398 40.4141 101.93 40.125 102.547 39.9141C103.172 39.6953 103.867 39.5859 104.633 39.5859C105.555 39.5859 106.367 39.7422 107.07 40.0547C107.781 40.3672 108.336 40.8398 108.734 41.4727C109.141 42.0977 109.344 42.8828 109.344 43.8281V49.7344C109.344 50.1562 109.379 50.6055 109.449 51.082C109.527 51.5586 109.641 51.9688 109.789 52.3125V52.5H107.527C107.418 52.25 107.332 51.918 107.27 51.5039C107.207 51.082 107.176 50.6914 107.176 50.332ZM107.551 44.8125L107.574 46.3359H105.383C104.766 46.3359 104.215 46.3867 103.73 46.4883C103.246 46.582 102.84 46.7266 102.512 46.9219C102.184 47.1172 101.934 47.3633 101.762 47.6602C101.59 47.9492 101.504 48.2891 101.504 48.6797C101.504 49.0781 101.594 49.4414 101.773 49.7695C101.953 50.0977 102.223 50.3594 102.582 50.5547C102.949 50.7422 103.398 50.8359 103.93 50.8359C104.594 50.8359 105.18 50.6953 105.688 50.4141C106.195 50.1328 106.598 49.7891 106.895 49.3828C107.199 48.9766 107.363 48.582 107.387 48.1992L108.312 49.2422C108.258 49.5703 108.109 49.9336 107.867 50.332C107.625 50.7305 107.301 51.1133 106.895 51.4805C106.496 51.8398 106.02 52.1406 105.465 52.3828C104.918 52.6172 104.301 52.7344 103.613 52.7344C102.754 52.7344 102 52.5664 101.352 52.2305C100.711 51.8945 100.211 51.4453 99.8516 50.8828C99.5 50.3125 99.3242 49.6758 99.3242 48.9727C99.3242 48.293 99.457 47.6953 99.7227 47.1797C99.9883 46.6562 100.371 46.2227 100.871 45.8789C101.371 45.5273 101.973 45.2617 102.676 45.082C103.379 44.9023 104.164 44.8125 105.031 44.8125H107.551ZM118.707 46.9219H114.547L114.523 45.1875H117.922C118.594 45.1875 119.152 45.1211 119.598 44.9883C120.051 44.8555 120.391 44.6562 120.617 44.3906C120.844 44.125 120.957 43.7969 120.957 43.4062C120.957 43.1016 120.891 42.8359 120.758 42.6094C120.633 42.375 120.441 42.1836 120.184 42.0352C119.926 41.8789 119.605 41.7656 119.223 41.6953C118.848 41.6172 118.406 41.5781 117.898 41.5781H115.121V52.5H112.953V39.8203H117.898C118.703 39.8203 119.426 39.8906 120.066 40.0312C120.715 40.1719 121.266 40.3867 121.719 40.6758C122.18 40.957 122.531 41.3164 122.773 41.7539C123.016 42.1914 123.137 42.707 123.137 43.3008C123.137 43.6836 123.059 44.0469 122.902 44.3906C122.746 44.7344 122.516 45.0391 122.211 45.3047C121.906 45.5703 121.531 45.7891 121.086 45.9609C120.641 46.125 120.129 46.2305 119.551 46.2773L118.707 46.9219ZM118.707 52.5H113.762L114.84 50.7422H118.707C119.309 50.7422 119.809 50.668 120.207 50.5195C120.605 50.3633 120.902 50.1445 121.098 49.8633C121.301 49.5742 121.402 49.2305 121.402 48.832C121.402 48.4336 121.301 48.0938 121.098 47.8125C120.902 47.5234 120.605 47.3047 120.207 47.1562C119.809 47 119.309 46.9219 118.707 46.9219H115.414L115.438 45.1875H119.551L120.336 45.8438C121.031 45.8984 121.621 46.0703 122.105 46.3594C122.59 46.6484 122.957 47.0156 123.207 47.4609C123.457 47.8984 123.582 48.375 123.582 48.8906C123.582 49.4844 123.469 50.0078 123.242 50.4609C123.023 50.9141 122.703 51.293 122.281 51.5977C121.859 51.8945 121.348 52.1211 120.746 52.2773C120.145 52.4258 119.465 52.5 118.707 52.5ZM135.09 45.3164V47.0742H128.387V45.3164H135.09ZM128.844 39.8203V52.5H126.676V39.8203H128.844ZM136.848 39.8203V52.5H134.668V39.8203H136.848ZM139.766 46.3008V46.0312C139.766 45.1172 139.898 44.2695 140.164 43.4883C140.43 42.6992 140.812 42.0156 141.312 41.4375C141.812 40.8516 142.418 40.3984 143.129 40.0781C143.84 39.75 144.637 39.5859 145.52 39.5859C146.41 39.5859 147.211 39.75 147.922 40.0781C148.641 40.3984 149.25 40.8516 149.75 41.4375C150.258 42.0156 150.645 42.6992 150.91 43.4883C151.176 44.2695 151.309 45.1172 151.309 46.0312V46.3008C151.309 47.2148 151.176 48.0625 150.91 48.8438C150.645 49.625 150.258 50.3086 149.75 50.8945C149.25 51.4727 148.645 51.9258 147.934 52.2539C147.23 52.5742 146.434 52.7344 145.543 52.7344C144.652 52.7344 143.852 52.5742 143.141 52.2539C142.43 51.9258 141.82 51.4727 141.312 50.8945C140.812 50.3086 140.43 49.625 140.164 48.8438C139.898 48.0625 139.766 47.2148 139.766 46.3008ZM141.934 46.0312V46.3008C141.934 46.9336 142.008 47.5312 142.156 48.0938C142.305 48.6484 142.527 49.1406 142.824 49.5703C143.129 50 143.508 50.3398 143.961 50.5898C144.414 50.832 144.941 50.9531 145.543 50.9531C146.137 50.9531 146.656 50.832 147.102 50.5898C147.555 50.3398 147.93 50 148.227 49.5703C148.523 49.1406 148.746 48.6484 148.895 48.0938C149.051 47.5312 149.129 46.9336 149.129 46.3008V46.0312C149.129 45.4062 149.051 44.8164 148.895 44.2617C148.746 43.6992 148.52 43.2031 148.215 42.7734C147.918 42.3359 147.543 41.9922 147.09 41.7422C146.645 41.4922 146.121 41.3672 145.52 41.3672C144.926 41.3672 144.402 41.4922 143.949 41.7422C143.504 41.9922 143.129 42.3359 142.824 42.7734C142.527 43.2031 142.305 43.6992 142.156 44.2617C142.008 44.8164 141.934 45.4062 141.934 46.0312ZM161.445 39.8203L164.223 44.4375L167.035 39.8203H169.578L165.43 46.0781L169.707 52.5H167.199L164.27 47.7422L161.34 52.5H158.82L163.086 46.0781L158.949 39.8203H161.445ZM171.078 46.3008V46.0312C171.078 45.1172 171.211 44.2695 171.477 43.4883C171.742 42.6992 172.125 42.0156 172.625 41.4375C173.125 40.8516 173.73 40.3984 174.441 40.0781C175.152 39.75 175.949 39.5859 176.832 39.5859C177.723 39.5859 178.523 39.75 179.234 40.0781C179.953 40.3984 180.562 40.8516 181.062 41.4375C181.57 42.0156 181.957 42.6992 182.223 43.4883C182.488 44.2695 182.621 45.1172 182.621 46.0312V46.3008C182.621 47.2148 182.488 48.0625 182.223 48.8438C181.957 49.625 181.57 50.3086 181.062 50.8945C180.562 51.4727 179.957 51.9258 179.246 52.2539C178.543 52.5742 177.746 52.7344 176.855 52.7344C175.965 52.7344 175.164 52.5742 174.453 52.2539C173.742 51.9258 173.133 51.4727 172.625 50.8945C172.125 50.3086 171.742 49.625 171.477 48.8438C171.211 48.0625 171.078 47.2148 171.078 46.3008ZM173.246 46.0312V46.3008C173.246 46.9336 173.32 47.5312 173.469 48.0938C173.617 48.6484 173.84 49.1406 174.137 49.5703C174.441 50 174.82 50.3398 175.273 50.5898C175.727 50.832 176.254 50.9531 176.855 50.9531C177.449 50.9531 177.969 50.832 178.414 50.5898C178.867 50.3398 179.242 50 179.539 49.5703C179.836 49.1406 180.059 48.6484 180.207 48.0938C180.363 47.5312 180.441 46.9336 180.441 46.3008V46.0312C180.441 45.4062 180.363 44.8164 180.207 44.2617C180.059 43.6992 179.832 43.2031 179.527 42.7734C179.23 42.3359 178.855 41.9922 178.402 41.7422C177.957 41.4922 177.434 41.3672 176.832 41.3672C176.238 41.3672 175.715 41.4922 175.262 41.7422C174.816 41.9922 174.441 42.3359 174.137 42.7734C173.84 43.2031 173.617 43.6992 173.469 44.2617C173.32 44.8164 173.246 45.4062 173.246 46.0312ZM190.25 39.8203V52.5H188.07V39.8203H190.25ZM194.504 39.8203V41.5781H183.898V39.8203H194.504ZM200.961 52.7344C200.078 52.7344 199.277 52.5859 198.559 52.2891C197.848 51.9844 197.234 51.5586 196.719 51.0117C196.211 50.4648 195.82 49.8164 195.547 49.0664C195.273 48.3164 195.137 47.4961 195.137 46.6055V46.1133C195.137 45.082 195.289 44.1641 195.594 43.3594C195.898 42.5469 196.312 41.8594 196.836 41.2969C197.359 40.7344 197.953 40.3086 198.617 40.0195C199.281 39.7305 199.969 39.5859 200.68 39.5859C201.586 39.5859 202.367 39.7422 203.023 40.0547C203.688 40.3672 204.23 40.8047 204.652 41.3672C205.074 41.9219 205.387 42.5781 205.59 43.3359C205.793 44.0859 205.895 44.9062 205.895 45.7969V46.7695H196.426V45H203.727V44.8359C203.695 44.2734 203.578 43.7266 203.375 43.1953C203.18 42.6641 202.867 42.2266 202.438 41.8828C202.008 41.5391 201.422 41.3672 200.68 41.3672C200.188 41.3672 199.734 41.4727 199.32 41.6836C198.906 41.8867 198.551 42.1914 198.254 42.5977C197.957 43.0039 197.727 43.5 197.562 44.0859C197.398 44.6719 197.316 45.3477 197.316 46.1133V46.6055C197.316 47.207 197.398 47.7734 197.562 48.3047C197.734 48.8281 197.98 49.2891 198.301 49.6875C198.629 50.0859 199.023 50.3984 199.484 50.625C199.953 50.8516 200.484 50.9648 201.078 50.9648C201.844 50.9648 202.492 50.8086 203.023 50.4961C203.555 50.1836 204.02 49.7656 204.418 49.2422L205.73 50.2852C205.457 50.6992 205.109 51.0938 204.688 51.4688C204.266 51.8438 203.746 52.1484 203.129 52.3828C202.52 52.6172 201.797 52.7344 200.961 52.7344ZM216.898 39.8203V41.6133H210.77V39.8203H216.898ZM218.809 39.8203V52.5H216.641V39.8203H218.809ZM210.242 39.8203H212.422L212.094 45.9375C212.039 46.8828 211.949 47.7188 211.824 48.4453C211.707 49.1641 211.543 49.7812 211.332 50.2969C211.129 50.8125 210.871 51.2344 210.559 51.5625C210.254 51.8828 209.887 52.1211 209.457 52.2773C209.027 52.4258 208.531 52.5 207.969 52.5H207.289V50.5898L207.758 50.5547C208.094 50.5312 208.379 50.4531 208.613 50.3203C208.855 50.1875 209.059 49.9922 209.223 49.7344C209.387 49.4688 209.52 49.1289 209.621 48.7148C209.73 48.3008 209.812 47.8086 209.867 47.2383C209.93 46.668 209.977 46.0039 210.008 45.2461L210.242 39.8203ZM224.645 49.0664L230.492 39.8203H232.672V52.5H230.492V43.2539L224.645 52.5H222.488V39.8203H224.645V49.0664ZM90.1016 65.8203V67.6133H83.6914V65.8203H90.1016ZM84.0078 65.8203V78.5H81.8398V65.8203H84.0078ZM92.0234 65.8203V78.5H89.8438V65.8203H92.0234ZM94.9297 72.3008V72.0312C94.9297 71.1172 95.0625 70.2695 95.3281 69.4883C95.5938 68.6992 95.9766 68.0156 96.4766 67.4375C96.9766 66.8516 97.582 66.3984 98.293 66.0781C99.0039 65.75 99.8008 65.5859 100.684 65.5859C101.574 65.5859 102.375 65.75 103.086 66.0781C103.805 66.3984 104.414 66.8516 104.914 67.4375C105.422 68.0156 105.809 68.6992 106.074 69.4883C106.34 70.2695 106.473 71.1172 106.473 72.0312V72.3008C106.473 73.2148 106.34 74.0625 106.074 74.8438C105.809 75.625 105.422 76.3086 104.914 76.8945C104.414 77.4727 103.809 77.9258 103.098 78.2539C102.395 78.5742 101.598 78.7344 100.707 78.7344C99.8164 78.7344 99.0156 78.5742 98.3047 78.2539C97.5938 77.9258 96.9844 77.4727 96.4766 76.8945C95.9766 76.3086 95.5938 75.625 95.3281 74.8438C95.0625 74.0625 94.9297 73.2148 94.9297 72.3008ZM97.0977 72.0312V72.3008C97.0977 72.9336 97.1719 73.5312 97.3203 74.0938C97.4688 74.6484 97.6914 75.1406 97.9883 75.5703C98.293 76 98.6719 76.3398 99.125 76.5898C99.5781 76.832 100.105 76.9531 100.707 76.9531C101.301 76.9531 101.82 76.832 102.266 76.5898C102.719 76.3398 103.094 76 103.391 75.5703C103.688 75.1406 103.91 74.6484 104.059 74.0938C104.215 73.5312 104.293 72.9336 104.293 72.3008V72.0312C104.293 71.4062 104.215 70.8164 104.059 70.2617C103.91 69.6992 103.684 69.2031 103.379 68.7734C103.082 68.3359 102.707 67.9922 102.254 67.7422C101.809 67.4922 101.285 67.3672 100.684 67.3672C100.09 67.3672 99.5664 67.4922 99.1133 67.7422C98.668 67.9922 98.293 68.3359 97.9883 68.7734C97.6914 69.2031 97.4688 69.6992 97.3203 70.2617C97.1719 70.8164 97.0977 71.4062 97.0977 72.0312ZM117.641 65.8203V67.6133H111.23V65.8203H117.641ZM111.547 65.8203V78.5H109.379V65.8203H111.547ZM119.562 65.8203V78.5H117.383V65.8203H119.562ZM125.211 68.2578V83.375H123.031V65.8203H125.023L125.211 68.2578ZM133.754 72.0547V72.3008C133.754 73.2227 133.645 74.0781 133.426 74.8672C133.207 75.6484 132.887 76.3281 132.465 76.9062C132.051 77.4844 131.539 77.9336 130.93 78.2539C130.32 78.5742 129.621 78.7344 128.832 78.7344C128.027 78.7344 127.316 78.6016 126.699 78.3359C126.082 78.0703 125.559 77.6836 125.129 77.1758C124.699 76.668 124.355 76.0586 124.098 75.3477C123.848 74.6367 123.676 73.8359 123.582 72.9453V71.6328C123.676 70.6953 123.852 69.8555 124.109 69.1133C124.367 68.3711 124.707 67.7383 125.129 67.2148C125.559 66.6836 126.078 66.2812 126.688 66.0078C127.297 65.7266 128 65.5859 128.797 65.5859C129.594 65.5859 130.301 65.7422 130.918 66.0547C131.535 66.3594 132.055 66.7969 132.477 67.3672C132.898 67.9375 133.215 68.6211 133.426 69.418C133.645 70.207 133.754 71.0859 133.754 72.0547ZM131.574 72.3008V72.0547C131.574 71.4219 131.508 70.8281 131.375 70.2734C131.242 69.7109 131.035 69.2188 130.754 68.7969C130.48 68.3672 130.129 68.0312 129.699 67.7891C129.27 67.5391 128.758 67.4141 128.164 67.4141C127.617 67.4141 127.141 67.5078 126.734 67.6953C126.336 67.8828 125.996 68.1367 125.715 68.457C125.434 68.7695 125.203 69.1289 125.023 69.5352C124.852 69.9336 124.723 70.3477 124.637 70.7773V73.8125C124.793 74.3594 125.012 74.875 125.293 75.3594C125.574 75.8359 125.949 76.2227 126.418 76.5195C126.887 76.8086 127.477 76.9531 128.188 76.9531C128.773 76.9531 129.277 76.832 129.699 76.5898C130.129 76.3398 130.48 76 130.754 75.5703C131.035 75.1406 131.242 74.6484 131.375 74.0938C131.508 73.5312 131.574 72.9336 131.574 72.3008ZM135.945 72.3008V72.0312C135.945 71.1172 136.078 70.2695 136.344 69.4883C136.609 68.6992 136.992 68.0156 137.492 67.4375C137.992 66.8516 138.598 66.3984 139.309 66.0781C140.02 65.75 140.816 65.5859 141.699 65.5859C142.59 65.5859 143.391 65.75 144.102 66.0781C144.82 66.3984 145.43 66.8516 145.93 67.4375C146.438 68.0156 146.824 68.6992 147.09 69.4883C147.355 70.2695 147.488 71.1172 147.488 72.0312V72.3008C147.488 73.2148 147.355 74.0625 147.09 74.8438C146.824 75.625 146.438 76.3086 145.93 76.8945C145.43 77.4727 144.824 77.9258 144.113 78.2539C143.41 78.5742 142.613 78.7344 141.723 78.7344C140.832 78.7344 140.031 78.5742 139.32 78.2539C138.609 77.9258 138 77.4727 137.492 76.8945C136.992 76.3086 136.609 75.625 136.344 74.8438C136.078 74.0625 135.945 73.2148 135.945 72.3008ZM138.113 72.0312V72.3008C138.113 72.9336 138.188 73.5312 138.336 74.0938C138.484 74.6484 138.707 75.1406 139.004 75.5703C139.309 76 139.688 76.3398 140.141 76.5898C140.594 76.832 141.121 76.9531 141.723 76.9531C142.316 76.9531 142.836 76.832 143.281 76.5898C143.734 76.3398 144.109 76 144.406 75.5703C144.703 75.1406 144.926 74.6484 145.074 74.0938C145.23 73.5312 145.309 72.9336 145.309 72.3008V72.0312C145.309 71.4062 145.23 70.8164 145.074 70.2617C144.926 69.6992 144.699 69.2031 144.395 68.7734C144.098 68.3359 143.723 67.9922 143.27 67.7422C142.824 67.4922 142.301 67.3672 141.699 67.3672C141.105 67.3672 140.582 67.4922 140.129 67.7422C139.684 67.9922 139.309 68.3359 139.004 68.7734C138.707 69.2031 138.484 69.6992 138.336 70.2617C138.188 70.8164 138.113 71.4062 138.113 72.0312ZM158.34 60.3008H160.121C160.121 61.0664 160.004 61.6758 159.77 62.1289C159.535 62.5742 159.215 62.918 158.809 63.1602C158.41 63.4023 157.957 63.5859 157.449 63.7109C156.949 63.8359 156.43 63.957 155.891 64.0742C155.219 64.2148 154.594 64.4375 154.016 64.7422C153.445 65.0391 152.953 65.4609 152.539 66.0078C152.133 66.5547 151.832 67.2656 151.637 68.1406C151.449 69.0156 151.398 70.0977 151.484 71.3867V72.4648H149.703V71.3867C149.703 69.9414 149.84 68.6797 150.113 67.6016C150.395 66.5234 150.789 65.6133 151.297 64.8711C151.805 64.1289 152.406 63.5391 153.102 63.1016C153.805 62.6641 154.578 62.3633 155.422 62.1992C156.031 62.082 156.555 61.957 156.992 61.8242C157.43 61.6836 157.762 61.4961 157.988 61.2617C158.223 61.0273 158.34 60.707 158.34 60.3008ZM155.773 66.5469C156.602 66.5469 157.34 66.6914 157.988 66.9805C158.637 67.2695 159.188 67.6719 159.641 68.1875C160.094 68.7031 160.438 69.3125 160.672 70.0156C160.914 70.7109 161.035 71.4688 161.035 72.2891V72.5469C161.035 73.4297 160.906 74.25 160.648 75.0078C160.398 75.7578 160.027 76.4141 159.535 76.9766C159.051 77.5312 158.457 77.9648 157.754 78.2773C157.059 78.5898 156.266 78.7461 155.375 78.7461C154.484 78.7461 153.688 78.5898 152.984 78.2773C152.289 77.9648 151.695 77.5312 151.203 76.9766C150.711 76.4141 150.336 75.7578 150.078 75.0078C149.828 74.25 149.703 73.4297 149.703 72.5469V72.2891C149.703 72.0938 149.738 71.9023 149.809 71.7148C149.879 71.5273 149.965 71.3359 150.066 71.1406C150.176 70.9453 150.273 70.7383 150.359 70.5195C150.648 69.8164 151.043 69.1641 151.543 68.5625C152.051 67.9609 152.656 67.4766 153.359 67.1094C154.07 66.7344 154.875 66.5469 155.773 66.5469ZM155.352 68.3164C154.555 68.3164 153.898 68.5 153.383 68.8672C152.875 69.2344 152.496 69.7227 152.246 70.332C151.996 70.9336 151.871 71.5859 151.871 72.2891V72.5469C151.871 73.1406 151.941 73.7031 152.082 74.2344C152.223 74.7656 152.434 75.2383 152.715 75.6523C153.004 76.0586 153.367 76.3789 153.805 76.6133C154.25 76.8477 154.773 76.9648 155.375 76.9648C155.977 76.9648 156.496 76.8477 156.934 76.6133C157.371 76.3789 157.73 76.0586 158.012 75.6523C158.293 75.2383 158.504 74.7656 158.645 74.2344C158.785 73.7031 158.855 73.1406 158.855 72.5469V72.2891C158.855 71.7578 158.785 71.2539 158.645 70.7773C158.504 70.3008 158.289 69.8789 158 69.5117C157.719 69.1445 157.355 68.8555 156.91 68.6445C156.473 68.4258 155.953 68.3164 155.352 68.3164ZM162.922 72.3008V72.0312C162.922 71.1172 163.055 70.2695 163.32 69.4883C163.586 68.6992 163.969 68.0156 164.469 67.4375C164.969 66.8516 165.574 66.3984 166.285 66.0781C166.996 65.75 167.793 65.5859 168.676 65.5859C169.566 65.5859 170.367 65.75 171.078 66.0781C171.797 66.3984 172.406 66.8516 172.906 67.4375C173.414 68.0156 173.801 68.6992 174.066 69.4883C174.332 70.2695 174.465 71.1172 174.465 72.0312V72.3008C174.465 73.2148 174.332 74.0625 174.066 74.8438C173.801 75.625 173.414 76.3086 172.906 76.8945C172.406 77.4727 171.801 77.9258 171.09 78.2539C170.387 78.5742 169.59 78.7344 168.699 78.7344C167.809 78.7344 167.008 78.5742 166.297 78.2539C165.586 77.9258 164.977 77.4727 164.469 76.8945C163.969 76.3086 163.586 75.625 163.32 74.8438C163.055 74.0625 162.922 73.2148 162.922 72.3008ZM165.09 72.0312V72.3008C165.09 72.9336 165.164 73.5312 165.312 74.0938C165.461 74.6484 165.684 75.1406 165.98 75.5703C166.285 76 166.664 76.3398 167.117 76.5898C167.57 76.832 168.098 76.9531 168.699 76.9531C169.293 76.9531 169.812 76.832 170.258 76.5898C170.711 76.3398 171.086 76 171.383 75.5703C171.68 75.1406 171.902 74.6484 172.051 74.0938C172.207 73.5312 172.285 72.9336 172.285 72.3008V72.0312C172.285 71.4062 172.207 70.8164 172.051 70.2617C171.902 69.6992 171.676 69.2031 171.371 68.7734C171.074 68.3359 170.699 67.9922 170.246 67.7422C169.801 67.4922 169.277 67.3672 168.676 67.3672C168.082 67.3672 167.559 67.4922 167.105 67.7422C166.66 67.9922 166.285 68.3359 165.98 68.7734C165.684 69.2031 165.461 69.6992 165.312 70.2617C165.164 70.8164 165.09 71.4062 165.09 72.0312ZM183.137 72.9219H178.977L178.953 71.1875H182.352C183.023 71.1875 183.582 71.1211 184.027 70.9883C184.48 70.8555 184.82 70.6562 185.047 70.3906C185.273 70.125 185.387 69.7969 185.387 69.4062C185.387 69.1016 185.32 68.8359 185.188 68.6094C185.062 68.375 184.871 68.1836 184.613 68.0352C184.355 67.8789 184.035 67.7656 183.652 67.6953C183.277 67.6172 182.836 67.5781 182.328 67.5781H179.551V78.5H177.383V65.8203H182.328C183.133 65.8203 183.855 65.8906 184.496 66.0312C185.145 66.1719 185.695 66.3867 186.148 66.6758C186.609 66.957 186.961 67.3164 187.203 67.7539C187.445 68.1914 187.566 68.707 187.566 69.3008C187.566 69.6836 187.488 70.0469 187.332 70.3906C187.176 70.7344 186.945 71.0391 186.641 71.3047C186.336 71.5703 185.961 71.7891 185.516 71.9609C185.07 72.125 184.559 72.2305 183.98 72.2773L183.137 72.9219ZM183.137 78.5H178.191L179.27 76.7422H183.137C183.738 76.7422 184.238 76.668 184.637 76.5195C185.035 76.3633 185.332 76.1445 185.527 75.8633C185.73 75.5742 185.832 75.2305 185.832 74.832C185.832 74.4336 185.73 74.0938 185.527 73.8125C185.332 73.5234 185.035 73.3047 184.637 73.1562C184.238 73 183.738 72.9219 183.137 72.9219H179.844L179.867 71.1875H183.98L184.766 71.8438C185.461 71.8984 186.051 72.0703 186.535 72.3594C187.02 72.6484 187.387 73.0156 187.637 73.4609C187.887 73.8984 188.012 74.375 188.012 74.8906C188.012 75.4844 187.898 76.0078 187.672 76.4609C187.453 76.9141 187.133 77.293 186.711 77.5977C186.289 77.8945 185.777 78.1211 185.176 78.2773C184.574 78.4258 183.895 78.5 183.137 78.5ZM198.395 76.332V69.8047C198.395 69.3047 198.293 68.8711 198.09 68.5039C197.895 68.1289 197.598 67.8398 197.199 67.6367C196.801 67.4336 196.309 67.332 195.723 67.332C195.176 67.332 194.695 67.4258 194.281 67.6133C193.875 67.8008 193.555 68.0469 193.32 68.3516C193.094 68.6562 192.98 68.9844 192.98 69.3359H190.812C190.812 68.8828 190.93 68.4336 191.164 67.9883C191.398 67.543 191.734 67.1406 192.172 66.7812C192.617 66.4141 193.148 66.125 193.766 65.9141C194.391 65.6953 195.086 65.5859 195.852 65.5859C196.773 65.5859 197.586 65.7422 198.289 66.0547C199 66.3672 199.555 66.8398 199.953 67.4727C200.359 68.0977 200.562 68.8828 200.562 69.8281V75.7344C200.562 76.1562 200.598 76.6055 200.668 77.082C200.746 77.5586 200.859 77.9688 201.008 78.3125V78.5H198.746C198.637 78.25 198.551 77.918 198.488 77.5039C198.426 77.082 198.395 76.6914 198.395 76.332ZM198.77 70.8125L198.793 72.3359H196.602C195.984 72.3359 195.434 72.3867 194.949 72.4883C194.465 72.582 194.059 72.7266 193.73 72.9219C193.402 73.1172 193.152 73.3633 192.98 73.6602C192.809 73.9492 192.723 74.2891 192.723 74.6797C192.723 75.0781 192.812 75.4414 192.992 75.7695C193.172 76.0977 193.441 76.3594 193.801 76.5547C194.168 76.7422 194.617 76.8359 195.148 76.8359C195.812 76.8359 196.398 76.6953 196.906 76.4141C197.414 76.1328 197.816 75.7891 198.113 75.3828C198.418 74.9766 198.582 74.582 198.605 74.1992L199.531 75.2422C199.477 75.5703 199.328 75.9336 199.086 76.332C198.844 76.7305 198.52 77.1133 198.113 77.4805C197.715 77.8398 197.238 78.1406 196.684 78.3828C196.137 78.6172 195.52 78.7344 194.832 78.7344C193.973 78.7344 193.219 78.5664 192.57 78.2305C191.93 77.8945 191.43 77.4453 191.07 76.8828C190.719 76.3125 190.543 75.6758 190.543 74.9727C190.543 74.293 190.676 73.6953 190.941 73.1797C191.207 72.6562 191.59 72.2227 192.09 71.8789C192.59 71.5273 193.191 71.2617 193.895 71.082C194.598 70.9023 195.383 70.8125 196.25 70.8125H198.77ZM208.953 65.8203V78.5H206.773V65.8203H208.953ZM213.207 65.8203V67.5781H202.602V65.8203H213.207ZM217.121 70.1797H220.93C221.953 70.1797 222.816 70.3594 223.52 70.7188C224.223 71.0703 224.754 71.5586 225.113 72.1836C225.48 72.8008 225.664 73.5039 225.664 74.293C225.664 74.8789 225.562 75.4297 225.359 75.9453C225.156 76.4531 224.852 76.8984 224.445 77.2812C224.047 77.6641 223.551 77.9648 222.957 78.1836C222.371 78.3945 221.695 78.5 220.93 78.5H215.539V65.8203H217.707V76.7188H220.93C221.555 76.7188 222.055 76.6055 222.43 76.3789C222.805 76.1523 223.074 75.8594 223.238 75.5C223.402 75.1406 223.484 74.7656 223.484 74.375C223.484 73.9922 223.402 73.6172 223.238 73.25C223.074 72.8828 222.805 72.5781 222.43 72.3359C222.055 72.0859 221.555 71.9609 220.93 71.9609H217.121V70.1797ZM236.668 75.0664L242.516 65.8203H244.695V78.5H242.516V69.2539L236.668 78.5H234.512V65.8203H236.668V75.0664ZM241.332 61.2266H243.09C243.09 61.8359 242.949 62.3789 242.668 62.8555C242.387 63.3242 241.984 63.6914 241.461 63.957C240.938 64.2227 240.316 64.3555 239.598 64.3555C238.512 64.3555 237.652 64.0664 237.02 63.4883C236.395 62.9023 236.082 62.1484 236.082 61.2266H237.84C237.84 61.6875 237.973 62.0938 238.238 62.4453C238.504 62.7969 238.957 62.9727 239.598 62.9727C240.223 62.9727 240.668 62.7969 240.934 62.4453C241.199 62.0938 241.332 61.6875 241.332 61.2266ZM247.602 72.3008V72.0312C247.602 71.1172 247.734 70.2695 248 69.4883C248.266 68.6992 248.648 68.0156 249.148 67.4375C249.648 66.8516 250.254 66.3984 250.965 66.0781C251.676 65.75 252.473 65.5859 253.355 65.5859C254.246 65.5859 255.047 65.75 255.758 66.0781C256.477 66.3984 257.086 66.8516 257.586 67.4375C258.094 68.0156 258.48 68.6992 258.746 69.4883C259.012 70.2695 259.145 71.1172 259.145 72.0312V72.3008C259.145 73.2148 259.012 74.0625 258.746 74.8438C258.48 75.625 258.094 76.3086 257.586 76.8945C257.086 77.4727 256.48 77.9258 255.77 78.2539C255.066 78.5742 254.27 78.7344 253.379 78.7344C252.488 78.7344 251.688 78.5742 250.977 78.2539C250.266 77.9258 249.656 77.4727 249.148 76.8945C248.648 76.3086 248.266 75.625 248 74.8438C247.734 74.0625 247.602 73.2148 247.602 72.3008ZM249.77 72.0312V72.3008C249.77 72.9336 249.844 73.5312 249.992 74.0938C250.141 74.6484 250.363 75.1406 250.66 75.5703C250.965 76 251.344 76.3398 251.797 76.5898C252.25 76.832 252.777 76.9531 253.379 76.9531C253.973 76.9531 254.492 76.832 254.938 76.5898C255.391 76.3398 255.766 76 256.062 75.5703C256.359 75.1406 256.582 74.6484 256.73 74.0938C256.887 73.5312 256.965 72.9336 256.965 72.3008V72.0312C256.965 71.4062 256.887 70.8164 256.73 70.2617C256.582 69.6992 256.355 69.2031 256.051 68.7734C255.754 68.3359 255.379 67.9922 254.926 67.7422C254.48 67.4922 253.957 67.3672 253.355 67.3672C252.762 67.3672 252.238 67.4922 251.785 67.7422C251.34 67.9922 250.965 68.3359 250.66 68.7734C250.363 69.2031 250.141 69.6992 249.992 70.2617C249.844 70.8164 249.77 71.4062 249.77 72.0312ZM270.055 65.8203V67.6133H264.195V78.5H262.027V65.8203H270.055ZM275.504 77.1875L279.031 65.8203H281.352L276.266 80.457C276.148 80.7695 275.992 81.1055 275.797 81.4648C275.609 81.832 275.367 82.1797 275.07 82.5078C274.773 82.8359 274.414 83.1016 273.992 83.3047C273.578 83.5156 273.082 83.6211 272.504 83.6211C272.332 83.6211 272.113 83.5977 271.848 83.5508C271.582 83.5039 271.395 83.4648 271.285 83.4336L271.273 81.6758C271.336 81.6836 271.434 81.6914 271.566 81.6992C271.707 81.7148 271.805 81.7227 271.859 81.7227C272.352 81.7227 272.77 81.6562 273.113 81.5234C273.457 81.3984 273.746 81.1836 273.98 80.8789C274.223 80.582 274.43 80.1719 274.602 79.6484L275.504 77.1875ZM272.914 65.8203L276.207 75.6641L276.77 77.9492L275.211 78.7461L270.547 65.8203H272.914ZM284.012 75.9219V77.668C284.012 78.3789 283.832 79.1289 283.473 79.918C283.113 80.7148 282.609 81.3789 281.961 81.9102L280.73 81.0547C280.98 80.7109 281.191 80.3594 281.363 80C281.535 79.6484 281.664 79.2812 281.75 78.8984C281.844 78.5234 281.891 78.125 281.891 77.7031V75.9219H284.012ZM90.2539 97.3164V99.0742H83.5508V97.3164H90.2539ZM84.0078 91.8203V104.5H81.8398V91.8203H84.0078ZM92.0117 91.8203V104.5H89.832V91.8203H92.0117ZM94.9297 98.3008V98.0312C94.9297 97.1172 95.0625 96.2695 95.3281 95.4883C95.5938 94.6992 95.9766 94.0156 96.4766 93.4375C96.9766 92.8516 97.582 92.3984 98.293 92.0781C99.0039 91.75 99.8008 91.5859 100.684 91.5859C101.574 91.5859 102.375 91.75 103.086 92.0781C103.805 92.3984 104.414 92.8516 104.914 93.4375C105.422 94.0156 105.809 94.6992 106.074 95.4883C106.34 96.2695 106.473 97.1172 106.473 98.0312V98.3008C106.473 99.2148 106.34 100.062 106.074 100.844C105.809 101.625 105.422 102.309 104.914 102.895C104.414 103.473 103.809 103.926 103.098 104.254C102.395 104.574 101.598 104.734 100.707 104.734C99.8164 104.734 99.0156 104.574 98.3047 104.254C97.5938 103.926 96.9844 103.473 96.4766 102.895C95.9766 102.309 95.5938 101.625 95.3281 100.844C95.0625 100.062 94.9297 99.2148 94.9297 98.3008ZM97.0977 98.0312V98.3008C97.0977 98.9336 97.1719 99.5312 97.3203 100.094C97.4688 100.648 97.6914 101.141 97.9883 101.57C98.293 102 98.6719 102.34 99.125 102.59C99.5781 102.832 100.105 102.953 100.707 102.953C101.301 102.953 101.82 102.832 102.266 102.59C102.719 102.34 103.094 102 103.391 101.57C103.688 101.141 103.91 100.648 104.059 100.094C104.215 99.5312 104.293 98.9336 104.293 98.3008V98.0312C104.293 97.4062 104.215 96.8164 104.059 96.2617C103.91 95.6992 103.684 95.2031 103.379 94.7734C103.082 94.3359 102.707 93.9922 102.254 93.7422C101.809 93.4922 101.285 93.3672 100.684 93.3672C100.09 93.3672 99.5664 93.4922 99.1133 93.7422C98.668 93.9922 98.293 94.3359 97.9883 94.7734C97.6914 95.2031 97.4688 95.6992 97.3203 96.2617C97.1719 96.8164 97.0977 97.4062 97.0977 98.0312ZM123.746 97.3164V99.0742H117.043V97.3164H123.746ZM117.5 91.8203V104.5H115.332V91.8203H117.5ZM125.504 91.8203V104.5H123.324V91.8203H125.504ZM134.258 104.734C133.375 104.734 132.574 104.586 131.855 104.289C131.145 103.984 130.531 103.559 130.016 103.012C129.508 102.465 129.117 101.816 128.844 101.066C128.57 100.316 128.434 99.4961 128.434 98.6055V98.1133C128.434 97.082 128.586 96.1641 128.891 95.3594C129.195 94.5469 129.609 93.8594 130.133 93.2969C130.656 92.7344 131.25 92.3086 131.914 92.0195C132.578 91.7305 133.266 91.5859 133.977 91.5859C134.883 91.5859 135.664 91.7422 136.32 92.0547C136.984 92.3672 137.527 92.8047 137.949 93.3672C138.371 93.9219 138.684 94.5781 138.887 95.3359C139.09 96.0859 139.191 96.9062 139.191 97.7969V98.7695H129.723V97H137.023V96.8359C136.992 96.2734 136.875 95.7266 136.672 95.1953C136.477 94.6641 136.164 94.2266 135.734 93.8828C135.305 93.5391 134.719 93.3672 133.977 93.3672C133.484 93.3672 133.031 93.4727 132.617 93.6836C132.203 93.8867 131.848 94.1914 131.551 94.5977C131.254 95.0039 131.023 95.5 130.859 96.0859C130.695 96.6719 130.613 97.3477 130.613 98.1133V98.6055C130.613 99.207 130.695 99.7734 130.859 100.305C131.031 100.828 131.277 101.289 131.598 101.688C131.926 102.086 132.32 102.398 132.781 102.625C133.25 102.852 133.781 102.965 134.375 102.965C135.141 102.965 135.789 102.809 136.32 102.496C136.852 102.184 137.316 101.766 137.715 101.242L139.027 102.285C138.754 102.699 138.406 103.094 137.984 103.469C137.562 103.844 137.043 104.148 136.426 104.383C135.816 104.617 135.094 104.734 134.258 104.734ZM149.844 94.2578V109.375H147.664V91.8203H149.656L149.844 94.2578ZM158.387 98.0547V98.3008C158.387 99.2227 158.277 100.078 158.059 100.867C157.84 101.648 157.52 102.328 157.098 102.906C156.684 103.484 156.172 103.934 155.562 104.254C154.953 104.574 154.254 104.734 153.465 104.734C152.66 104.734 151.949 104.602 151.332 104.336C150.715 104.07 150.191 103.684 149.762 103.176C149.332 102.668 148.988 102.059 148.73 101.348C148.48 100.637 148.309 99.8359 148.215 98.9453V97.6328C148.309 96.6953 148.484 95.8555 148.742 95.1133C149 94.3711 149.34 93.7383 149.762 93.2148C150.191 92.6836 150.711 92.2812 151.32 92.0078C151.93 91.7266 152.633 91.5859 153.43 91.5859C154.227 91.5859 154.934 91.7422 155.551 92.0547C156.168 92.3594 156.688 92.7969 157.109 93.3672C157.531 93.9375 157.848 94.6211 158.059 95.418C158.277 96.207 158.387 97.0859 158.387 98.0547ZM156.207 98.3008V98.0547C156.207 97.4219 156.141 96.8281 156.008 96.2734C155.875 95.7109 155.668 95.2188 155.387 94.7969C155.113 94.3672 154.762 94.0312 154.332 93.7891C153.902 93.5391 153.391 93.4141 152.797 93.4141C152.25 93.4141 151.773 93.5078 151.367 93.6953C150.969 93.8828 150.629 94.1367 150.348 94.457C150.066 94.7695 149.836 95.1289 149.656 95.5352C149.484 95.9336 149.355 96.3477 149.27 96.7773V99.8125C149.426 100.359 149.645 100.875 149.926 101.359C150.207 101.836 150.582 102.223 151.051 102.52C151.52 102.809 152.109 102.953 152.82 102.953C153.406 102.953 153.91 102.832 154.332 102.59C154.762 102.34 155.113 102 155.387 101.57C155.668 101.141 155.875 100.648 156.008 100.094C156.141 99.5312 156.207 98.9336 156.207 98.3008ZM166.414 104.734C165.531 104.734 164.73 104.586 164.012 104.289C163.301 103.984 162.688 103.559 162.172 103.012C161.664 102.465 161.273 101.816 161 101.066C160.727 100.316 160.59 99.4961 160.59 98.6055V98.1133C160.59 97.082 160.742 96.1641 161.047 95.3594C161.352 94.5469 161.766 93.8594 162.289 93.2969C162.812 92.7344 163.406 92.3086 164.07 92.0195C164.734 91.7305 165.422 91.5859 166.133 91.5859C167.039 91.5859 167.82 91.7422 168.477 92.0547C169.141 92.3672 169.684 92.8047 170.105 93.3672C170.527 93.9219 170.84 94.5781 171.043 95.3359C171.246 96.0859 171.348 96.9062 171.348 97.7969V98.7695H161.879V97H169.18V96.8359C169.148 96.2734 169.031 95.7266 168.828 95.1953C168.633 94.6641 168.32 94.2266 167.891 93.8828C167.461 93.5391 166.875 93.3672 166.133 93.3672C165.641 93.3672 165.188 93.4727 164.773 93.6836C164.359 93.8867 164.004 94.1914 163.707 94.5977C163.41 95.0039 163.18 95.5 163.016 96.0859C162.852 96.6719 162.77 97.3477 162.77 98.1133V98.6055C162.77 99.207 162.852 99.7734 163.016 100.305C163.188 100.828 163.434 101.289 163.754 101.688C164.082 102.086 164.477 102.398 164.938 102.625C165.406 102.852 165.938 102.965 166.531 102.965C167.297 102.965 167.945 102.809 168.477 102.496C169.008 102.184 169.473 101.766 169.871 101.242L171.184 102.285C170.91 102.699 170.562 103.094 170.141 103.469C169.719 103.844 169.199 104.148 168.582 104.383C167.973 104.617 167.25 104.734 166.414 104.734ZM174.066 91.8203H176.234V102.719H180.875V91.8203H183.055V102.719H187.684V91.8203H189.852V104.5H174.066V91.8203ZM200.785 102.332V95.8047C200.785 95.3047 200.684 94.8711 200.48 94.5039C200.285 94.1289 199.988 93.8398 199.59 93.6367C199.191 93.4336 198.699 93.332 198.113 93.332C197.566 93.332 197.086 93.4258 196.672 93.6133C196.266 93.8008 195.945 94.0469 195.711 94.3516C195.484 94.6562 195.371 94.9844 195.371 95.3359H193.203C193.203 94.8828 193.32 94.4336 193.555 93.9883C193.789 93.543 194.125 93.1406 194.562 92.7812C195.008 92.4141 195.539 92.125 196.156 91.9141C196.781 91.6953 197.477 91.5859 198.242 91.5859C199.164 91.5859 199.977 91.7422 200.68 92.0547C201.391 92.3672 201.945 92.8398 202.344 93.4727C202.75 94.0977 202.953 94.8828 202.953 95.8281V101.734C202.953 102.156 202.988 102.605 203.059 103.082C203.137 103.559 203.25 103.969 203.398 104.312V104.5H201.137C201.027 104.25 200.941 103.918 200.879 103.504C200.816 103.082 200.785 102.691 200.785 102.332ZM201.16 96.8125L201.184 98.3359H198.992C198.375 98.3359 197.824 98.3867 197.34 98.4883C196.855 98.582 196.449 98.7266 196.121 98.9219C195.793 99.1172 195.543 99.3633 195.371 99.6602C195.199 99.9492 195.113 100.289 195.113 100.68C195.113 101.078 195.203 101.441 195.383 101.77C195.562 102.098 195.832 102.359 196.191 102.555C196.559 102.742 197.008 102.836 197.539 102.836C198.203 102.836 198.789 102.695 199.297 102.414C199.805 102.133 200.207 101.789 200.504 101.383C200.809 100.977 200.973 100.582 200.996 100.199L201.922 101.242C201.867 101.57 201.719 101.934 201.477 102.332C201.234 102.73 200.91 103.113 200.504 103.48C200.105 103.84 199.629 104.141 199.074 104.383C198.527 104.617 197.91 104.734 197.223 104.734C196.363 104.734 195.609 104.566 194.961 104.23C194.32 103.895 193.82 103.445 193.461 102.883C193.109 102.312 192.934 101.676 192.934 100.973C192.934 100.293 193.066 99.6953 193.332 99.1797C193.598 98.6562 193.98 98.2227 194.48 97.8789C194.98 97.5273 195.582 97.2617 196.285 97.082C196.988 96.9023 197.773 96.8125 198.641 96.8125H201.16ZM214.836 91.8203V93.6133H208.707V91.8203H214.836ZM216.746 91.8203V104.5H214.578V91.8203H216.746ZM208.18 91.8203H210.359L210.031 97.9375C209.977 98.8828 209.887 99.7188 209.762 100.445C209.645 101.164 209.48 101.781 209.27 102.297C209.066 102.812 208.809 103.234 208.496 103.562C208.191 103.883 207.824 104.121 207.395 104.277C206.965 104.426 206.469 104.5 205.906 104.5H205.227V102.59L205.695 102.555C206.031 102.531 206.316 102.453 206.551 102.32C206.793 102.188 206.996 101.992 207.16 101.734C207.324 101.469 207.457 101.129 207.559 100.715C207.668 100.301 207.75 99.8086 207.805 99.2383C207.867 98.668 207.914 98.0039 207.945 97.2461L208.18 91.8203ZM222.582 101.066L228.43 91.8203H230.609V104.5H228.43V95.2539L222.582 104.5H220.426V91.8203H222.582V101.066ZM239.164 102.953C239.68 102.953 240.156 102.848 240.594 102.637C241.031 102.426 241.391 102.137 241.672 101.77C241.953 101.395 242.113 100.969 242.152 100.492H244.215C244.176 101.242 243.922 101.941 243.453 102.59C242.992 103.23 242.387 103.75 241.637 104.148C240.887 104.539 240.062 104.734 239.164 104.734C238.211 104.734 237.379 104.566 236.668 104.23C235.965 103.895 235.379 103.434 234.91 102.848C234.449 102.262 234.102 101.59 233.867 100.832C233.641 100.066 233.527 99.2578 233.527 98.4062V97.9141C233.527 97.0625 233.641 96.2578 233.867 95.5C234.102 94.7344 234.449 94.0586 234.91 93.4727C235.379 92.8867 235.965 92.4258 236.668 92.0898C237.379 91.7539 238.211 91.5859 239.164 91.5859C240.156 91.5859 241.023 91.7891 241.766 92.1953C242.508 92.5938 243.09 93.1406 243.512 93.8359C243.941 94.5234 244.176 95.3047 244.215 96.1797H242.152C242.113 95.6562 241.965 95.1836 241.707 94.7617C241.457 94.3398 241.113 94.0039 240.676 93.7539C240.246 93.4961 239.742 93.3672 239.164 93.3672C238.5 93.3672 237.941 93.5 237.488 93.7656C237.043 94.0234 236.688 94.375 236.422 94.8203C236.164 95.2578 235.977 95.7461 235.859 96.2852C235.75 96.8164 235.695 97.3594 235.695 97.9141V98.4062C235.695 98.9609 235.75 99.5078 235.859 100.047C235.969 100.586 236.152 101.074 236.41 101.512C236.676 101.949 237.031 102.301 237.477 102.566C237.93 102.824 238.492 102.953 239.164 102.953ZM248.434 96.1797H252.242C253.266 96.1797 254.129 96.3594 254.832 96.7188C255.535 97.0703 256.066 97.5586 256.426 98.1836C256.793 98.8008 256.977 99.5039 256.977 100.293C256.977 100.879 256.875 101.43 256.672 101.945C256.469 102.453 256.164 102.898 255.758 103.281C255.359 103.664 254.863 103.965 254.27 104.184C253.684 104.395 253.008 104.5 252.242 104.5H246.852V91.8203H249.02V102.719H252.242C252.867 102.719 253.367 102.605 253.742 102.379C254.117 102.152 254.387 101.859 254.551 101.5C254.715 101.141 254.797 100.766 254.797 100.375C254.797 99.9922 254.715 99.6172 254.551 99.25C254.387 98.8828 254.117 98.5781 253.742 98.3359C253.367 98.0859 252.867 97.9609 252.242 97.9609H248.434V96.1797ZM274.238 97.3164V99.0742H267.535V97.3164H274.238ZM267.992 91.8203V104.5H265.824V91.8203H267.992ZM275.996 91.8203V104.5H273.816V91.8203H275.996ZM286.965 102.332V95.8047C286.965 95.3047 286.863 94.8711 286.66 94.5039C286.465 94.1289 286.168 93.8398 285.77 93.6367C285.371 93.4336 284.879 93.332 284.293 93.332C283.746 93.332 283.266 93.4258 282.852 93.6133C282.445 93.8008 282.125 94.0469 281.891 94.3516C281.664 94.6562 281.551 94.9844 281.551 95.3359H279.383C279.383 94.8828 279.5 94.4336 279.734 93.9883C279.969 93.543 280.305 93.1406 280.742 92.7812C281.188 92.4141 281.719 92.125 282.336 91.9141C282.961 91.6953 283.656 91.5859 284.422 91.5859C285.344 91.5859 286.156 91.7422 286.859 92.0547C287.57 92.3672 288.125 92.8398 288.523 93.4727C288.93 94.0977 289.133 94.8828 289.133 95.8281V101.734C289.133 102.156 289.168 102.605 289.238 103.082C289.316 103.559 289.43 103.969 289.578 104.312V104.5H287.316C287.207 104.25 287.121 103.918 287.059 103.504C286.996 103.082 286.965 102.691 286.965 102.332ZM287.34 96.8125L287.363 98.3359H285.172C284.555 98.3359 284.004 98.3867 283.52 98.4883C283.035 98.582 282.629 98.7266 282.301 98.9219C281.973 99.1172 281.723 99.3633 281.551 99.6602C281.379 99.9492 281.293 100.289 281.293 100.68C281.293 101.078 281.383 101.441 281.562 101.77C281.742 102.098 282.012 102.359 282.371 102.555C282.738 102.742 283.188 102.836 283.719 102.836C284.383 102.836 284.969 102.695 285.477 102.414C285.984 102.133 286.387 101.789 286.684 101.383C286.988 100.977 287.152 100.582 287.176 100.199L288.102 101.242C288.047 101.57 287.898 101.934 287.656 102.332C287.414 102.73 287.09 103.113 286.684 103.48C286.285 103.84 285.809 104.141 285.254 104.383C284.707 104.617 284.09 104.734 283.402 104.734C282.543 104.734 281.789 104.566 281.141 104.23C280.5 103.895 280 103.445 279.641 102.883C279.289 102.312 279.113 101.676 279.113 100.973C279.113 100.293 279.246 99.6953 279.512 99.1797C279.777 98.6562 280.16 98.2227 280.66 97.8789C281.16 97.5273 281.762 97.2617 282.465 97.082C283.168 96.9023 283.953 96.8125 284.82 96.8125H287.34ZM302.105 91.8203V104.5H299.938V91.8203H302.105ZM301.367 97.6445V99.4258C300.93 99.5898 300.484 99.7383 300.031 99.8711C299.586 99.9961 299.113 100.098 298.613 100.176C298.121 100.246 297.586 100.281 297.008 100.281C296.008 100.281 295.141 100.109 294.406 99.7656C293.672 99.4141 293.105 98.8867 292.707 98.1836C292.309 97.4727 292.109 96.5781 292.109 95.5V91.7969H294.277V95.5C294.277 96.2031 294.383 96.7734 294.594 97.2109C294.805 97.6484 295.113 97.9727 295.52 98.1836C295.926 98.3867 296.422 98.4883 297.008 98.4883C297.57 98.4883 298.098 98.4531 298.59 98.3828C299.09 98.3047 299.566 98.2031 300.02 98.0781C300.48 97.9531 300.93 97.8086 301.367 97.6445ZM313.074 102.332V95.8047C313.074 95.3047 312.973 94.8711 312.77 94.5039C312.574 94.1289 312.277 93.8398 311.879 93.6367C311.48 93.4336 310.988 93.332 310.402 93.332C309.855 93.332 309.375 93.4258 308.961 93.6133C308.555 93.8008 308.234 94.0469 308 94.3516C307.773 94.6562 307.66 94.9844 307.66 95.3359H305.492C305.492 94.8828 305.609 94.4336 305.844 93.9883C306.078 93.543 306.414 93.1406 306.852 92.7812C307.297 92.4141 307.828 92.125 308.445 91.9141C309.07 91.6953 309.766 91.5859 310.531 91.5859C311.453 91.5859 312.266 91.7422 312.969 92.0547C313.68 92.3672 314.234 92.8398 314.633 93.4727C315.039 94.0977 315.242 94.8828 315.242 95.8281V101.734C315.242 102.156 315.277 102.605 315.348 103.082C315.426 103.559 315.539 103.969 315.688 104.312V104.5H313.426C313.316 104.25 313.23 103.918 313.168 103.504C313.105 103.082 313.074 102.691 313.074 102.332ZM313.449 96.8125L313.473 98.3359H311.281C310.664 98.3359 310.113 98.3867 309.629 98.4883C309.145 98.582 308.738 98.7266 308.41 98.9219C308.082 99.1172 307.832 99.3633 307.66 99.6602C307.488 99.9492 307.402 100.289 307.402 100.68C307.402 101.078 307.492 101.441 307.672 101.77C307.852 102.098 308.121 102.359 308.48 102.555C308.848 102.742 309.297 102.836 309.828 102.836C310.492 102.836 311.078 102.695 311.586 102.414C312.094 102.133 312.496 101.789 312.793 101.383C313.098 100.977 313.262 100.582 313.285 100.199L314.211 101.242C314.156 101.57 314.008 101.934 313.766 102.332C313.523 102.73 313.199 103.113 312.793 103.48C312.395 103.84 311.918 104.141 311.363 104.383C310.816 104.617 310.199 104.734 309.512 104.734C308.652 104.734 307.898 104.566 307.25 104.23C306.609 103.895 306.109 103.445 305.75 102.883C305.398 102.312 305.223 101.676 305.223 100.973C305.223 100.293 305.355 99.6953 305.621 99.1797C305.887 98.6562 306.27 98.2227 306.77 97.8789C307.27 97.5273 307.871 97.2617 308.574 97.082C309.277 96.9023 310.062 96.8125 310.93 96.8125H313.449ZM323.633 91.8203V104.5H321.453V91.8203H323.633ZM327.887 91.8203V93.5781H317.281V91.8203H327.887ZM331.801 96.1797H335.609C336.633 96.1797 337.496 96.3594 338.199 96.7188C338.902 97.0703 339.434 97.5586 339.793 98.1836C340.16 98.8008 340.344 99.5039 340.344 100.293C340.344 100.879 340.242 101.43 340.039 101.945C339.836 102.453 339.531 102.898 339.125 103.281C338.727 103.664 338.23 103.965 337.637 104.184C337.051 104.395 336.375 104.5 335.609 104.5H330.219V91.8203H332.387V102.719H335.609C336.234 102.719 336.734 102.605 337.109 102.379C337.484 102.152 337.754 101.859 337.918 101.5C338.082 101.141 338.164 100.766 338.164 100.375C338.164 99.9922 338.082 99.6172 337.918 99.25C337.754 98.8828 337.484 98.5781 337.109 98.3359C336.734 98.0859 336.234 97.9609 335.609 97.9609H331.801V96.1797Z" fill="white"/>
<defs>
<linearGradient id="paint0_linear_29_1244" x1="160.771" y1="23.9392" x2="279.749" y2="174.149" gradientUnits="userSpaceOnUse">
<stop stop-color="#151720"/>
<stop offset="1" stop-color="#1E212E"/>
</linearGradient>
</defs>
</svg>
