<svg width="343" height="336" viewBox="0 0 343 336" fill="none" xmlns="http://www.w3.org/2000/svg">
<rect width="343" height="336" rx="28" fill="#BCEC30"/>
<path d="M42.4637 34.3675C42.6202 33.7044 42.6984 33.3729 42.8242 33.2982C42.9326 33.2339 43.0674 33.2339 43.1758 33.2982C43.3016 33.3729 43.3798 33.7044 43.5363 34.3675L44.2997 37.603C44.5837 38.8064 44.7257 39.408 45.0343 39.896C45.3071 40.3274 45.6726 40.6929 46.104 40.9657C46.592 41.2743 47.1936 41.4163 48.397 41.7003L51.6325 42.4637C52.2956 42.6202 52.6271 42.6984 52.7018 42.8242C52.7661 42.9326 52.7661 43.0674 52.7018 43.1758C52.6271 43.3016 52.2956 43.3798 51.6325 43.5363L48.397 44.2997C47.1936 44.5837 46.592 44.7257 46.104 45.0343C45.6726 45.3071 45.3071 45.6726 45.0343 46.104C44.7257 46.592 44.5837 47.1936 44.2997 48.397L43.5363 51.6325C43.3798 52.2956 43.3016 52.6271 43.1758 52.7018C43.0674 52.7661 42.9326 52.7661 42.8242 52.7018C42.6984 52.6271 42.6202 52.2956 42.4637 51.6325L41.7003 48.397C41.4163 47.1936 41.2743 46.592 40.9657 46.104C40.6929 45.6726 40.3274 45.3071 39.896 45.0343C39.408 44.7257 38.8064 44.5837 37.603 44.2997L34.3675 43.5363C33.7044 43.3798 33.3729 43.3016 33.2982 43.1758C33.2339 43.0674 33.2339 42.9326 33.2982 42.8242C33.3729 42.6984 33.7044 42.6202 34.3675 42.4637L37.603 41.7003C38.8064 41.4163 39.408 41.2743 39.896 40.9657C40.3274 40.6929 40.6929 40.3274 40.9657 39.896C41.2743 39.408 41.4163 38.8064 41.7003 37.603L42.4637 34.3675Z" fill="black"/>
<path d="M67.252 43.0645L73.5537 33.2031H75.25V46H73.5537V36.1299L67.252 46H65.5645V33.2031H67.252V43.0645ZM71.752 30.0303H73.0703C73.0703 30.4873 72.9648 30.8945 72.7539 31.252C72.543 31.6035 72.2412 31.8789 71.8486 32.0781C71.4561 32.2773 70.9902 32.377 70.4512 32.377C69.6367 32.377 68.9922 32.1602 68.5176 31.7266C68.0488 31.2871 67.8145 30.7217 67.8145 30.0303H69.1328C69.1328 30.376 69.2324 30.6807 69.4316 30.9443C69.6309 31.208 69.9707 31.3398 70.4512 31.3398C70.9199 31.3398 71.2539 31.208 71.4531 30.9443C71.6523 30.6807 71.752 30.376 71.752 30.0303ZM77.6582 41.3506V41.1484C77.6582 40.4629 77.7578 39.8271 77.957 39.2412C78.1562 38.6494 78.4434 38.1367 78.8184 37.7031C79.1934 37.2637 79.6475 36.9238 80.1807 36.6836C80.7139 36.4375 81.3115 36.3145 81.9736 36.3145C82.6416 36.3145 83.2422 36.4375 83.7754 36.6836C84.3145 36.9238 84.7715 37.2637 85.1465 37.7031C85.5273 38.1367 85.8174 38.6494 86.0166 39.2412C86.2158 39.8271 86.3154 40.4629 86.3154 41.1484V41.3506C86.3154 42.0361 86.2158 42.6719 86.0166 43.2578C85.8174 43.8438 85.5273 44.3564 85.1465 44.7959C84.7715 45.2295 84.3174 45.5693 83.7842 45.8154C83.2568 46.0557 82.6592 46.1758 81.9912 46.1758C81.3232 46.1758 80.7227 46.0557 80.1895 45.8154C79.6562 45.5693 79.1992 45.2295 78.8184 44.7959C78.4434 44.3564 78.1562 43.8438 77.957 43.2578C77.7578 42.6719 77.6582 42.0361 77.6582 41.3506ZM79.2842 41.1484V41.3506C79.2842 41.8252 79.3398 42.2734 79.4512 42.6953C79.5625 43.1113 79.7295 43.4805 79.9521 43.8027C80.1807 44.125 80.4648 44.3799 80.8047 44.5674C81.1445 44.749 81.54 44.8398 81.9912 44.8398C82.4365 44.8398 82.8262 44.749 83.1602 44.5674C83.5 44.3799 83.7812 44.125 84.0039 43.8027C84.2266 43.4805 84.3936 43.1113 84.5049 42.6953C84.6221 42.2734 84.6807 41.8252 84.6807 41.3506V41.1484C84.6807 40.6797 84.6221 40.2373 84.5049 39.8213C84.3936 39.3994 84.2236 39.0273 83.9951 38.7051C83.7725 38.377 83.4912 38.1191 83.1514 37.9316C82.8174 37.7441 82.4248 37.6504 81.9736 37.6504C81.5283 37.6504 81.1357 37.7441 80.7959 37.9316C80.4619 38.1191 80.1807 38.377 79.9521 38.7051C79.7295 39.0273 79.5625 39.3994 79.4512 39.8213C79.3398 40.2373 79.2842 40.6797 79.2842 41.1484ZM94.498 36.4902V37.835H90.1035V46H88.4775V36.4902H94.498ZM101.521 44.374V39.4785C101.521 39.1035 101.444 38.7783 101.292 38.5029C101.146 38.2217 100.923 38.0049 100.624 37.8525C100.325 37.7002 99.9561 37.624 99.5166 37.624C99.1064 37.624 98.7461 37.6943 98.4355 37.835C98.1309 37.9756 97.8906 38.1602 97.7148 38.3887C97.5449 38.6172 97.46 38.8633 97.46 39.127H95.834C95.834 38.7871 95.9219 38.4502 96.0977 38.1162C96.2734 37.7822 96.5254 37.4805 96.8535 37.2109C97.1875 36.9355 97.5859 36.7188 98.0488 36.5605C98.5176 36.3965 99.0391 36.3145 99.6133 36.3145C100.305 36.3145 100.914 36.4316 101.441 36.666C101.975 36.9004 102.391 37.2549 102.689 37.7295C102.994 38.1982 103.146 38.7871 103.146 39.4961V43.9258C103.146 44.2422 103.173 44.5791 103.226 44.9365C103.284 45.2939 103.369 45.6016 103.48 45.8594V46H101.784C101.702 45.8125 101.638 45.5635 101.591 45.2529C101.544 44.9365 101.521 44.6436 101.521 44.374ZM101.802 40.2344L101.819 41.377H100.176C99.7129 41.377 99.2998 41.415 98.9365 41.4912C98.5732 41.5615 98.2686 41.6699 98.0225 41.8164C97.7764 41.9629 97.5889 42.1475 97.46 42.3701C97.3311 42.5869 97.2666 42.8418 97.2666 43.1348C97.2666 43.4336 97.334 43.7061 97.4688 43.9521C97.6035 44.1982 97.8057 44.3945 98.0752 44.541C98.3506 44.6816 98.6875 44.752 99.0859 44.752C99.584 44.752 100.023 44.6465 100.404 44.4355C100.785 44.2246 101.087 43.9668 101.31 43.6621C101.538 43.3574 101.661 43.0615 101.679 42.7744L102.373 43.5566C102.332 43.8027 102.221 44.0752 102.039 44.374C101.857 44.6729 101.614 44.96 101.31 45.2354C101.011 45.5049 100.653 45.7305 100.237 45.9121C99.8271 46.0879 99.3643 46.1758 98.8486 46.1758C98.2041 46.1758 97.6387 46.0498 97.1523 45.7979C96.6719 45.5459 96.2969 45.209 96.0273 44.7871C95.7637 44.3594 95.6318 43.8818 95.6318 43.3545C95.6318 42.8447 95.7314 42.3965 95.9307 42.0098C96.1299 41.6172 96.417 41.292 96.792 41.0342C97.167 40.7705 97.6182 40.5713 98.1455 40.4365C98.6729 40.3018 99.2617 40.2344 99.9121 40.2344H101.802ZM111.883 36.4902H113.509L113.368 40.0498C113.333 40.9521 113.23 41.7314 113.061 42.3877C112.891 43.0439 112.674 43.6035 112.41 44.0664C112.146 44.5234 111.851 44.9072 111.522 45.2178C111.2 45.5283 110.866 45.7891 110.521 46H109.712L109.756 44.6729L110.09 44.6641C110.283 44.4355 110.471 44.2012 110.652 43.9609C110.834 43.7148 111.001 43.4248 111.153 43.0908C111.306 42.751 111.432 42.3379 111.531 41.8516C111.637 41.3594 111.704 40.7588 111.733 40.0498L111.883 36.4902ZM112.287 36.4902H118.009V46H116.383V37.9932H112.287V36.4902ZM109.343 44.6641H119.23V48.8037H117.604V46H110.969V48.8037H109.334L109.343 44.6641ZM127.387 36.4902V37.835H122.79V36.4902H127.387ZM128.819 36.4902V46H127.193V36.4902H128.819ZM122.395 36.4902H124.029L123.783 41.0781C123.742 41.7871 123.675 42.4141 123.581 42.959C123.493 43.498 123.37 43.9609 123.212 44.3477C123.06 44.7344 122.866 45.0508 122.632 45.2969C122.403 45.5371 122.128 45.7158 121.806 45.833C121.483 45.9443 121.111 46 120.689 46H120.18V44.5674L120.531 44.541C120.783 44.5234 120.997 44.4648 121.173 44.3652C121.354 44.2656 121.507 44.1191 121.63 43.9258C121.753 43.7266 121.853 43.4717 121.929 43.1611C122.011 42.8506 122.072 42.4814 122.113 42.0537C122.16 41.626 122.195 41.1279 122.219 40.5596L122.395 36.4902ZM133.363 41.4648H135.121L132.37 46H130.612L133.363 41.4648ZM134.726 36.4902H138.698V46H137.072V37.8086H134.726C134.263 37.8086 133.885 37.8877 133.592 38.0459C133.299 38.1982 133.085 38.3975 132.95 38.6436C132.815 38.8896 132.748 39.1445 132.748 39.4082C132.748 39.666 132.81 39.915 132.933 40.1553C133.056 40.3896 133.249 40.583 133.513 40.7354C133.776 40.8877 134.116 40.9639 134.532 40.9639H137.512V42.2998H134.532C133.987 42.2998 133.504 42.2266 133.082 42.0801C132.66 41.9336 132.303 41.7314 132.01 41.4736C131.717 41.21 131.494 40.9023 131.342 40.5508C131.189 40.1934 131.113 39.8066 131.113 39.3906C131.113 38.9746 131.192 38.5908 131.351 38.2393C131.515 37.8877 131.749 37.5801 132.054 37.3164C132.364 37.0527 132.742 36.8506 133.188 36.71C133.639 36.5635 134.151 36.4902 134.726 36.4902ZM152.233 40.6123V41.9307H147.206V40.6123H152.233ZM147.549 36.4902V46H145.923V36.4902H147.549ZM153.552 36.4902V46H151.917V36.4902H153.552ZM155.74 41.3506V41.1484C155.74 40.4629 155.84 39.8271 156.039 39.2412C156.238 38.6494 156.525 38.1367 156.9 37.7031C157.275 37.2637 157.729 36.9238 158.263 36.6836C158.796 36.4375 159.394 36.3145 160.056 36.3145C160.724 36.3145 161.324 36.4375 161.857 36.6836C162.396 36.9238 162.854 37.2637 163.229 37.7031C163.609 38.1367 163.899 38.6494 164.099 39.2412C164.298 39.8271 164.397 40.4629 164.397 41.1484V41.3506C164.397 42.0361 164.298 42.6719 164.099 43.2578C163.899 43.8438 163.609 44.3564 163.229 44.7959C162.854 45.2295 162.399 45.5693 161.866 45.8154C161.339 46.0557 160.741 46.1758 160.073 46.1758C159.405 46.1758 158.805 46.0557 158.271 45.8154C157.738 45.5693 157.281 45.2295 156.9 44.7959C156.525 44.3564 156.238 43.8438 156.039 43.2578C155.84 42.6719 155.74 42.0361 155.74 41.3506ZM157.366 41.1484V41.3506C157.366 41.8252 157.422 42.2734 157.533 42.6953C157.645 43.1113 157.812 43.4805 158.034 43.8027C158.263 44.125 158.547 44.3799 158.887 44.5674C159.227 44.749 159.622 44.8398 160.073 44.8398C160.519 44.8398 160.908 44.749 161.242 44.5674C161.582 44.3799 161.863 44.125 162.086 43.8027C162.309 43.4805 162.476 43.1113 162.587 42.6953C162.704 42.2734 162.763 41.8252 162.763 41.3506V41.1484C162.763 40.6797 162.704 40.2373 162.587 39.8213C162.476 39.3994 162.306 39.0273 162.077 38.7051C161.854 38.377 161.573 38.1191 161.233 37.9316C160.899 37.7441 160.507 37.6504 160.056 37.6504C159.61 37.6504 159.218 37.7441 158.878 37.9316C158.544 38.1191 158.263 38.377 158.034 38.7051C157.812 39.0273 157.645 39.3994 157.533 39.8213C157.422 40.2373 157.366 40.6797 157.366 41.1484ZM170.901 41.8164H167.781L167.764 40.5156H170.312C170.816 40.5156 171.235 40.4658 171.569 40.3662C171.909 40.2666 172.164 40.1172 172.334 39.918C172.504 39.7188 172.589 39.4727 172.589 39.1797C172.589 38.9512 172.539 38.752 172.439 38.582C172.346 38.4062 172.202 38.2627 172.009 38.1514C171.815 38.0342 171.575 37.9492 171.288 37.8965C171.007 37.8379 170.676 37.8086 170.295 37.8086H168.212V46H166.586V36.4902H170.295C170.898 36.4902 171.44 36.543 171.921 36.6484C172.407 36.7539 172.82 36.915 173.16 37.1318C173.506 37.3428 173.77 37.6123 173.951 37.9404C174.133 38.2686 174.224 38.6553 174.224 39.1006C174.224 39.3877 174.165 39.6602 174.048 39.918C173.931 40.1758 173.758 40.4043 173.529 40.6035C173.301 40.8027 173.02 40.9668 172.686 41.0957C172.352 41.2188 171.968 41.2979 171.534 41.333L170.901 41.8164ZM170.901 46H167.192L168.001 44.6816H170.901C171.353 44.6816 171.728 44.626 172.026 44.5146C172.325 44.3975 172.548 44.2334 172.694 44.0225C172.847 43.8057 172.923 43.5479 172.923 43.249C172.923 42.9502 172.847 42.6953 172.694 42.4844C172.548 42.2676 172.325 42.1035 172.026 41.9922C171.728 41.875 171.353 41.8164 170.901 41.8164H168.432L168.449 40.5156H171.534L172.123 41.0078C172.645 41.0488 173.087 41.1777 173.45 41.3945C173.813 41.6113 174.089 41.8867 174.276 42.2207C174.464 42.5488 174.558 42.9062 174.558 43.293C174.558 43.7383 174.473 44.1309 174.303 44.4707C174.139 44.8105 173.898 45.0947 173.582 45.3232C173.266 45.5459 172.882 45.7158 172.431 45.833C171.979 45.9443 171.47 46 170.901 46ZM178.495 43.4248L182.881 36.4902H184.516V46H182.881V39.0654L178.495 46H176.878V36.4902H178.495V43.4248ZM194.298 36.4902V46H192.672V36.4902H194.298ZM193.744 40.8584V42.1943C193.416 42.3174 193.082 42.4287 192.742 42.5283C192.408 42.6221 192.054 42.6982 191.679 42.7568C191.31 42.8096 190.908 42.8359 190.475 42.8359C189.725 42.8359 189.074 42.707 188.523 42.4492C187.973 42.1855 187.548 41.79 187.249 41.2627C186.95 40.7295 186.801 40.0586 186.801 39.25V36.4727H188.427V39.25C188.427 39.7773 188.506 40.2051 188.664 40.5332C188.822 40.8613 189.054 41.1045 189.358 41.2627C189.663 41.415 190.035 41.4912 190.475 41.4912C190.896 41.4912 191.292 41.4648 191.661 41.4121C192.036 41.3535 192.394 41.2773 192.733 41.1836C193.079 41.0898 193.416 40.9814 193.744 40.8584ZM198.684 36.4902V46H197.058V36.4902H198.684ZM204.924 36.4902L200.415 41.9395H198.139L197.893 40.5156H199.756L202.946 36.4902H204.924ZM203.175 46L199.677 41.6934L200.723 40.5156L205.24 46H203.175ZM206.031 41.3506V41.1484C206.031 40.4629 206.131 39.8271 206.33 39.2412C206.529 38.6494 206.816 38.1367 207.191 37.7031C207.566 37.2637 208.021 36.9238 208.554 36.6836C209.087 36.4375 209.685 36.3145 210.347 36.3145C211.015 36.3145 211.615 36.4375 212.148 36.6836C212.688 36.9238 213.145 37.2637 213.52 37.7031C213.9 38.1367 214.19 38.6494 214.39 39.2412C214.589 39.8271 214.688 40.4629 214.688 41.1484V41.3506C214.688 42.0361 214.589 42.6719 214.39 43.2578C214.19 43.8438 213.9 44.3564 213.52 44.7959C213.145 45.2295 212.69 45.5693 212.157 45.8154C211.63 46.0557 211.032 46.1758 210.364 46.1758C209.696 46.1758 209.096 46.0557 208.562 45.8154C208.029 45.5693 207.572 45.2295 207.191 44.7959C206.816 44.3564 206.529 43.8438 206.33 43.2578C206.131 42.6719 206.031 42.0361 206.031 41.3506ZM207.657 41.1484V41.3506C207.657 41.8252 207.713 42.2734 207.824 42.6953C207.936 43.1113 208.103 43.4805 208.325 43.8027C208.554 44.125 208.838 44.3799 209.178 44.5674C209.518 44.749 209.913 44.8398 210.364 44.8398C210.81 44.8398 211.199 44.749 211.533 44.5674C211.873 44.3799 212.154 44.125 212.377 43.8027C212.6 43.4805 212.767 43.1113 212.878 42.6953C212.995 42.2734 213.054 41.8252 213.054 41.3506V41.1484C213.054 40.6797 212.995 40.2373 212.878 39.8213C212.767 39.3994 212.597 39.0273 212.368 38.7051C212.146 38.377 211.864 38.1191 211.524 37.9316C211.19 37.7441 210.798 37.6504 210.347 37.6504C209.901 37.6504 209.509 37.7441 209.169 37.9316C208.835 38.1191 208.554 38.377 208.325 38.7051C208.103 39.0273 207.936 39.3994 207.824 39.8213C207.713 40.2373 207.657 40.6797 207.657 41.1484ZM221.192 41.8164H218.072L218.055 40.5156H220.604C221.107 40.5156 221.526 40.4658 221.86 40.3662C222.2 40.2666 222.455 40.1172 222.625 39.918C222.795 39.7188 222.88 39.4727 222.88 39.1797C222.88 38.9512 222.83 38.752 222.73 38.582C222.637 38.4062 222.493 38.2627 222.3 38.1514C222.106 38.0342 221.866 37.9492 221.579 37.8965C221.298 37.8379 220.967 37.8086 220.586 37.8086H218.503V46H216.877V36.4902H220.586C221.189 36.4902 221.731 36.543 222.212 36.6484C222.698 36.7539 223.111 36.915 223.451 37.1318C223.797 37.3428 224.061 37.6123 224.242 37.9404C224.424 38.2686 224.515 38.6553 224.515 39.1006C224.515 39.3877 224.456 39.6602 224.339 39.918C224.222 40.1758 224.049 40.4043 223.82 40.6035C223.592 40.8027 223.311 40.9668 222.977 41.0957C222.643 41.2188 222.259 41.2979 221.825 41.333L221.192 41.8164ZM221.192 46H217.483L218.292 44.6816H221.192C221.644 44.6816 222.019 44.626 222.317 44.5146C222.616 44.3975 222.839 44.2334 222.985 44.0225C223.138 43.8057 223.214 43.5479 223.214 43.249C223.214 42.9502 223.138 42.6953 222.985 42.4844C222.839 42.2676 222.616 42.1035 222.317 41.9922C222.019 41.875 221.644 41.8164 221.192 41.8164H218.723L218.74 40.5156H221.825L222.414 41.0078C222.936 41.0488 223.378 41.1777 223.741 41.3945C224.104 41.6113 224.38 41.8867 224.567 42.2207C224.755 42.5488 224.849 42.9062 224.849 43.293C224.849 43.7383 224.764 44.1309 224.594 44.4707C224.43 44.8105 224.189 45.0947 223.873 45.3232C223.557 45.5459 223.173 45.7158 222.722 45.833C222.271 45.9443 221.761 46 221.192 46Z" fill="black"/>
<path d="M42.4637 84.3675C42.6202 83.7044 42.6984 83.3729 42.8242 83.2982C42.9326 83.2339 43.0674 83.2339 43.1758 83.2982C43.3016 83.3729 43.3798 83.7044 43.5363 84.3675L44.2997 87.603C44.5837 88.8064 44.7257 89.408 45.0343 89.896C45.3071 90.3274 45.6726 90.6929 46.104 90.9657C46.592 91.2743 47.1936 91.4163 48.397 91.7003L51.6325 92.4637C52.2956 92.6202 52.6271 92.6984 52.7018 92.8242C52.7661 92.9326 52.7661 93.0674 52.7018 93.1758C52.6271 93.3016 52.2956 93.3798 51.6325 93.5363L48.397 94.2997C47.1936 94.5837 46.592 94.7257 46.104 95.0343C45.6726 95.3071 45.3071 95.6726 45.0343 96.104C44.7257 96.592 44.5837 97.1936 44.2997 98.397L43.5363 101.632C43.3798 102.296 43.3016 102.627 43.1758 102.702C43.0674 102.766 42.9326 102.766 42.8242 102.702C42.6984 102.627 42.6202 102.296 42.4637 101.632L41.7003 98.397C41.4163 97.1936 41.2743 96.592 40.9657 96.104C40.6929 95.6726 40.3274 95.3071 39.896 95.0343C39.408 94.7257 38.8064 94.5837 37.603 94.2997L34.3675 93.5363C33.7044 93.3798 33.3729 93.3016 33.2982 93.1758C33.2339 93.0674 33.2339 92.9326 33.2982 92.8242C33.3729 92.6984 33.7044 92.6202 34.3675 92.4637L37.603 91.7003C38.8064 91.4163 39.408 91.2743 39.896 90.9657C40.3274 90.6929 40.6929 90.3274 40.9657 89.896C41.2743 89.408 41.4163 88.8064 41.7003 87.603L42.4637 84.3675Z" fill="black"/>
<path d="M67.2607 83.2031V96H65.5645V83.2031H67.2607ZM75.1445 83.2031L69.5898 90.2432H66.584L66.3203 88.8369H68.5791L73.0439 83.2031H75.1445ZM73.4395 96L68.6318 90.0234L69.5811 88.5381L75.5137 96H73.4395ZM83.1602 86.4902V87.835H78.5635V86.4902H83.1602ZM84.5928 86.4902V96H82.9668V86.4902H84.5928ZM78.168 86.4902H79.8027L79.5566 91.0781C79.5156 91.7871 79.4482 92.4141 79.3545 92.959C79.2666 93.498 79.1436 93.9609 78.9854 94.3477C78.833 94.7344 78.6396 95.0508 78.4053 95.2969C78.1768 95.5371 77.9014 95.7158 77.5791 95.833C77.2568 95.9443 76.8848 96 76.4629 96H75.9531V94.5674L76.3047 94.541C76.5566 94.5234 76.7705 94.4648 76.9463 94.3652C77.1279 94.2656 77.2803 94.1191 77.4033 93.9258C77.5264 93.7266 77.626 93.4717 77.7021 93.1611C77.7842 92.8506 77.8457 92.4814 77.8867 92.0537C77.9336 91.626 77.9688 91.1279 77.9922 90.5596L78.168 86.4902ZM92.8193 94.374V89.4785C92.8193 89.1035 92.7432 88.7783 92.5908 88.5029C92.4443 88.2217 92.2217 88.0049 91.9229 87.8525C91.624 87.7002 91.2549 87.624 90.8154 87.624C90.4053 87.624 90.0449 87.6943 89.7344 87.835C89.4297 87.9756 89.1895 88.1602 89.0137 88.3887C88.8438 88.6172 88.7588 88.8633 88.7588 89.127H87.1328C87.1328 88.7871 87.2207 88.4502 87.3965 88.1162C87.5723 87.7822 87.8242 87.4805 88.1523 87.2109C88.4863 86.9355 88.8848 86.7188 89.3477 86.5605C89.8164 86.3965 90.3379 86.3145 90.9121 86.3145C91.6035 86.3145 92.2129 86.4316 92.7402 86.666C93.2734 86.9004 93.6895 87.2549 93.9883 87.7295C94.293 88.1982 94.4453 88.7871 94.4453 89.4961V93.9258C94.4453 94.2422 94.4717 94.5791 94.5244 94.9365C94.583 95.2939 94.668 95.6016 94.7793 95.8594V96H93.083C93.001 95.8125 92.9365 95.5635 92.8896 95.2529C92.8428 94.9365 92.8193 94.6436 92.8193 94.374ZM93.1006 90.2344L93.1182 91.377H91.4746C91.0117 91.377 90.5986 91.415 90.2354 91.4912C89.8721 91.5615 89.5674 91.6699 89.3213 91.8164C89.0752 91.9629 88.8877 92.1475 88.7588 92.3701C88.6299 92.5869 88.5654 92.8418 88.5654 93.1348C88.5654 93.4336 88.6328 93.7061 88.7676 93.9521C88.9023 94.1982 89.1045 94.3945 89.374 94.541C89.6494 94.6816 89.9863 94.752 90.3848 94.752C90.8828 94.752 91.3223 94.6465 91.7031 94.4355C92.084 94.2246 92.3857 93.9668 92.6084 93.6621C92.8369 93.3574 92.96 93.0615 92.9775 92.7744L93.6719 93.5566C93.6309 93.8027 93.5195 94.0752 93.3379 94.374C93.1562 94.6729 92.9131 94.96 92.6084 95.2354C92.3096 95.5049 91.9521 95.7305 91.5361 95.9121C91.126 96.0879 90.6631 96.1758 90.1475 96.1758C89.5029 96.1758 88.9375 96.0498 88.4512 95.7979C87.9707 95.5459 87.5957 95.209 87.3262 94.7871C87.0625 94.3594 86.9307 93.8818 86.9307 93.3545C86.9307 92.8447 87.0303 92.3965 87.2295 92.0098C87.4287 91.6172 87.7158 91.292 88.0908 91.0342C88.4658 90.7705 88.917 90.5713 89.4443 90.4365C89.9717 90.3018 90.5605 90.2344 91.2109 90.2344H93.1006ZM100.809 94.8398C101.195 94.8398 101.553 94.7607 101.881 94.6025C102.209 94.4443 102.479 94.2275 102.689 93.9521C102.9 93.6709 103.021 93.3516 103.05 92.9941H104.597C104.567 93.5566 104.377 94.0811 104.025 94.5674C103.68 95.0479 103.226 95.4375 102.663 95.7363C102.101 96.0293 101.482 96.1758 100.809 96.1758C100.094 96.1758 99.4697 96.0498 98.9365 95.7979C98.4092 95.5459 97.9697 95.2002 97.6182 94.7607C97.2725 94.3213 97.0117 93.8174 96.8359 93.249C96.666 92.6748 96.5811 92.0684 96.5811 91.4297V91.0605C96.5811 90.4219 96.666 89.8184 96.8359 89.25C97.0117 88.6758 97.2725 88.1689 97.6182 87.7295C97.9697 87.29 98.4092 86.9443 98.9365 86.6924C99.4697 86.4404 100.094 86.3145 100.809 86.3145C101.553 86.3145 102.203 86.4668 102.76 86.7715C103.316 87.0703 103.753 87.4805 104.069 88.002C104.392 88.5176 104.567 89.1035 104.597 89.7598H103.05C103.021 89.3672 102.909 89.0127 102.716 88.6963C102.528 88.3799 102.271 88.1279 101.942 87.9404C101.62 87.7471 101.242 87.6504 100.809 87.6504C100.311 87.6504 99.8916 87.75 99.5518 87.9492C99.2178 88.1426 98.9512 88.4062 98.752 88.7402C98.5586 89.0684 98.418 89.4346 98.3301 89.8389C98.248 90.2373 98.207 90.6445 98.207 91.0605V91.4297C98.207 91.8457 98.248 92.2559 98.3301 92.6602C98.4121 93.0645 98.5498 93.4307 98.7432 93.7588C98.9424 94.0869 99.209 94.3506 99.543 94.5498C99.8828 94.7432 100.305 94.8398 100.809 94.8398ZM110.23 94.8398C110.617 94.8398 110.975 94.7607 111.303 94.6025C111.631 94.4443 111.9 94.2275 112.111 93.9521C112.322 93.6709 112.442 93.3516 112.472 92.9941H114.019C113.989 93.5566 113.799 94.0811 113.447 94.5674C113.102 95.0479 112.647 95.4375 112.085 95.7363C111.522 96.0293 110.904 96.1758 110.23 96.1758C109.516 96.1758 108.892 96.0498 108.358 95.7979C107.831 95.5459 107.392 95.2002 107.04 94.7607C106.694 94.3213 106.434 93.8174 106.258 93.249C106.088 92.6748 106.003 92.0684 106.003 91.4297V91.0605C106.003 90.4219 106.088 89.8184 106.258 89.25C106.434 88.6758 106.694 88.1689 107.04 87.7295C107.392 87.29 107.831 86.9443 108.358 86.6924C108.892 86.4404 109.516 86.3145 110.23 86.3145C110.975 86.3145 111.625 86.4668 112.182 86.7715C112.738 87.0703 113.175 87.4805 113.491 88.002C113.813 88.5176 113.989 89.1035 114.019 89.7598H112.472C112.442 89.3672 112.331 89.0127 112.138 88.6963C111.95 88.3799 111.692 88.1279 111.364 87.9404C111.042 87.7471 110.664 87.6504 110.23 87.6504C109.732 87.6504 109.313 87.75 108.974 87.9492C108.64 88.1426 108.373 88.4062 108.174 88.7402C107.98 89.0684 107.84 89.4346 107.752 89.8389C107.67 90.2373 107.629 90.6445 107.629 91.0605V91.4297C107.629 91.8457 107.67 92.2559 107.752 92.6602C107.834 93.0645 107.972 93.4307 108.165 93.7588C108.364 94.0869 108.631 94.3506 108.965 94.5498C109.305 94.7432 109.727 94.8398 110.23 94.8398ZM117.604 93.4248L121.99 86.4902H123.625V96H121.99V89.0654L117.604 96H115.987V86.4902H117.604V93.4248ZM133.407 86.4902V96H131.781V86.4902H133.407ZM132.854 90.8584V92.1943C132.525 92.3174 132.191 92.4287 131.852 92.5283C131.518 92.6221 131.163 92.6982 130.788 92.7568C130.419 92.8096 130.018 92.8359 129.584 92.8359C128.834 92.8359 128.184 92.707 127.633 92.4492C127.082 92.1855 126.657 91.79 126.358 91.2627C126.06 90.7295 125.91 90.0586 125.91 89.25V86.4727H127.536V89.25C127.536 89.7773 127.615 90.2051 127.773 90.5332C127.932 90.8613 128.163 91.1045 128.468 91.2627C128.772 91.415 129.145 91.4912 129.584 91.4912C130.006 91.4912 130.401 91.4648 130.771 91.4121C131.146 91.3535 131.503 91.2773 131.843 91.1836C132.188 91.0898 132.525 90.9814 132.854 90.8584ZM139.973 96.1758C139.311 96.1758 138.71 96.0645 138.171 95.8418C137.638 95.6133 137.178 95.2939 136.791 94.8838C136.41 94.4736 136.117 93.9873 135.912 93.4248C135.707 92.8623 135.604 92.2471 135.604 91.5791V91.21C135.604 90.4365 135.719 89.748 135.947 89.1445C136.176 88.5352 136.486 88.0195 136.879 87.5977C137.271 87.1758 137.717 86.8564 138.215 86.6396C138.713 86.4229 139.229 86.3145 139.762 86.3145C140.441 86.3145 141.027 86.4316 141.52 86.666C142.018 86.9004 142.425 87.2285 142.741 87.6504C143.058 88.0664 143.292 88.5586 143.444 89.127C143.597 89.6895 143.673 90.3047 143.673 90.9727V91.7021H136.571V90.375H142.047V90.252C142.023 89.8301 141.936 89.4199 141.783 89.0215C141.637 88.623 141.402 88.2949 141.08 88.0371C140.758 87.7793 140.318 87.6504 139.762 87.6504C139.393 87.6504 139.053 87.7295 138.742 87.8877C138.432 88.04 138.165 88.2686 137.942 88.5732C137.72 88.8779 137.547 89.25 137.424 89.6895C137.301 90.1289 137.239 90.6357 137.239 91.21V91.5791C137.239 92.0303 137.301 92.4551 137.424 92.8535C137.553 93.2461 137.737 93.5918 137.978 93.8906C138.224 94.1895 138.52 94.4238 138.865 94.5938C139.217 94.7637 139.615 94.8486 140.061 94.8486C140.635 94.8486 141.121 94.7314 141.52 94.4971C141.918 94.2627 142.267 93.9492 142.565 93.5566L143.55 94.3389C143.345 94.6494 143.084 94.9453 142.768 95.2266C142.451 95.5078 142.062 95.7363 141.599 95.9121C141.142 96.0879 140.6 96.1758 139.973 96.1758ZM149.377 94.8398C149.764 94.8398 150.121 94.7607 150.449 94.6025C150.777 94.4443 151.047 94.2275 151.258 93.9521C151.469 93.6709 151.589 93.3516 151.618 92.9941H153.165C153.136 93.5566 152.945 94.0811 152.594 94.5674C152.248 95.0479 151.794 95.4375 151.231 95.7363C150.669 96.0293 150.051 96.1758 149.377 96.1758C148.662 96.1758 148.038 96.0498 147.505 95.7979C146.978 95.5459 146.538 95.2002 146.187 94.7607C145.841 94.3213 145.58 93.8174 145.404 93.249C145.234 92.6748 145.149 92.0684 145.149 91.4297V91.0605C145.149 90.4219 145.234 89.8184 145.404 89.25C145.58 88.6758 145.841 88.1689 146.187 87.7295C146.538 87.29 146.978 86.9443 147.505 86.6924C148.038 86.4404 148.662 86.3145 149.377 86.3145C150.121 86.3145 150.771 86.4668 151.328 86.7715C151.885 87.0703 152.321 87.4805 152.638 88.002C152.96 88.5176 153.136 89.1035 153.165 89.7598H151.618C151.589 89.3672 151.478 89.0127 151.284 88.6963C151.097 88.3799 150.839 88.1279 150.511 87.9404C150.188 87.7471 149.811 87.6504 149.377 87.6504C148.879 87.6504 148.46 87.75 148.12 87.9492C147.786 88.1426 147.52 88.4062 147.32 88.7402C147.127 89.0684 146.986 89.4346 146.898 89.8389C146.816 90.2373 146.775 90.6445 146.775 91.0605V91.4297C146.775 91.8457 146.816 92.2559 146.898 92.6602C146.98 93.0645 147.118 93.4307 147.312 93.7588C147.511 94.0869 147.777 94.3506 148.111 94.5498C148.451 94.7432 148.873 94.8398 149.377 94.8398ZM156.76 86.4902V96H155.134V86.4902H156.76ZM163 86.4902L158.491 91.9395H156.215L155.969 90.5156H157.832L161.022 86.4902H163ZM161.251 96L157.753 91.6934L158.799 90.5156L163.316 96H161.251ZM170.339 94.374V89.4785C170.339 89.1035 170.263 88.7783 170.11 88.5029C169.964 88.2217 169.741 88.0049 169.442 87.8525C169.144 87.7002 168.774 87.624 168.335 87.624C167.925 87.624 167.564 87.6943 167.254 87.835C166.949 87.9756 166.709 88.1602 166.533 88.3887C166.363 88.6172 166.278 88.8633 166.278 89.127H164.652C164.652 88.7871 164.74 88.4502 164.916 88.1162C165.092 87.7822 165.344 87.4805 165.672 87.2109C166.006 86.9355 166.404 86.7188 166.867 86.5605C167.336 86.3965 167.857 86.3145 168.432 86.3145C169.123 86.3145 169.732 86.4316 170.26 86.666C170.793 86.9004 171.209 87.2549 171.508 87.7295C171.812 88.1982 171.965 88.7871 171.965 89.4961V93.9258C171.965 94.2422 171.991 94.5791 172.044 94.9365C172.103 95.2939 172.188 95.6016 172.299 95.8594V96H170.603C170.521 95.8125 170.456 95.5635 170.409 95.2529C170.362 94.9365 170.339 94.6436 170.339 94.374ZM170.62 90.2344L170.638 91.377H168.994C168.531 91.377 168.118 91.415 167.755 91.4912C167.392 91.5615 167.087 91.6699 166.841 91.8164C166.595 91.9629 166.407 92.1475 166.278 92.3701C166.149 92.5869 166.085 92.8418 166.085 93.1348C166.085 93.4336 166.152 93.7061 166.287 93.9521C166.422 94.1982 166.624 94.3945 166.894 94.541C167.169 94.6816 167.506 94.752 167.904 94.752C168.402 94.752 168.842 94.6465 169.223 94.4355C169.604 94.2246 169.905 93.9668 170.128 93.6621C170.356 93.3574 170.479 93.0615 170.497 92.7744L171.191 93.5566C171.15 93.8027 171.039 94.0752 170.857 94.374C170.676 94.6729 170.433 94.96 170.128 95.2354C169.829 95.5049 169.472 95.7305 169.056 95.9121C168.646 96.0879 168.183 96.1758 167.667 96.1758C167.022 96.1758 166.457 96.0498 165.971 95.7979C165.49 95.5459 165.115 95.209 164.846 94.7871C164.582 94.3594 164.45 93.8818 164.45 93.3545C164.45 92.8447 164.55 92.3965 164.749 92.0098C164.948 91.6172 165.235 91.292 165.61 91.0342C165.985 90.7705 166.437 90.5713 166.964 90.4365C167.491 90.3018 168.08 90.2344 168.73 90.2344H170.62ZM176.447 91.4648H178.205L175.454 96H173.696L176.447 91.4648ZM177.81 86.4902H181.782V96H180.156V87.8086H177.81C177.347 87.8086 176.969 87.8877 176.676 88.0459C176.383 88.1982 176.169 88.3975 176.034 88.6436C175.899 88.8896 175.832 89.1445 175.832 89.4082C175.832 89.666 175.894 89.915 176.017 90.1553C176.14 90.3896 176.333 90.583 176.597 90.7354C176.86 90.8877 177.2 90.9639 177.616 90.9639H180.596V92.2998H177.616C177.071 92.2998 176.588 92.2266 176.166 92.0801C175.744 91.9336 175.387 91.7314 175.094 91.4736C174.801 91.21 174.578 90.9023 174.426 90.5508C174.273 90.1934 174.197 89.8066 174.197 89.3906C174.197 88.9746 174.276 88.5908 174.435 88.2393C174.599 87.8877 174.833 87.5801 175.138 87.3164C175.448 87.0527 175.826 86.8506 176.271 86.71C176.723 86.5635 177.235 86.4902 177.81 86.4902ZM190.624 93.4248L195.01 86.4902H196.645V96H195.01V89.0654L190.624 96H189.007V86.4902H190.624V93.4248ZM194.122 83.0449H195.44C195.44 83.502 195.335 83.9092 195.124 84.2666C194.913 84.6182 194.611 84.8936 194.219 85.0928C193.826 85.292 193.36 85.3916 192.821 85.3916C192.007 85.3916 191.362 85.1748 190.888 84.7412C190.419 84.3018 190.185 83.7363 190.185 83.0449H191.503C191.503 83.3906 191.603 83.6953 191.802 83.959C192.001 84.2227 192.341 84.3545 192.821 84.3545C193.29 84.3545 193.624 84.2227 193.823 83.959C194.022 83.6953 194.122 83.3906 194.122 83.0449ZM198.824 91.3506V91.1484C198.824 90.4629 198.924 89.8271 199.123 89.2412C199.322 88.6494 199.609 88.1367 199.984 87.7031C200.359 87.2637 200.813 86.9238 201.347 86.6836C201.88 86.4375 202.478 86.3145 203.14 86.3145C203.808 86.3145 204.408 86.4375 204.941 86.6836C205.48 86.9238 205.938 87.2637 206.312 87.7031C206.693 88.1367 206.983 88.6494 207.183 89.2412C207.382 89.8271 207.481 90.4629 207.481 91.1484V91.3506C207.481 92.0361 207.382 92.6719 207.183 93.2578C206.983 93.8438 206.693 94.3564 206.312 94.7959C205.938 95.2295 205.483 95.5693 204.95 95.8154C204.423 96.0557 203.825 96.1758 203.157 96.1758C202.489 96.1758 201.889 96.0557 201.355 95.8154C200.822 95.5693 200.365 95.2295 199.984 94.7959C199.609 94.3564 199.322 93.8438 199.123 93.2578C198.924 92.6719 198.824 92.0361 198.824 91.3506ZM200.45 91.1484V91.3506C200.45 91.8252 200.506 92.2734 200.617 92.6953C200.729 93.1113 200.896 93.4805 201.118 93.8027C201.347 94.125 201.631 94.3799 201.971 94.5674C202.311 94.749 202.706 94.8398 203.157 94.8398C203.603 94.8398 203.992 94.749 204.326 94.5674C204.666 94.3799 204.947 94.125 205.17 93.8027C205.393 93.4805 205.56 93.1113 205.671 92.6953C205.788 92.2734 205.847 91.8252 205.847 91.3506V91.1484C205.847 90.6797 205.788 90.2373 205.671 89.8213C205.56 89.3994 205.39 89.0273 205.161 88.7051C204.938 88.377 204.657 88.1191 204.317 87.9316C203.983 87.7441 203.591 87.6504 203.14 87.6504C202.694 87.6504 202.302 87.7441 201.962 87.9316C201.628 88.1191 201.347 88.377 201.118 88.7051C200.896 89.0273 200.729 89.3994 200.617 89.8213C200.506 90.2373 200.45 90.6797 200.45 91.1484ZM215.664 86.4902V87.835H211.27V96H209.644V86.4902H215.664ZM222.687 94.374V89.4785C222.687 89.1035 222.61 88.7783 222.458 88.5029C222.312 88.2217 222.089 88.0049 221.79 87.8525C221.491 87.7002 221.122 87.624 220.683 87.624C220.272 87.624 219.912 87.6943 219.602 87.835C219.297 87.9756 219.057 88.1602 218.881 88.3887C218.711 88.6172 218.626 88.8633 218.626 89.127H217C217 88.7871 217.088 88.4502 217.264 88.1162C217.439 87.7822 217.691 87.4805 218.02 87.2109C218.354 86.9355 218.752 86.7188 219.215 86.5605C219.684 86.3965 220.205 86.3145 220.779 86.3145C221.471 86.3145 222.08 86.4316 222.607 86.666C223.141 86.9004 223.557 87.2549 223.855 87.7295C224.16 88.1982 224.312 88.7871 224.312 89.4961V93.9258C224.312 94.2422 224.339 94.5791 224.392 94.9365C224.45 95.2939 224.535 95.6016 224.646 95.8594V96H222.95C222.868 95.8125 222.804 95.5635 222.757 95.2529C222.71 94.9365 222.687 94.6436 222.687 94.374ZM222.968 90.2344L222.985 91.377H221.342C220.879 91.377 220.466 91.415 220.103 91.4912C219.739 91.5615 219.435 91.6699 219.188 91.8164C218.942 91.9629 218.755 92.1475 218.626 92.3701C218.497 92.5869 218.433 92.8418 218.433 93.1348C218.433 93.4336 218.5 93.7061 218.635 93.9521C218.77 94.1982 218.972 94.3945 219.241 94.541C219.517 94.6816 219.854 94.752 220.252 94.752C220.75 94.752 221.189 94.6465 221.57 94.4355C221.951 94.2246 222.253 93.9668 222.476 93.6621C222.704 93.3574 222.827 93.0615 222.845 92.7744L223.539 93.5566C223.498 93.8027 223.387 94.0752 223.205 94.374C223.023 94.6729 222.78 94.96 222.476 95.2354C222.177 95.5049 221.819 95.7305 221.403 95.9121C220.993 96.0879 220.53 96.1758 220.015 96.1758C219.37 96.1758 218.805 96.0498 218.318 95.7979C217.838 95.5459 217.463 95.209 217.193 94.7871C216.93 94.3594 216.798 93.8818 216.798 93.3545C216.798 92.8447 216.897 92.3965 217.097 92.0098C217.296 91.6172 217.583 91.292 217.958 91.0342C218.333 90.7705 218.784 90.5713 219.312 90.4365C219.839 90.3018 220.428 90.2344 221.078 90.2344H222.968Z" fill="black"/>
<path d="M42.4637 134.368C42.6202 133.704 42.6984 133.373 42.8242 133.298C42.9326 133.234 43.0674 133.234 43.1758 133.298C43.3016 133.373 43.3798 133.704 43.5363 134.368L44.2997 137.603C44.5837 138.806 44.7257 139.408 45.0343 139.896C45.3071 140.327 45.6726 140.693 46.104 140.966C46.592 141.274 47.1936 141.416 48.397 141.7L51.6325 142.464C52.2956 142.62 52.6271 142.698 52.7018 142.824C52.7661 142.933 52.7661 143.067 52.7018 143.176C52.6271 143.302 52.2956 143.38 51.6325 143.536L48.397 144.3C47.1936 144.584 46.592 144.726 46.104 145.034C45.6726 145.307 45.3071 145.673 45.0343 146.104C44.7257 146.592 44.5837 147.194 44.2997 148.397L43.5363 151.632C43.3798 152.296 43.3016 152.627 43.1758 152.702C43.0674 152.766 42.9326 152.766 42.8242 152.702C42.6984 152.627 42.6202 152.296 42.4637 151.632L41.7003 148.397C41.4163 147.194 41.2743 146.592 40.9657 146.104C40.6929 145.673 40.3274 145.307 39.896 145.034C39.408 144.726 38.8064 144.584 37.603 144.3L34.3675 143.536C33.7044 143.38 33.3729 143.302 33.2982 143.176C33.2339 143.067 33.2339 142.933 33.2982 142.824C33.3729 142.698 33.7044 142.62 34.3675 142.464L37.603 141.7C38.8064 141.416 39.408 141.274 39.896 140.966C40.3274 140.693 40.6929 140.327 40.9657 139.896C41.2743 139.408 41.4163 138.806 41.7003 137.603L42.4637 134.368Z" fill="black"/>
<path d="M67.2607 133.203V146H65.5645V133.203H67.2607ZM75.1445 133.203L69.5898 140.243H66.584L66.3203 138.837H68.5791L73.0439 133.203H75.1445ZM73.4395 146L68.6318 140.023L69.5811 138.538L75.5137 146H73.4395ZM79.126 145.016L81.7715 136.49H83.5117L79.6973 147.468C79.6094 147.702 79.4922 147.954 79.3457 148.224C79.2051 148.499 79.0234 148.76 78.8008 149.006C78.5781 149.252 78.3086 149.451 77.9922 149.604C77.6816 149.762 77.3096 149.841 76.876 149.841C76.7471 149.841 76.583 149.823 76.3838 149.788C76.1846 149.753 76.0439 149.724 75.9619 149.7L75.9531 148.382C76 148.388 76.0732 148.394 76.1729 148.399C76.2783 148.411 76.3516 148.417 76.3926 148.417C76.7617 148.417 77.0752 148.367 77.333 148.268C77.5908 148.174 77.8076 148.013 77.9834 147.784C78.165 147.562 78.3203 147.254 78.4492 146.861L79.126 145.016ZM77.1836 136.49L79.6533 143.873L80.0752 145.587L78.9062 146.185L75.4082 136.49H77.1836ZM91.4307 140.612V141.931H86.4033V140.612H91.4307ZM86.7461 136.49V146H85.1201V136.49H86.7461ZM92.749 136.49V146H91.1143V136.49H92.749ZM97.082 136.49H98.708L98.5674 140.05C98.5322 140.952 98.4297 141.731 98.2598 142.388C98.0898 143.044 97.873 143.604 97.6094 144.066C97.3457 144.523 97.0498 144.907 96.7217 145.218C96.3994 145.528 96.0654 145.789 95.7197 146H94.9111L94.9551 144.673L95.2891 144.664C95.4824 144.436 95.6699 144.201 95.8516 143.961C96.0332 143.715 96.2002 143.425 96.3525 143.091C96.5049 142.751 96.6309 142.338 96.7305 141.852C96.8359 141.359 96.9033 140.759 96.9326 140.05L97.082 136.49ZM97.4863 136.49H103.208V146H101.582V137.993H97.4863V136.49ZM94.542 144.664H104.43V148.804H102.804V146H96.168V148.804H94.5332L94.542 144.664ZM111.839 144.374V139.479C111.839 139.104 111.763 138.778 111.61 138.503C111.464 138.222 111.241 138.005 110.942 137.853C110.644 137.7 110.274 137.624 109.835 137.624C109.425 137.624 109.064 137.694 108.754 137.835C108.449 137.976 108.209 138.16 108.033 138.389C107.863 138.617 107.778 138.863 107.778 139.127H106.152C106.152 138.787 106.24 138.45 106.416 138.116C106.592 137.782 106.844 137.48 107.172 137.211C107.506 136.936 107.904 136.719 108.367 136.561C108.836 136.396 109.357 136.314 109.932 136.314C110.623 136.314 111.232 136.432 111.76 136.666C112.293 136.9 112.709 137.255 113.008 137.729C113.312 138.198 113.465 138.787 113.465 139.496V143.926C113.465 144.242 113.491 144.579 113.544 144.937C113.603 145.294 113.688 145.602 113.799 145.859V146H112.103C112.021 145.812 111.956 145.563 111.909 145.253C111.862 144.937 111.839 144.644 111.839 144.374ZM112.12 140.234L112.138 141.377H110.494C110.031 141.377 109.618 141.415 109.255 141.491C108.892 141.562 108.587 141.67 108.341 141.816C108.095 141.963 107.907 142.147 107.778 142.37C107.649 142.587 107.585 142.842 107.585 143.135C107.585 143.434 107.652 143.706 107.787 143.952C107.922 144.198 108.124 144.395 108.394 144.541C108.669 144.682 109.006 144.752 109.404 144.752C109.902 144.752 110.342 144.646 110.723 144.436C111.104 144.225 111.405 143.967 111.628 143.662C111.856 143.357 111.979 143.062 111.997 142.774L112.691 143.557C112.65 143.803 112.539 144.075 112.357 144.374C112.176 144.673 111.933 144.96 111.628 145.235C111.329 145.505 110.972 145.73 110.556 145.912C110.146 146.088 109.683 146.176 109.167 146.176C108.522 146.176 107.957 146.05 107.471 145.798C106.99 145.546 106.615 145.209 106.346 144.787C106.082 144.359 105.95 143.882 105.95 143.354C105.95 142.845 106.05 142.396 106.249 142.01C106.448 141.617 106.735 141.292 107.11 141.034C107.485 140.771 107.937 140.571 108.464 140.437C108.991 140.302 109.58 140.234 110.23 140.234H112.12ZM122.377 136.49V137.835H117.78V136.49H122.377ZM123.81 136.49V146H122.184V136.49H123.81ZM117.385 136.49H119.02L118.773 141.078C118.732 141.787 118.665 142.414 118.571 142.959C118.483 143.498 118.36 143.961 118.202 144.348C118.05 144.734 117.856 145.051 117.622 145.297C117.394 145.537 117.118 145.716 116.796 145.833C116.474 145.944 116.102 146 115.68 146H115.17V144.567L115.521 144.541C115.773 144.523 115.987 144.465 116.163 144.365C116.345 144.266 116.497 144.119 116.62 143.926C116.743 143.727 116.843 143.472 116.919 143.161C117.001 142.851 117.062 142.481 117.104 142.054C117.15 141.626 117.186 141.128 117.209 140.56L117.385 136.49ZM128.187 143.425L132.572 136.49H134.207V146H132.572V139.065L128.187 146H126.569V136.49H128.187V143.425ZM143.269 140.612V141.931H138.241V140.612H143.269ZM138.584 136.49V146H136.958V136.49H138.584ZM144.587 136.49V146H142.952V136.49H144.587ZM148.964 143.425L153.35 136.49H154.984V146H153.35V139.065L148.964 146H147.347V136.49H148.964V143.425ZM160.979 139.892V141.228H156.689V139.892H160.979ZM164.327 143.425L168.713 136.49H170.348V146H168.713V139.065L164.327 146H162.71V136.49H164.327V143.425ZM167.825 133.045H169.144C169.144 133.502 169.038 133.909 168.827 134.267C168.616 134.618 168.314 134.894 167.922 135.093C167.529 135.292 167.063 135.392 166.524 135.392C165.71 135.392 165.065 135.175 164.591 134.741C164.122 134.302 163.888 133.736 163.888 133.045H165.206C165.206 133.391 165.306 133.695 165.505 133.959C165.704 134.223 166.044 134.354 166.524 134.354C166.993 134.354 167.327 134.223 167.526 133.959C167.726 133.695 167.825 133.391 167.825 133.045ZM172.527 141.351V141.148C172.527 140.463 172.627 139.827 172.826 139.241C173.025 138.649 173.312 138.137 173.688 137.703C174.062 137.264 174.517 136.924 175.05 136.684C175.583 136.438 176.181 136.314 176.843 136.314C177.511 136.314 178.111 136.438 178.645 136.684C179.184 136.924 179.641 137.264 180.016 137.703C180.396 138.137 180.687 138.649 180.886 139.241C181.085 139.827 181.185 140.463 181.185 141.148V141.351C181.185 142.036 181.085 142.672 180.886 143.258C180.687 143.844 180.396 144.356 180.016 144.796C179.641 145.229 179.187 145.569 178.653 145.815C178.126 146.056 177.528 146.176 176.86 146.176C176.192 146.176 175.592 146.056 175.059 145.815C174.525 145.569 174.068 145.229 173.688 144.796C173.312 144.356 173.025 143.844 172.826 143.258C172.627 142.672 172.527 142.036 172.527 141.351ZM174.153 141.148V141.351C174.153 141.825 174.209 142.273 174.32 142.695C174.432 143.111 174.599 143.48 174.821 143.803C175.05 144.125 175.334 144.38 175.674 144.567C176.014 144.749 176.409 144.84 176.86 144.84C177.306 144.84 177.695 144.749 178.029 144.567C178.369 144.38 178.65 144.125 178.873 143.803C179.096 143.48 179.263 143.111 179.374 142.695C179.491 142.273 179.55 141.825 179.55 141.351V141.148C179.55 140.68 179.491 140.237 179.374 139.821C179.263 139.399 179.093 139.027 178.864 138.705C178.642 138.377 178.36 138.119 178.021 137.932C177.687 137.744 177.294 137.65 176.843 137.65C176.397 137.65 176.005 137.744 175.665 137.932C175.331 138.119 175.05 138.377 174.821 138.705C174.599 139.027 174.432 139.399 174.32 139.821C174.209 140.237 174.153 140.68 174.153 141.148ZM189.367 136.49V137.835H184.973V146H183.347V136.49H189.367ZM196.39 144.374V139.479C196.39 139.104 196.313 138.778 196.161 138.503C196.015 138.222 195.792 138.005 195.493 137.853C195.194 137.7 194.825 137.624 194.386 137.624C193.976 137.624 193.615 137.694 193.305 137.835C193 137.976 192.76 138.16 192.584 138.389C192.414 138.617 192.329 138.863 192.329 139.127H190.703C190.703 138.787 190.791 138.45 190.967 138.116C191.143 137.782 191.395 137.48 191.723 137.211C192.057 136.936 192.455 136.719 192.918 136.561C193.387 136.396 193.908 136.314 194.482 136.314C195.174 136.314 195.783 136.432 196.311 136.666C196.844 136.9 197.26 137.255 197.559 137.729C197.863 138.198 198.016 138.787 198.016 139.496V143.926C198.016 144.242 198.042 144.579 198.095 144.937C198.153 145.294 198.238 145.602 198.35 145.859V146H196.653C196.571 145.812 196.507 145.563 196.46 145.253C196.413 144.937 196.39 144.644 196.39 144.374ZM196.671 140.234L196.688 141.377H195.045C194.582 141.377 194.169 141.415 193.806 141.491C193.442 141.562 193.138 141.67 192.892 141.816C192.646 141.963 192.458 142.147 192.329 142.37C192.2 142.587 192.136 142.842 192.136 143.135C192.136 143.434 192.203 143.706 192.338 143.952C192.473 144.198 192.675 144.395 192.944 144.541C193.22 144.682 193.557 144.752 193.955 144.752C194.453 144.752 194.893 144.646 195.273 144.436C195.654 144.225 195.956 143.967 196.179 143.662C196.407 143.357 196.53 143.062 196.548 142.774L197.242 143.557C197.201 143.803 197.09 144.075 196.908 144.374C196.727 144.673 196.483 144.96 196.179 145.235C195.88 145.505 195.522 145.73 195.106 145.912C194.696 146.088 194.233 146.176 193.718 146.176C193.073 146.176 192.508 146.05 192.021 145.798C191.541 145.546 191.166 145.209 190.896 144.787C190.633 144.359 190.501 143.882 190.501 143.354C190.501 142.845 190.601 142.396 190.8 142.01C190.999 141.617 191.286 141.292 191.661 141.034C192.036 140.771 192.487 140.571 193.015 140.437C193.542 140.302 194.131 140.234 194.781 140.234H196.671Z" fill="black"/>
<path d="M42.4637 184.368C42.6202 183.704 42.6984 183.373 42.8242 183.298C42.9326 183.234 43.0674 183.234 43.1758 183.298C43.3016 183.373 43.3798 183.704 43.5363 184.368L44.2997 187.603C44.5837 188.806 44.7257 189.408 45.0343 189.896C45.3071 190.327 45.6726 190.693 46.104 190.966C46.592 191.274 47.1936 191.416 48.397 191.7L51.6325 192.464C52.2956 192.62 52.6271 192.698 52.7018 192.824C52.7661 192.933 52.7661 193.067 52.7018 193.176C52.6271 193.302 52.2956 193.38 51.6325 193.536L48.397 194.3C47.1936 194.584 46.592 194.726 46.104 195.034C45.6726 195.307 45.3071 195.673 45.0343 196.104C44.7257 196.592 44.5837 197.194 44.2997 198.397L43.5363 201.632C43.3798 202.296 43.3016 202.627 43.1758 202.702C43.0674 202.766 42.9326 202.766 42.8242 202.702C42.6984 202.627 42.6202 202.296 42.4637 201.632L41.7003 198.397C41.4163 197.194 41.2743 196.592 40.9657 196.104C40.6929 195.673 40.3274 195.307 39.896 195.034C39.408 194.726 38.8064 194.584 37.603 194.3L34.3675 193.536C33.7044 193.38 33.3729 193.302 33.2982 193.176C33.2339 193.067 33.2339 192.933 33.2982 192.824C33.3729 192.698 33.7044 192.62 34.3675 192.464L37.603 191.7C38.8064 191.416 39.408 191.274 39.896 190.966C40.3274 190.693 40.6929 190.327 40.9657 189.896C41.2743 189.408 41.4163 188.806 41.7003 187.603L42.4637 184.368Z" fill="black"/>
<path d="M67.252 193.064L73.5537 183.203H75.25V196H73.5537V186.13L67.252 196H65.5645V183.203H67.252V193.064ZM71.752 180.03H73.0703C73.0703 180.487 72.9648 180.895 72.7539 181.252C72.543 181.604 72.2412 181.879 71.8486 182.078C71.4561 182.277 70.9902 182.377 70.4512 182.377C69.6367 182.377 68.9922 182.16 68.5176 181.727C68.0488 181.287 67.8145 180.722 67.8145 180.03H69.1328C69.1328 180.376 69.2324 180.681 69.4316 180.944C69.6309 181.208 69.9707 181.34 70.4512 181.34C70.9199 181.34 71.2539 181.208 71.4531 180.944C71.6523 180.681 71.752 180.376 71.752 180.03ZM77.6582 191.351V191.148C77.6582 190.463 77.7578 189.827 77.957 189.241C78.1562 188.649 78.4434 188.137 78.8184 187.703C79.1934 187.264 79.6475 186.924 80.1807 186.684C80.7139 186.438 81.3115 186.314 81.9736 186.314C82.6416 186.314 83.2422 186.438 83.7754 186.684C84.3145 186.924 84.7715 187.264 85.1465 187.703C85.5273 188.137 85.8174 188.649 86.0166 189.241C86.2158 189.827 86.3154 190.463 86.3154 191.148V191.351C86.3154 192.036 86.2158 192.672 86.0166 193.258C85.8174 193.844 85.5273 194.356 85.1465 194.796C84.7715 195.229 84.3174 195.569 83.7842 195.815C83.2568 196.056 82.6592 196.176 81.9912 196.176C81.3232 196.176 80.7227 196.056 80.1895 195.815C79.6562 195.569 79.1992 195.229 78.8184 194.796C78.4434 194.356 78.1562 193.844 77.957 193.258C77.7578 192.672 77.6582 192.036 77.6582 191.351ZM79.2842 191.148V191.351C79.2842 191.825 79.3398 192.273 79.4512 192.695C79.5625 193.111 79.7295 193.48 79.9521 193.803C80.1807 194.125 80.4648 194.38 80.8047 194.567C81.1445 194.749 81.54 194.84 81.9912 194.84C82.4365 194.84 82.8262 194.749 83.1602 194.567C83.5 194.38 83.7812 194.125 84.0039 193.803C84.2266 193.48 84.3936 193.111 84.5049 192.695C84.6221 192.273 84.6807 191.825 84.6807 191.351V191.148C84.6807 190.68 84.6221 190.237 84.5049 189.821C84.3936 189.399 84.2236 189.027 83.9951 188.705C83.7725 188.377 83.4912 188.119 83.1514 187.932C82.8174 187.744 82.4248 187.65 81.9736 187.65C81.5283 187.65 81.1357 187.744 80.7959 187.932C80.4619 188.119 80.1807 188.377 79.9521 188.705C79.7295 189.027 79.5625 189.399 79.4512 189.821C79.3398 190.237 79.2842 190.68 79.2842 191.148ZM94.498 186.49V187.835H90.1035V196H88.4775V186.49H94.498ZM101.521 194.374V189.479C101.521 189.104 101.444 188.778 101.292 188.503C101.146 188.222 100.923 188.005 100.624 187.853C100.325 187.7 99.9561 187.624 99.5166 187.624C99.1064 187.624 98.7461 187.694 98.4355 187.835C98.1309 187.976 97.8906 188.16 97.7148 188.389C97.5449 188.617 97.46 188.863 97.46 189.127H95.834C95.834 188.787 95.9219 188.45 96.0977 188.116C96.2734 187.782 96.5254 187.48 96.8535 187.211C97.1875 186.936 97.5859 186.719 98.0488 186.561C98.5176 186.396 99.0391 186.314 99.6133 186.314C100.305 186.314 100.914 186.432 101.441 186.666C101.975 186.9 102.391 187.255 102.689 187.729C102.994 188.198 103.146 188.787 103.146 189.496V193.926C103.146 194.242 103.173 194.579 103.226 194.937C103.284 195.294 103.369 195.602 103.48 195.859V196H101.784C101.702 195.812 101.638 195.563 101.591 195.253C101.544 194.937 101.521 194.644 101.521 194.374ZM101.802 190.234L101.819 191.377H100.176C99.7129 191.377 99.2998 191.415 98.9365 191.491C98.5732 191.562 98.2686 191.67 98.0225 191.816C97.7764 191.963 97.5889 192.147 97.46 192.37C97.3311 192.587 97.2666 192.842 97.2666 193.135C97.2666 193.434 97.334 193.706 97.4688 193.952C97.6035 194.198 97.8057 194.395 98.0752 194.541C98.3506 194.682 98.6875 194.752 99.0859 194.752C99.584 194.752 100.023 194.646 100.404 194.436C100.785 194.225 101.087 193.967 101.31 193.662C101.538 193.357 101.661 193.062 101.679 192.774L102.373 193.557C102.332 193.803 102.221 194.075 102.039 194.374C101.857 194.673 101.614 194.96 101.31 195.235C101.011 195.505 100.653 195.73 100.237 195.912C99.8271 196.088 99.3643 196.176 98.8486 196.176C98.2041 196.176 97.6387 196.05 97.1523 195.798C96.6719 195.546 96.2969 195.209 96.0273 194.787C95.7637 194.359 95.6318 193.882 95.6318 193.354C95.6318 192.845 95.7314 192.396 95.9307 192.01C96.1299 191.617 96.417 191.292 96.792 191.034C97.167 190.771 97.6182 190.571 98.1455 190.437C98.6729 190.302 99.2617 190.234 99.9121 190.234H101.802ZM109.439 186.49V196H107.805V186.49H109.439ZM112.63 186.49V187.809H104.676V186.49H112.63ZM117.473 196.176C116.811 196.176 116.21 196.064 115.671 195.842C115.138 195.613 114.678 195.294 114.291 194.884C113.91 194.474 113.617 193.987 113.412 193.425C113.207 192.862 113.104 192.247 113.104 191.579V191.21C113.104 190.437 113.219 189.748 113.447 189.145C113.676 188.535 113.986 188.02 114.379 187.598C114.771 187.176 115.217 186.856 115.715 186.64C116.213 186.423 116.729 186.314 117.262 186.314C117.941 186.314 118.527 186.432 119.02 186.666C119.518 186.9 119.925 187.229 120.241 187.65C120.558 188.066 120.792 188.559 120.944 189.127C121.097 189.689 121.173 190.305 121.173 190.973V191.702H114.071V190.375H119.547V190.252C119.523 189.83 119.436 189.42 119.283 189.021C119.137 188.623 118.902 188.295 118.58 188.037C118.258 187.779 117.818 187.65 117.262 187.65C116.893 187.65 116.553 187.729 116.242 187.888C115.932 188.04 115.665 188.269 115.442 188.573C115.22 188.878 115.047 189.25 114.924 189.689C114.801 190.129 114.739 190.636 114.739 191.21V191.579C114.739 192.03 114.801 192.455 114.924 192.854C115.053 193.246 115.237 193.592 115.478 193.891C115.724 194.189 116.02 194.424 116.365 194.594C116.717 194.764 117.115 194.849 117.561 194.849C118.135 194.849 118.621 194.731 119.02 194.497C119.418 194.263 119.767 193.949 120.065 193.557L121.05 194.339C120.845 194.649 120.584 194.945 120.268 195.227C119.951 195.508 119.562 195.736 119.099 195.912C118.642 196.088 118.1 196.176 117.473 196.176ZM124.697 188.318V199.656H123.062V186.49H124.557L124.697 188.318ZM131.104 191.166V191.351C131.104 192.042 131.022 192.684 130.858 193.275C130.694 193.861 130.454 194.371 130.138 194.805C129.827 195.238 129.443 195.575 128.986 195.815C128.529 196.056 128.005 196.176 127.413 196.176C126.81 196.176 126.276 196.076 125.813 195.877C125.351 195.678 124.958 195.388 124.636 195.007C124.313 194.626 124.056 194.169 123.862 193.636C123.675 193.103 123.546 192.502 123.476 191.834V190.85C123.546 190.146 123.678 189.517 123.871 188.96C124.064 188.403 124.319 187.929 124.636 187.536C124.958 187.138 125.348 186.836 125.805 186.631C126.262 186.42 126.789 186.314 127.387 186.314C127.984 186.314 128.515 186.432 128.978 186.666C129.44 186.895 129.83 187.223 130.146 187.65C130.463 188.078 130.7 188.591 130.858 189.188C131.022 189.78 131.104 190.439 131.104 191.166ZM129.47 191.351V191.166C129.47 190.691 129.42 190.246 129.32 189.83C129.221 189.408 129.065 189.039 128.854 188.723C128.649 188.4 128.386 188.148 128.063 187.967C127.741 187.779 127.357 187.686 126.912 187.686C126.502 187.686 126.145 187.756 125.84 187.896C125.541 188.037 125.286 188.228 125.075 188.468C124.864 188.702 124.691 188.972 124.557 189.276C124.428 189.575 124.331 189.886 124.267 190.208V192.484C124.384 192.895 124.548 193.281 124.759 193.645C124.97 194.002 125.251 194.292 125.603 194.515C125.954 194.731 126.396 194.84 126.93 194.84C127.369 194.84 127.747 194.749 128.063 194.567C128.386 194.38 128.649 194.125 128.854 193.803C129.065 193.48 129.221 193.111 129.32 192.695C129.42 192.273 129.47 191.825 129.47 191.351ZM138.786 194.374V189.479C138.786 189.104 138.71 188.778 138.558 188.503C138.411 188.222 138.188 188.005 137.89 187.853C137.591 187.7 137.222 187.624 136.782 187.624C136.372 187.624 136.012 187.694 135.701 187.835C135.396 187.976 135.156 188.16 134.98 188.389C134.811 188.617 134.726 188.863 134.726 189.127H133.1C133.1 188.787 133.188 188.45 133.363 188.116C133.539 187.782 133.791 187.48 134.119 187.211C134.453 186.936 134.852 186.719 135.314 186.561C135.783 186.396 136.305 186.314 136.879 186.314C137.57 186.314 138.18 186.432 138.707 186.666C139.24 186.9 139.656 187.255 139.955 187.729C140.26 188.198 140.412 188.787 140.412 189.496V193.926C140.412 194.242 140.438 194.579 140.491 194.937C140.55 195.294 140.635 195.602 140.746 195.859V196H139.05C138.968 195.812 138.903 195.563 138.856 195.253C138.81 194.937 138.786 194.644 138.786 194.374ZM139.067 190.234L139.085 191.377H137.441C136.979 191.377 136.565 191.415 136.202 191.491C135.839 191.562 135.534 191.67 135.288 191.816C135.042 191.963 134.854 192.147 134.726 192.37C134.597 192.587 134.532 192.842 134.532 193.135C134.532 193.434 134.6 193.706 134.734 193.952C134.869 194.198 135.071 194.395 135.341 194.541C135.616 194.682 135.953 194.752 136.352 194.752C136.85 194.752 137.289 194.646 137.67 194.436C138.051 194.225 138.353 193.967 138.575 193.662C138.804 193.357 138.927 193.062 138.944 192.774L139.639 193.557C139.598 193.803 139.486 194.075 139.305 194.374C139.123 194.673 138.88 194.96 138.575 195.235C138.276 195.505 137.919 195.73 137.503 195.912C137.093 196.088 136.63 196.176 136.114 196.176C135.47 196.176 134.904 196.05 134.418 195.798C133.938 195.546 133.562 195.209 133.293 194.787C133.029 194.359 132.897 193.882 132.897 193.354C132.897 192.845 132.997 192.396 133.196 192.01C133.396 191.617 133.683 191.292 134.058 191.034C134.433 190.771 134.884 190.571 135.411 190.437C135.938 190.302 136.527 190.234 137.178 190.234H139.067ZM149.307 186.49V187.835H144.499V186.49H149.307ZM144.736 186.49V196H143.11V186.49H144.736ZM150.748 186.49V196H149.113V186.49H150.748ZM155.116 193.425L159.502 186.49H161.137V196H159.502V189.065L155.116 196H153.499V186.49H155.116V193.425ZM165.672 191.465H167.43L164.679 196H162.921L165.672 191.465ZM167.034 186.49H171.007V196H169.381V187.809H167.034C166.571 187.809 166.193 187.888 165.9 188.046C165.607 188.198 165.394 188.397 165.259 188.644C165.124 188.89 165.057 189.145 165.057 189.408C165.057 189.666 165.118 189.915 165.241 190.155C165.364 190.39 165.558 190.583 165.821 190.735C166.085 190.888 166.425 190.964 166.841 190.964H169.82V192.3H166.841C166.296 192.3 165.812 192.227 165.391 192.08C164.969 191.934 164.611 191.731 164.318 191.474C164.025 191.21 163.803 190.902 163.65 190.551C163.498 190.193 163.422 189.807 163.422 189.391C163.422 188.975 163.501 188.591 163.659 188.239C163.823 187.888 164.058 187.58 164.362 187.316C164.673 187.053 165.051 186.851 165.496 186.71C165.947 186.563 166.46 186.49 167.034 186.49Z" fill="black"/>
<path d="M42.4637 234.368C42.6202 233.704 42.6984 233.373 42.8242 233.298C42.9326 233.234 43.0674 233.234 43.1758 233.298C43.3016 233.373 43.3798 233.704 43.5363 234.368L44.2997 237.603C44.5837 238.806 44.7257 239.408 45.0343 239.896C45.3071 240.327 45.6726 240.693 46.104 240.966C46.592 241.274 47.1936 241.416 48.397 241.7L51.6325 242.464C52.2956 242.62 52.6271 242.698 52.7018 242.824C52.7661 242.933 52.7661 243.067 52.7018 243.176C52.6271 243.302 52.2956 243.38 51.6325 243.536L48.397 244.3C47.1936 244.584 46.592 244.726 46.104 245.034C45.6726 245.307 45.3071 245.673 45.0343 246.104C44.7257 246.592 44.5837 247.194 44.2997 248.397L43.5363 251.632C43.3798 252.296 43.3016 252.627 43.1758 252.702C43.0674 252.766 42.9326 252.766 42.8242 252.702C42.6984 252.627 42.6202 252.296 42.4637 251.632L41.7003 248.397C41.4163 247.194 41.2743 246.592 40.9657 246.104C40.6929 245.673 40.3274 245.307 39.896 245.034C39.408 244.726 38.8064 244.584 37.603 244.3L34.3675 243.536C33.7044 243.38 33.3729 243.302 33.2982 243.176C33.2339 243.067 33.2339 242.933 33.2982 242.824C33.3729 242.698 33.7044 242.62 34.3675 242.464L37.603 241.7C38.8064 241.416 39.408 241.274 39.896 240.966C40.3274 240.693 40.6929 240.327 40.9657 239.896C41.2743 239.408 41.4163 238.806 41.7003 237.603L42.4637 234.368Z" fill="black"/>
<path d="M66.584 233.203L69.6602 238.107L72.7363 233.203H74.7139L70.6709 239.54L74.8105 246H72.8154L69.6602 240.999L66.5049 246H64.5098L68.6494 239.54L64.6064 233.203H66.584ZM82.1318 244.374V239.479C82.1318 239.104 82.0557 238.778 81.9033 238.503C81.7568 238.222 81.5342 238.005 81.2354 237.853C80.9365 237.7 80.5674 237.624 80.1279 237.624C79.7178 237.624 79.3574 237.694 79.0469 237.835C78.7422 237.976 78.502 238.16 78.3262 238.389C78.1562 238.617 78.0713 238.863 78.0713 239.127H76.4453C76.4453 238.787 76.5332 238.45 76.709 238.116C76.8848 237.782 77.1367 237.48 77.4648 237.211C77.7988 236.936 78.1973 236.719 78.6602 236.561C79.1289 236.396 79.6504 236.314 80.2246 236.314C80.916 236.314 81.5254 236.432 82.0527 236.666C82.5859 236.9 83.002 237.255 83.3008 237.729C83.6055 238.198 83.7578 238.787 83.7578 239.496V243.926C83.7578 244.242 83.7842 244.579 83.8369 244.937C83.8955 245.294 83.9805 245.602 84.0918 245.859V246H82.3955C82.3135 245.812 82.249 245.563 82.2021 245.253C82.1553 244.937 82.1318 244.644 82.1318 244.374ZM82.4131 240.234L82.4307 241.377H80.7871C80.3242 241.377 79.9111 241.415 79.5479 241.491C79.1846 241.562 78.8799 241.67 78.6338 241.816C78.3877 241.963 78.2002 242.147 78.0713 242.37C77.9424 242.587 77.8779 242.842 77.8779 243.135C77.8779 243.434 77.9453 243.706 78.0801 243.952C78.2148 244.198 78.417 244.395 78.6865 244.541C78.9619 244.682 79.2988 244.752 79.6973 244.752C80.1953 244.752 80.6348 244.646 81.0156 244.436C81.3965 244.225 81.6982 243.967 81.9209 243.662C82.1494 243.357 82.2725 243.062 82.29 242.774L82.9844 243.557C82.9434 243.803 82.832 244.075 82.6504 244.374C82.4688 244.673 82.2256 244.96 81.9209 245.235C81.6221 245.505 81.2646 245.73 80.8486 245.912C80.4385 246.088 79.9756 246.176 79.46 246.176C78.8154 246.176 78.25 246.05 77.7637 245.798C77.2832 245.546 76.9082 245.209 76.6387 244.787C76.375 244.359 76.2432 243.882 76.2432 243.354C76.2432 242.845 76.3428 242.396 76.542 242.01C76.7412 241.617 77.0283 241.292 77.4033 241.034C77.7783 240.771 78.2295 240.571 78.7568 240.437C79.2842 240.302 79.873 240.234 80.5234 240.234H82.4131ZM90.0508 236.49V246H88.416V236.49H90.0508ZM93.2412 236.49V237.809H85.2871V236.49H93.2412ZM95.9395 236.49L98.0225 239.953L100.132 236.49H102.039L98.9277 241.184L102.136 246H100.255L98.0576 242.432L95.8604 246H93.9707L97.1699 241.184L94.0674 236.49H95.9395ZM109.378 244.374V239.479C109.378 239.104 109.302 238.778 109.149 238.503C109.003 238.222 108.78 238.005 108.481 237.853C108.183 237.7 107.813 237.624 107.374 237.624C106.964 237.624 106.604 237.694 106.293 237.835C105.988 237.976 105.748 238.16 105.572 238.389C105.402 238.617 105.317 238.863 105.317 239.127H103.691C103.691 238.787 103.779 238.45 103.955 238.116C104.131 237.782 104.383 237.48 104.711 237.211C105.045 236.936 105.443 236.719 105.906 236.561C106.375 236.396 106.896 236.314 107.471 236.314C108.162 236.314 108.771 236.432 109.299 236.666C109.832 236.9 110.248 237.255 110.547 237.729C110.852 238.198 111.004 238.787 111.004 239.496V243.926C111.004 244.242 111.03 244.579 111.083 244.937C111.142 245.294 111.227 245.602 111.338 245.859V246H109.642C109.56 245.812 109.495 245.563 109.448 245.253C109.401 244.937 109.378 244.644 109.378 244.374ZM109.659 240.234L109.677 241.377H108.033C107.57 241.377 107.157 241.415 106.794 241.491C106.431 241.562 106.126 241.67 105.88 241.816C105.634 241.963 105.446 242.147 105.317 242.37C105.188 242.587 105.124 242.842 105.124 243.135C105.124 243.434 105.191 243.706 105.326 243.952C105.461 244.198 105.663 244.395 105.933 244.541C106.208 244.682 106.545 244.752 106.943 244.752C107.441 244.752 107.881 244.646 108.262 244.436C108.643 244.225 108.944 243.967 109.167 243.662C109.396 243.357 109.519 243.062 109.536 242.774L110.23 243.557C110.189 243.803 110.078 244.075 109.896 244.374C109.715 244.673 109.472 244.96 109.167 245.235C108.868 245.505 108.511 245.73 108.095 245.912C107.685 246.088 107.222 246.176 106.706 246.176C106.062 246.176 105.496 246.05 105.01 245.798C104.529 245.546 104.154 245.209 103.885 244.787C103.621 244.359 103.489 243.882 103.489 243.354C103.489 242.845 103.589 242.396 103.788 242.01C103.987 241.617 104.274 241.292 104.649 241.034C105.024 240.771 105.476 240.571 106.003 240.437C106.53 240.302 107.119 240.234 107.77 240.234H109.659ZM116.945 239.892V241.228H112.656V239.892H116.945ZM120.294 243.425L124.68 236.49H126.314V246H124.68V239.065L120.294 246H118.677V236.49H120.294V243.425ZM123.792 233.045H125.11C125.11 233.502 125.005 233.909 124.794 234.267C124.583 234.618 124.281 234.894 123.889 235.093C123.496 235.292 123.03 235.392 122.491 235.392C121.677 235.392 121.032 235.175 120.558 234.741C120.089 234.302 119.854 233.736 119.854 233.045H121.173C121.173 233.391 121.272 233.695 121.472 233.959C121.671 234.223 122.011 234.354 122.491 234.354C122.96 234.354 123.294 234.223 123.493 233.959C123.692 233.695 123.792 233.391 123.792 233.045ZM128.494 241.351V241.148C128.494 240.463 128.594 239.827 128.793 239.241C128.992 238.649 129.279 238.137 129.654 237.703C130.029 237.264 130.483 236.924 131.017 236.684C131.55 236.438 132.147 236.314 132.81 236.314C133.478 236.314 134.078 236.438 134.611 236.684C135.15 236.924 135.607 237.264 135.982 237.703C136.363 238.137 136.653 238.649 136.853 239.241C137.052 239.827 137.151 240.463 137.151 241.148V241.351C137.151 242.036 137.052 242.672 136.853 243.258C136.653 243.844 136.363 244.356 135.982 244.796C135.607 245.229 135.153 245.569 134.62 245.815C134.093 246.056 133.495 246.176 132.827 246.176C132.159 246.176 131.559 246.056 131.025 245.815C130.492 245.569 130.035 245.229 129.654 244.796C129.279 244.356 128.992 243.844 128.793 243.258C128.594 242.672 128.494 242.036 128.494 241.351ZM130.12 241.148V241.351C130.12 241.825 130.176 242.273 130.287 242.695C130.398 243.111 130.565 243.48 130.788 243.803C131.017 244.125 131.301 244.38 131.641 244.567C131.98 244.749 132.376 244.84 132.827 244.84C133.272 244.84 133.662 244.749 133.996 244.567C134.336 244.38 134.617 244.125 134.84 243.803C135.062 243.48 135.229 243.111 135.341 242.695C135.458 242.273 135.517 241.825 135.517 241.351V241.148C135.517 240.68 135.458 240.237 135.341 239.821C135.229 239.399 135.06 239.027 134.831 238.705C134.608 238.377 134.327 238.119 133.987 237.932C133.653 237.744 133.261 237.65 132.81 237.65C132.364 237.65 131.972 237.744 131.632 237.932C131.298 238.119 131.017 238.377 130.788 238.705C130.565 239.027 130.398 239.399 130.287 239.821C130.176 240.237 130.12 240.68 130.12 241.148ZM145.334 236.49V237.835H140.939V246H139.313V236.49H145.334ZM152.356 244.374V239.479C152.356 239.104 152.28 238.778 152.128 238.503C151.981 238.222 151.759 238.005 151.46 237.853C151.161 237.7 150.792 237.624 150.353 237.624C149.942 237.624 149.582 237.694 149.271 237.835C148.967 237.976 148.727 238.16 148.551 238.389C148.381 238.617 148.296 238.863 148.296 239.127H146.67C146.67 238.787 146.758 238.45 146.934 238.116C147.109 237.782 147.361 237.48 147.689 237.211C148.023 236.936 148.422 236.719 148.885 236.561C149.354 236.396 149.875 236.314 150.449 236.314C151.141 236.314 151.75 236.432 152.277 236.666C152.811 236.9 153.227 237.255 153.525 237.729C153.83 238.198 153.982 238.787 153.982 239.496V243.926C153.982 244.242 154.009 244.579 154.062 244.937C154.12 245.294 154.205 245.602 154.316 245.859V246H152.62C152.538 245.812 152.474 245.563 152.427 245.253C152.38 244.937 152.356 244.644 152.356 244.374ZM152.638 240.234L152.655 241.377H151.012C150.549 241.377 150.136 241.415 149.772 241.491C149.409 241.562 149.104 241.67 148.858 241.816C148.612 241.963 148.425 242.147 148.296 242.37C148.167 242.587 148.103 242.842 148.103 243.135C148.103 243.434 148.17 243.706 148.305 243.952C148.439 244.198 148.642 244.395 148.911 244.541C149.187 244.682 149.523 244.752 149.922 244.752C150.42 244.752 150.859 244.646 151.24 244.436C151.621 244.225 151.923 243.967 152.146 243.662C152.374 243.357 152.497 243.062 152.515 242.774L153.209 243.557C153.168 243.803 153.057 244.075 152.875 244.374C152.693 244.673 152.45 244.96 152.146 245.235C151.847 245.505 151.489 245.73 151.073 245.912C150.663 246.088 150.2 246.176 149.685 246.176C149.04 246.176 148.475 246.05 147.988 245.798C147.508 245.546 147.133 245.209 146.863 244.787C146.6 244.359 146.468 243.882 146.468 243.354C146.468 242.845 146.567 242.396 146.767 242.01C146.966 241.617 147.253 241.292 147.628 241.034C148.003 240.771 148.454 240.571 148.981 240.437C149.509 240.302 150.098 240.234 150.748 240.234H152.638Z" fill="black"/>
<path d="M42.4637 284.368C42.6202 283.704 42.6984 283.373 42.8242 283.298C42.9326 283.234 43.0674 283.234 43.1758 283.298C43.3016 283.373 43.3798 283.704 43.5363 284.368L44.2997 287.603C44.5837 288.806 44.7257 289.408 45.0343 289.896C45.3071 290.327 45.6726 290.693 46.104 290.966C46.592 291.274 47.1936 291.416 48.397 291.7L51.6325 292.464C52.2956 292.62 52.6271 292.698 52.7018 292.824C52.7661 292.933 52.7661 293.067 52.7018 293.176C52.6271 293.302 52.2956 293.38 51.6325 293.536L48.397 294.3C47.1936 294.584 46.592 294.726 46.104 295.034C45.6726 295.307 45.3071 295.673 45.0343 296.104C44.7257 296.592 44.5837 297.194 44.2997 298.397L43.5363 301.632C43.3798 302.296 43.3016 302.627 43.1758 302.702C43.0674 302.766 42.9326 302.766 42.8242 302.702C42.6984 302.627 42.6202 302.296 42.4637 301.632L41.7003 298.397C41.4163 297.194 41.2743 296.592 40.9657 296.104C40.6929 295.673 40.3274 295.307 39.896 295.034C39.408 294.726 38.8064 294.584 37.603 294.3L34.3675 293.536C33.7044 293.38 33.3729 293.302 33.2982 293.176C33.2339 293.067 33.2339 292.933 33.2982 292.824C33.3729 292.698 33.7044 292.62 34.3675 292.464L37.603 291.7C38.8064 291.416 39.408 291.274 39.896 290.966C40.3274 290.693 40.6929 290.327 40.9657 289.896C41.2743 289.408 41.4163 288.806 41.7003 287.603L42.4637 284.368Z" fill="black"/>
<path d="M70.2227 284.337L65.9863 296H64.2549L69.1328 283.203H70.249L70.2227 284.337ZM73.7734 296L69.5283 284.337L69.502 283.203H70.6182L75.5137 296H73.7734ZM73.5537 291.263V292.651H66.3643V291.263H73.5537ZM77.1221 286.49H78.748V294.664H82.2285V286.49H83.8633V294.664H87.335V286.49H88.9609V296H77.1221V286.49ZM95.4297 286.49V296H93.7949V286.49H95.4297ZM98.6201 286.49V287.809H90.666V286.49H98.6201ZM105.687 294.374V289.479C105.687 289.104 105.61 288.778 105.458 288.503C105.312 288.222 105.089 288.005 104.79 287.853C104.491 287.7 104.122 287.624 103.683 287.624C103.272 287.624 102.912 287.694 102.602 287.835C102.297 287.976 102.057 288.16 101.881 288.389C101.711 288.617 101.626 288.863 101.626 289.127H100C100 288.787 100.088 288.45 100.264 288.116C100.439 287.782 100.691 287.48 101.02 287.211C101.354 286.936 101.752 286.719 102.215 286.561C102.684 286.396 103.205 286.314 103.779 286.314C104.471 286.314 105.08 286.432 105.607 286.666C106.141 286.9 106.557 287.255 106.855 287.729C107.16 288.198 107.312 288.787 107.312 289.496V293.926C107.312 294.242 107.339 294.579 107.392 294.937C107.45 295.294 107.535 295.602 107.646 295.859V296H105.95C105.868 295.812 105.804 295.563 105.757 295.253C105.71 294.937 105.687 294.644 105.687 294.374ZM105.968 290.234L105.985 291.377H104.342C103.879 291.377 103.466 291.415 103.103 291.491C102.739 291.562 102.435 291.67 102.188 291.816C101.942 291.963 101.755 292.147 101.626 292.37C101.497 292.587 101.433 292.842 101.433 293.135C101.433 293.434 101.5 293.706 101.635 293.952C101.77 294.198 101.972 294.395 102.241 294.541C102.517 294.682 102.854 294.752 103.252 294.752C103.75 294.752 104.189 294.646 104.57 294.436C104.951 294.225 105.253 293.967 105.476 293.662C105.704 293.357 105.827 293.062 105.845 292.774L106.539 293.557C106.498 293.803 106.387 294.075 106.205 294.374C106.023 294.673 105.78 294.96 105.476 295.235C105.177 295.505 104.819 295.73 104.403 295.912C103.993 296.088 103.53 296.176 103.015 296.176C102.37 296.176 101.805 296.05 101.318 295.798C100.838 295.546 100.463 295.209 100.193 294.787C99.9297 294.359 99.7979 293.882 99.7979 293.354C99.7979 292.845 99.8975 292.396 100.097 292.01C100.296 291.617 100.583 291.292 100.958 291.034C101.333 290.771 101.784 290.571 102.312 290.437C102.839 290.302 103.428 290.234 104.078 290.234H105.968ZM116.321 290.612V291.931H111.294V290.612H116.321ZM111.637 286.49V296H110.011V286.49H111.637ZM117.64 286.49V296H116.005V286.49H117.64ZM126.402 286.49V287.835H122.008V296H120.382V286.49H126.402ZM133.425 294.374V289.479C133.425 289.104 133.349 288.778 133.196 288.503C133.05 288.222 132.827 288.005 132.528 287.853C132.229 287.7 131.86 287.624 131.421 287.624C131.011 287.624 130.65 287.694 130.34 287.835C130.035 287.976 129.795 288.16 129.619 288.389C129.449 288.617 129.364 288.863 129.364 289.127H127.738C127.738 288.787 127.826 288.45 128.002 288.116C128.178 287.782 128.43 287.48 128.758 287.211C129.092 286.936 129.49 286.719 129.953 286.561C130.422 286.396 130.943 286.314 131.518 286.314C132.209 286.314 132.818 286.432 133.346 286.666C133.879 286.9 134.295 287.255 134.594 287.729C134.898 288.198 135.051 288.787 135.051 289.496V293.926C135.051 294.242 135.077 294.579 135.13 294.937C135.188 295.294 135.273 295.602 135.385 295.859V296H133.688C133.606 295.812 133.542 295.563 133.495 295.253C133.448 294.937 133.425 294.644 133.425 294.374ZM133.706 290.234L133.724 291.377H132.08C131.617 291.377 131.204 291.415 130.841 291.491C130.478 291.562 130.173 291.67 129.927 291.816C129.681 291.963 129.493 292.147 129.364 292.37C129.235 292.587 129.171 292.842 129.171 293.135C129.171 293.434 129.238 293.706 129.373 293.952C129.508 294.198 129.71 294.395 129.979 294.541C130.255 294.682 130.592 294.752 130.99 294.752C131.488 294.752 131.928 294.646 132.309 294.436C132.689 294.225 132.991 293.967 133.214 293.662C133.442 293.357 133.565 293.062 133.583 292.774L134.277 293.557C134.236 293.803 134.125 294.075 133.943 294.374C133.762 294.673 133.519 294.96 133.214 295.235C132.915 295.505 132.558 295.73 132.142 295.912C131.731 296.088 131.269 296.176 130.753 296.176C130.108 296.176 129.543 296.05 129.057 295.798C128.576 295.546 128.201 295.209 127.932 294.787C127.668 294.359 127.536 293.882 127.536 293.354C127.536 292.845 127.636 292.396 127.835 292.01C128.034 291.617 128.321 291.292 128.696 291.034C129.071 290.771 129.522 290.571 130.05 290.437C130.577 290.302 131.166 290.234 131.816 290.234H133.706ZM140.992 289.892V291.228H136.703V289.892H140.992ZM144.341 293.425L148.727 286.49H150.361V296H148.727V289.065L144.341 296H142.724V286.49H144.341V293.425ZM147.839 283.045H149.157C149.157 283.502 149.052 283.909 148.841 284.267C148.63 284.618 148.328 284.894 147.936 285.093C147.543 285.292 147.077 285.392 146.538 285.392C145.724 285.392 145.079 285.175 144.604 284.741C144.136 284.302 143.901 283.736 143.901 283.045H145.22C145.22 283.391 145.319 283.695 145.519 283.959C145.718 284.223 146.058 284.354 146.538 284.354C147.007 284.354 147.341 284.223 147.54 283.959C147.739 283.695 147.839 283.391 147.839 283.045ZM152.541 291.351V291.148C152.541 290.463 152.641 289.827 152.84 289.241C153.039 288.649 153.326 288.137 153.701 287.703C154.076 287.264 154.53 286.924 155.063 286.684C155.597 286.438 156.194 286.314 156.856 286.314C157.524 286.314 158.125 286.438 158.658 286.684C159.197 286.924 159.654 287.264 160.029 287.703C160.41 288.137 160.7 288.649 160.899 289.241C161.099 289.827 161.198 290.463 161.198 291.148V291.351C161.198 292.036 161.099 292.672 160.899 293.258C160.7 293.844 160.41 294.356 160.029 294.796C159.654 295.229 159.2 295.569 158.667 295.815C158.14 296.056 157.542 296.176 156.874 296.176C156.206 296.176 155.605 296.056 155.072 295.815C154.539 295.569 154.082 295.229 153.701 294.796C153.326 294.356 153.039 293.844 152.84 293.258C152.641 292.672 152.541 292.036 152.541 291.351ZM154.167 291.148V291.351C154.167 291.825 154.223 292.273 154.334 292.695C154.445 293.111 154.612 293.48 154.835 293.803C155.063 294.125 155.348 294.38 155.688 294.567C156.027 294.749 156.423 294.84 156.874 294.84C157.319 294.84 157.709 294.749 158.043 294.567C158.383 294.38 158.664 294.125 158.887 293.803C159.109 293.48 159.276 293.111 159.388 292.695C159.505 292.273 159.563 291.825 159.563 291.351V291.148C159.563 290.68 159.505 290.237 159.388 289.821C159.276 289.399 159.106 289.027 158.878 288.705C158.655 288.377 158.374 288.119 158.034 287.932C157.7 287.744 157.308 287.65 156.856 287.65C156.411 287.65 156.019 287.744 155.679 287.932C155.345 288.119 155.063 288.377 154.835 288.705C154.612 289.027 154.445 289.399 154.334 289.821C154.223 290.237 154.167 290.68 154.167 291.148ZM169.381 286.49V287.835H164.986V296H163.36V286.49H169.381ZM176.403 294.374V289.479C176.403 289.104 176.327 288.778 176.175 288.503C176.028 288.222 175.806 288.005 175.507 287.853C175.208 287.7 174.839 287.624 174.399 287.624C173.989 287.624 173.629 287.694 173.318 287.835C173.014 287.976 172.773 288.16 172.598 288.389C172.428 288.617 172.343 288.863 172.343 289.127H170.717C170.717 288.787 170.805 288.45 170.98 288.116C171.156 287.782 171.408 287.48 171.736 287.211C172.07 286.936 172.469 286.719 172.932 286.561C173.4 286.396 173.922 286.314 174.496 286.314C175.188 286.314 175.797 286.432 176.324 286.666C176.857 286.9 177.273 287.255 177.572 287.729C177.877 288.198 178.029 288.787 178.029 289.496V293.926C178.029 294.242 178.056 294.579 178.108 294.937C178.167 295.294 178.252 295.602 178.363 295.859V296H176.667C176.585 295.812 176.521 295.563 176.474 295.253C176.427 294.937 176.403 294.644 176.403 294.374ZM176.685 290.234L176.702 291.377H175.059C174.596 291.377 174.183 291.415 173.819 291.491C173.456 291.562 173.151 291.67 172.905 291.816C172.659 291.963 172.472 292.147 172.343 292.37C172.214 292.587 172.149 292.842 172.149 293.135C172.149 293.434 172.217 293.706 172.352 293.952C172.486 294.198 172.688 294.395 172.958 294.541C173.233 294.682 173.57 294.752 173.969 294.752C174.467 294.752 174.906 294.646 175.287 294.436C175.668 294.225 175.97 293.967 176.192 293.662C176.421 293.357 176.544 293.062 176.562 292.774L177.256 293.557C177.215 293.803 177.104 294.075 176.922 294.374C176.74 294.673 176.497 294.96 176.192 295.235C175.894 295.505 175.536 295.73 175.12 295.912C174.71 296.088 174.247 296.176 173.731 296.176C173.087 296.176 172.521 296.05 172.035 295.798C171.555 295.546 171.18 295.209 170.91 294.787C170.646 294.359 170.515 293.882 170.515 293.354C170.515 292.845 170.614 292.396 170.813 292.01C171.013 291.617 171.3 291.292 171.675 291.034C172.05 290.771 172.501 290.571 173.028 290.437C173.556 290.302 174.145 290.234 174.795 290.234H176.685Z" fill="black"/>
</svg>
