<svg width="327" height="141" viewBox="0 0 327 141" fill="none" xmlns="http://www.w3.org/2000/svg">
<rect width="327" height="141" rx="28" fill="url(#paint0_linear_29_1259)"/>
<path d="M34.3921 65.3481H39.6655C41.7163 65.3481 43.4131 64.9941 44.7559 64.2861C46.123 63.5781 47.1362 62.6016 47.7954 61.3564C48.4546 60.1113 48.7842 58.6831 48.7842 57.0718C48.7842 55.3872 48.479 53.9468 47.8687 52.7505C47.2827 51.5298 46.3794 50.5898 45.1587 49.9307C43.9624 49.2715 42.4365 48.9419 40.5811 48.9419C39.0186 48.9419 37.6025 49.2593 36.333 49.894C35.0879 50.5044 34.0991 51.3833 33.3667 52.5308C32.6343 53.6538 32.2681 54.9966 32.2681 56.5591H23.4058C23.4058 53.7271 24.1504 51.2124 25.6396 49.0151C27.1289 46.8179 29.1553 45.0967 31.7188 43.8516C34.3066 42.582 37.2119 41.9473 40.4346 41.9473C43.877 41.9473 46.8799 42.521 49.4434 43.6685C52.0312 44.7915 54.0454 46.4761 55.4858 48.7222C56.9263 50.9683 57.6465 53.7515 57.6465 57.0718C57.6465 58.5854 57.2925 60.1235 56.5845 61.686C55.8765 63.2485 54.8267 64.6768 53.4351 65.9707C52.0435 67.2402 50.3101 68.2778 48.2349 69.0835C46.1597 69.8647 43.7549 70.2554 41.0205 70.2554H34.3921V65.3481ZM34.3921 72.2329V67.3989H41.0205C44.1455 67.3989 46.8066 67.7651 49.0039 68.4976C51.2256 69.23 53.0322 70.2432 54.4238 71.5371C55.8154 72.8066 56.8286 74.2593 57.4634 75.895C58.1226 77.5308 58.4521 79.2642 58.4521 81.0952C58.4521 83.5854 58.0005 85.8071 57.0972 87.7603C56.2183 89.689 54.9609 91.3247 53.3252 92.6675C51.6895 94.0103 49.7729 95.0234 47.5757 95.707C45.4028 96.3906 43.0347 96.7324 40.4712 96.7324C38.1763 96.7324 35.979 96.415 33.8794 95.7803C31.7798 95.1455 29.8999 94.2056 28.2397 92.9604C26.5796 91.6909 25.2612 90.1162 24.2847 88.2363C23.3325 86.332 22.8564 84.1348 22.8564 81.6445H31.6821C31.6821 83.2314 32.0483 84.6353 32.7808 85.856C33.5376 87.0522 34.5874 87.9922 35.9302 88.6758C37.2974 89.3594 38.8599 89.7012 40.6177 89.7012C42.4731 89.7012 44.0723 89.3716 45.415 88.7124C46.7578 88.0532 47.7832 87.0767 48.4912 85.7827C49.2236 84.4888 49.5898 82.9263 49.5898 81.0952C49.5898 79.02 49.187 77.3354 48.3813 76.0415C47.5757 74.7476 46.4282 73.7954 44.939 73.1851C43.4497 72.5503 41.6919 72.2329 39.6655 72.2329H34.3921Z" fill="#BCEC30"/>
<path d="M92.3359 48.5859L100.738 35.4375H103V52.5H100.738V39.3398L92.3359 52.5H90.0859V35.4375H92.3359V48.5859ZM124.41 50.7188L124.199 56.2617H122.266V52.5H120.613V50.7188H124.41ZM106.844 39.8203H109.012V50.7188H113.652V39.8203H115.832V50.7188H120.461V39.8203H122.629V52.5H106.844V39.8203ZM132.062 52.7344C131.18 52.7344 130.379 52.5859 129.66 52.2891C128.949 51.9844 128.336 51.5586 127.82 51.0117C127.312 50.4648 126.922 49.8164 126.648 49.0664C126.375 48.3164 126.238 47.4961 126.238 46.6055V46.1133C126.238 45.082 126.391 44.1641 126.695 43.3594C127 42.5469 127.414 41.8594 127.938 41.2969C128.461 40.7344 129.055 40.3086 129.719 40.0195C130.383 39.7305 131.07 39.5859 131.781 39.5859C132.688 39.5859 133.469 39.7422 134.125 40.0547C134.789 40.3672 135.332 40.8047 135.754 41.3672C136.176 41.9219 136.488 42.5781 136.691 43.3359C136.895 44.0859 136.996 44.9062 136.996 45.7969V46.7695H127.527V45H134.828V44.8359C134.797 44.2734 134.68 43.7266 134.477 43.1953C134.281 42.6641 133.969 42.2266 133.539 41.8828C133.109 41.5391 132.523 41.3672 131.781 41.3672C131.289 41.3672 130.836 41.4727 130.422 41.6836C130.008 41.8867 129.652 42.1914 129.355 42.5977C129.059 43.0039 128.828 43.5 128.664 44.0859C128.5 44.6719 128.418 45.3477 128.418 46.1133V46.6055C128.418 47.207 128.5 47.7734 128.664 48.3047C128.836 48.8281 129.082 49.2891 129.402 49.6875C129.73 50.0859 130.125 50.3984 130.586 50.625C131.055 50.8516 131.586 50.9648 132.18 50.9648C132.945 50.9648 133.594 50.8086 134.125 50.4961C134.656 50.1836 135.121 49.7656 135.52 49.2422L136.832 50.2852C136.559 50.6992 136.211 51.0938 135.789 51.4688C135.367 51.8438 134.848 52.1484 134.23 52.3828C133.621 52.6172 132.898 52.7344 132.062 52.7344ZM144.555 39.8203V52.5H142.375V39.8203H144.555ZM148.809 39.8203V41.5781H138.203V39.8203H148.809ZM155.266 52.7344C154.383 52.7344 153.582 52.5859 152.863 52.2891C152.152 51.9844 151.539 51.5586 151.023 51.0117C150.516 50.4648 150.125 49.8164 149.852 49.0664C149.578 48.3164 149.441 47.4961 149.441 46.6055V46.1133C149.441 45.082 149.594 44.1641 149.898 43.3594C150.203 42.5469 150.617 41.8594 151.141 41.2969C151.664 40.7344 152.258 40.3086 152.922 40.0195C153.586 39.7305 154.273 39.5859 154.984 39.5859C155.891 39.5859 156.672 39.7422 157.328 40.0547C157.992 40.3672 158.535 40.8047 158.957 41.3672C159.379 41.9219 159.691 42.5781 159.895 43.3359C160.098 44.0859 160.199 44.9062 160.199 45.7969V46.7695H150.73V45H158.031V44.8359C158 44.2734 157.883 43.7266 157.68 43.1953C157.484 42.6641 157.172 42.2266 156.742 41.8828C156.312 41.5391 155.727 41.3672 154.984 41.3672C154.492 41.3672 154.039 41.4727 153.625 41.6836C153.211 41.8867 152.855 42.1914 152.559 42.5977C152.262 43.0039 152.031 43.5 151.867 44.0859C151.703 44.6719 151.621 45.3477 151.621 46.1133V46.6055C151.621 47.207 151.703 47.7734 151.867 48.3047C152.039 48.8281 152.285 49.2891 152.605 49.6875C152.934 50.0859 153.328 50.3984 153.789 50.625C154.258 50.8516 154.789 50.9648 155.383 50.9648C156.148 50.9648 156.797 50.8086 157.328 50.4961C157.859 50.1836 158.324 49.7656 158.723 49.2422L160.035 50.2852C159.762 50.6992 159.414 51.0938 158.992 51.4688C158.57 51.8438 158.051 52.1484 157.434 52.3828C156.824 52.6172 156.102 52.7344 155.266 52.7344ZM176.16 50.332V43.8047C176.16 43.3047 176.059 42.8711 175.855 42.5039C175.66 42.1289 175.363 41.8398 174.965 41.6367C174.566 41.4336 174.074 41.332 173.488 41.332C172.941 41.332 172.461 41.4258 172.047 41.6133C171.641 41.8008 171.32 42.0469 171.086 42.3516C170.859 42.6562 170.746 42.9844 170.746 43.3359H168.578C168.578 42.8828 168.695 42.4336 168.93 41.9883C169.164 41.543 169.5 41.1406 169.938 40.7812C170.383 40.4141 170.914 40.125 171.531 39.9141C172.156 39.6953 172.852 39.5859 173.617 39.5859C174.539 39.5859 175.352 39.7422 176.055 40.0547C176.766 40.3672 177.32 40.8398 177.719 41.4727C178.125 42.0977 178.328 42.8828 178.328 43.8281V49.7344C178.328 50.1562 178.363 50.6055 178.434 51.082C178.512 51.5586 178.625 51.9688 178.773 52.3125V52.5H176.512C176.402 52.25 176.316 51.918 176.254 51.5039C176.191 51.082 176.16 50.6914 176.16 50.332ZM176.535 44.8125L176.559 46.3359H174.367C173.75 46.3359 173.199 46.3867 172.715 46.4883C172.23 46.582 171.824 46.7266 171.496 46.9219C171.168 47.1172 170.918 47.3633 170.746 47.6602C170.574 47.9492 170.488 48.2891 170.488 48.6797C170.488 49.0781 170.578 49.4414 170.758 49.7695C170.938 50.0977 171.207 50.3594 171.566 50.5547C171.934 50.7422 172.383 50.8359 172.914 50.8359C173.578 50.8359 174.164 50.6953 174.672 50.4141C175.18 50.1328 175.582 49.7891 175.879 49.3828C176.184 48.9766 176.348 48.582 176.371 48.1992L177.297 49.2422C177.242 49.5703 177.094 49.9336 176.852 50.332C176.609 50.7305 176.285 51.1133 175.879 51.4805C175.48 51.8398 175.004 52.1406 174.449 52.3828C173.902 52.6172 173.285 52.7344 172.598 52.7344C171.738 52.7344 170.984 52.5664 170.336 52.2305C169.695 51.8945 169.195 51.4453 168.836 50.8828C168.484 50.3125 168.309 49.6758 168.309 48.9727C168.309 48.293 168.441 47.6953 168.707 47.1797C168.973 46.6562 169.355 46.2227 169.855 45.8789C170.355 45.5273 170.957 45.2617 171.66 45.082C172.363 44.9023 173.148 44.8125 174.016 44.8125H176.535ZM184.094 39.8203V52.5H181.926V39.8203H184.094ZM192.414 39.8203L186.402 47.0859H183.367L183.039 45.1875H185.523L189.777 39.8203H192.414ZM190.082 52.5L185.418 46.7578L186.812 45.1875L192.836 52.5H190.082ZM199.891 39.8203V52.5H197.711V39.8203H199.891ZM204.145 39.8203V41.5781H193.539V39.8203H204.145ZM208.621 49.0664L214.469 39.8203H216.648V52.5H214.469V43.2539L208.621 52.5H206.465V39.8203H208.621V49.0664ZM226.082 46.9219H221.922L221.898 45.1875H225.297C225.969 45.1875 226.527 45.1211 226.973 44.9883C227.426 44.8555 227.766 44.6562 227.992 44.3906C228.219 44.125 228.332 43.7969 228.332 43.4062C228.332 43.1016 228.266 42.8359 228.133 42.6094C228.008 42.375 227.816 42.1836 227.559 42.0352C227.301 41.8789 226.98 41.7656 226.598 41.6953C226.223 41.6172 225.781 41.5781 225.273 41.5781H222.496V52.5H220.328V39.8203H225.273C226.078 39.8203 226.801 39.8906 227.441 40.0312C228.09 40.1719 228.641 40.3867 229.094 40.6758C229.555 40.957 229.906 41.3164 230.148 41.7539C230.391 42.1914 230.512 42.707 230.512 43.3008C230.512 43.6836 230.434 44.0469 230.277 44.3906C230.121 44.7344 229.891 45.0391 229.586 45.3047C229.281 45.5703 228.906 45.7891 228.461 45.9609C228.016 46.125 227.504 46.2305 226.926 46.2773L226.082 46.9219ZM226.082 52.5H221.137L222.215 50.7422H226.082C226.684 50.7422 227.184 50.668 227.582 50.5195C227.98 50.3633 228.277 50.1445 228.473 49.8633C228.676 49.5742 228.777 49.2305 228.777 48.832C228.777 48.4336 228.676 48.0938 228.473 47.8125C228.277 47.5234 227.98 47.3047 227.582 47.1562C227.184 47 226.684 46.9219 226.082 46.9219H222.789L222.812 45.1875H226.926L227.711 45.8438C228.406 45.8984 228.996 46.0703 229.48 46.3594C229.965 46.6484 230.332 47.0156 230.582 47.4609C230.832 47.8984 230.957 48.375 230.957 48.8906C230.957 49.4844 230.844 50.0078 230.617 50.4609C230.398 50.9141 230.078 51.293 229.656 51.5977C229.234 51.8945 228.723 52.1211 228.121 52.2773C227.52 52.4258 226.84 52.5 226.082 52.5ZM242.465 45.3164V47.0742H235.762V45.3164H242.465ZM236.219 39.8203V52.5H234.051V39.8203H236.219ZM244.223 39.8203V52.5H242.043V39.8203H244.223ZM247.141 46.3008V46.0312C247.141 45.1172 247.273 44.2695 247.539 43.4883C247.805 42.6992 248.188 42.0156 248.688 41.4375C249.188 40.8516 249.793 40.3984 250.504 40.0781C251.215 39.75 252.012 39.5859 252.895 39.5859C253.785 39.5859 254.586 39.75 255.297 40.0781C256.016 40.3984 256.625 40.8516 257.125 41.4375C257.633 42.0156 258.02 42.6992 258.285 43.4883C258.551 44.2695 258.684 45.1172 258.684 46.0312V46.3008C258.684 47.2148 258.551 48.0625 258.285 48.8438C258.02 49.625 257.633 50.3086 257.125 50.8945C256.625 51.4727 256.02 51.9258 255.309 52.2539C254.605 52.5742 253.809 52.7344 252.918 52.7344C252.027 52.7344 251.227 52.5742 250.516 52.2539C249.805 51.9258 249.195 51.4727 248.688 50.8945C248.188 50.3086 247.805 49.625 247.539 48.8438C247.273 48.0625 247.141 47.2148 247.141 46.3008ZM249.309 46.0312V46.3008C249.309 46.9336 249.383 47.5312 249.531 48.0938C249.68 48.6484 249.902 49.1406 250.199 49.5703C250.504 50 250.883 50.3398 251.336 50.5898C251.789 50.832 252.316 50.9531 252.918 50.9531C253.512 50.9531 254.031 50.832 254.477 50.5898C254.93 50.3398 255.305 50 255.602 49.5703C255.898 49.1406 256.121 48.6484 256.27 48.0938C256.426 47.5312 256.504 46.9336 256.504 46.3008V46.0312C256.504 45.4062 256.426 44.8164 256.27 44.2617C256.121 43.6992 255.895 43.2031 255.59 42.7734C255.293 42.3359 254.918 41.9922 254.465 41.7422C254.02 41.4922 253.496 41.3672 252.895 41.3672C252.301 41.3672 251.777 41.4922 251.324 41.7422C250.879 41.9922 250.504 42.3359 250.199 42.7734C249.902 43.2031 249.68 43.6992 249.531 44.2617C249.383 44.8164 249.309 45.4062 249.309 46.0312ZM266.477 50.9531C266.992 50.9531 267.469 50.8477 267.906 50.6367C268.344 50.4258 268.703 50.1367 268.984 49.7695C269.266 49.3945 269.426 48.9688 269.465 48.4922H271.527C271.488 49.2422 271.234 49.9414 270.766 50.5898C270.305 51.2305 269.699 51.75 268.949 52.1484C268.199 52.5391 267.375 52.7344 266.477 52.7344C265.523 52.7344 264.691 52.5664 263.98 52.2305C263.277 51.8945 262.691 51.4336 262.223 50.8477C261.762 50.2617 261.414 49.5898 261.18 48.832C260.953 48.0664 260.84 47.2578 260.84 46.4062V45.9141C260.84 45.0625 260.953 44.2578 261.18 43.5C261.414 42.7344 261.762 42.0586 262.223 41.4727C262.691 40.8867 263.277 40.4258 263.98 40.0898C264.691 39.7539 265.523 39.5859 266.477 39.5859C267.469 39.5859 268.336 39.7891 269.078 40.1953C269.82 40.5938 270.402 41.1406 270.824 41.8359C271.254 42.5234 271.488 43.3047 271.527 44.1797H269.465C269.426 43.6562 269.277 43.1836 269.02 42.7617C268.77 42.3398 268.426 42.0039 267.988 41.7539C267.559 41.4961 267.055 41.3672 266.477 41.3672C265.812 41.3672 265.254 41.5 264.801 41.7656C264.355 42.0234 264 42.375 263.734 42.8203C263.477 43.2578 263.289 43.7461 263.172 44.2852C263.062 44.8164 263.008 45.3594 263.008 45.9141V46.4062C263.008 46.9609 263.062 47.5078 263.172 48.0469C263.281 48.5859 263.465 49.0742 263.723 49.5117C263.988 49.9492 264.344 50.3008 264.789 50.5664C265.242 50.8242 265.805 50.9531 266.477 50.9531ZM279.133 39.8203V52.5H276.953V39.8203H279.133ZM283.387 39.8203V41.5781H272.781V39.8203H283.387ZM287.301 44.1797H291.109C292.133 44.1797 292.996 44.3594 293.699 44.7188C294.402 45.0703 294.934 45.5586 295.293 46.1836C295.66 46.8008 295.844 47.5039 295.844 48.293C295.844 48.8789 295.742 49.4297 295.539 49.9453C295.336 50.4531 295.031 50.8984 294.625 51.2812C294.227 51.6641 293.73 51.9648 293.137 52.1836C292.551 52.3945 291.875 52.5 291.109 52.5H285.719V39.8203H287.887V50.7188H291.109C291.734 50.7188 292.234 50.6055 292.609 50.3789C292.984 50.1523 293.254 49.8594 293.418 49.5C293.582 49.1406 293.664 48.7656 293.664 48.375C293.664 47.9922 293.582 47.6172 293.418 47.25C293.254 46.8828 292.984 46.5781 292.609 46.3359C292.234 46.0859 291.734 45.9609 291.109 45.9609H287.301V44.1797ZM300.52 49.9219V51.668C300.52 52.3789 300.34 53.1289 299.98 53.918C299.621 54.7148 299.117 55.3789 298.469 55.9102L297.238 55.0547C297.488 54.7109 297.699 54.3594 297.871 54C298.043 53.6484 298.172 53.2812 298.258 52.8984C298.352 52.5234 298.398 52.125 298.398 51.7031V49.9219H300.52ZM98.1016 65.8203V67.6133H91.6914V65.8203H98.1016ZM92.0078 65.8203V78.5H89.8398V65.8203H92.0078ZM100.023 65.8203V78.5H97.8438V65.8203H100.023ZM102.93 72.3008V72.0312C102.93 71.1172 103.062 70.2695 103.328 69.4883C103.594 68.6992 103.977 68.0156 104.477 67.4375C104.977 66.8516 105.582 66.3984 106.293 66.0781C107.004 65.75 107.801 65.5859 108.684 65.5859C109.574 65.5859 110.375 65.75 111.086 66.0781C111.805 66.3984 112.414 66.8516 112.914 67.4375C113.422 68.0156 113.809 68.6992 114.074 69.4883C114.34 70.2695 114.473 71.1172 114.473 72.0312V72.3008C114.473 73.2148 114.34 74.0625 114.074 74.8438C113.809 75.625 113.422 76.3086 112.914 76.8945C112.414 77.4727 111.809 77.9258 111.098 78.2539C110.395 78.5742 109.598 78.7344 108.707 78.7344C107.816 78.7344 107.016 78.5742 106.305 78.2539C105.594 77.9258 104.984 77.4727 104.477 76.8945C103.977 76.3086 103.594 75.625 103.328 74.8438C103.062 74.0625 102.93 73.2148 102.93 72.3008ZM105.098 72.0312V72.3008C105.098 72.9336 105.172 73.5312 105.32 74.0938C105.469 74.6484 105.691 75.1406 105.988 75.5703C106.293 76 106.672 76.3398 107.125 76.5898C107.578 76.832 108.105 76.9531 108.707 76.9531C109.301 76.9531 109.82 76.832 110.266 76.5898C110.719 76.3398 111.094 76 111.391 75.5703C111.688 75.1406 111.91 74.6484 112.059 74.0938C112.215 73.5312 112.293 72.9336 112.293 72.3008V72.0312C112.293 71.4062 112.215 70.8164 112.059 70.2617C111.91 69.6992 111.684 69.2031 111.379 68.7734C111.082 68.3359 110.707 67.9922 110.254 67.7422C109.809 67.4922 109.285 67.3672 108.684 67.3672C108.09 67.3672 107.566 67.4922 107.113 67.7422C106.668 67.9922 106.293 68.3359 105.988 68.7734C105.691 69.2031 105.469 69.6992 105.32 70.2617C105.172 70.8164 105.098 71.4062 105.098 72.0312ZM125.477 65.8203V67.6133H119.348V65.8203H125.477ZM127.387 65.8203V78.5H125.219V65.8203H127.387ZM118.82 65.8203H121L120.672 71.9375C120.617 72.8828 120.527 73.7188 120.402 74.4453C120.285 75.1641 120.121 75.7812 119.91 76.2969C119.707 76.8125 119.449 77.2344 119.137 77.5625C118.832 77.8828 118.465 78.1211 118.035 78.2773C117.605 78.4258 117.109 78.5 116.547 78.5H115.867V76.5898L116.336 76.5547C116.672 76.5312 116.957 76.4531 117.191 76.3203C117.434 76.1875 117.637 75.9922 117.801 75.7344C117.965 75.4688 118.098 75.1289 118.199 74.7148C118.309 74.3008 118.391 73.8086 118.445 73.2383C118.508 72.668 118.555 72.0039 118.586 71.2461L118.82 65.8203ZM136.141 78.7344C135.258 78.7344 134.457 78.5859 133.738 78.2891C133.027 77.9844 132.414 77.5586 131.898 77.0117C131.391 76.4648 131 75.8164 130.727 75.0664C130.453 74.3164 130.316 73.4961 130.316 72.6055V72.1133C130.316 71.082 130.469 70.1641 130.773 69.3594C131.078 68.5469 131.492 67.8594 132.016 67.2969C132.539 66.7344 133.133 66.3086 133.797 66.0195C134.461 65.7305 135.148 65.5859 135.859 65.5859C136.766 65.5859 137.547 65.7422 138.203 66.0547C138.867 66.3672 139.41 66.8047 139.832 67.3672C140.254 67.9219 140.566 68.5781 140.77 69.3359C140.973 70.0859 141.074 70.9062 141.074 71.7969V72.7695H131.605V71H138.906V70.8359C138.875 70.2734 138.758 69.7266 138.555 69.1953C138.359 68.6641 138.047 68.2266 137.617 67.8828C137.188 67.5391 136.602 67.3672 135.859 67.3672C135.367 67.3672 134.914 67.4727 134.5 67.6836C134.086 67.8867 133.73 68.1914 133.434 68.5977C133.137 69.0039 132.906 69.5 132.742 70.0859C132.578 70.6719 132.496 71.3477 132.496 72.1133V72.6055C132.496 73.207 132.578 73.7734 132.742 74.3047C132.914 74.8281 133.16 75.2891 133.48 75.6875C133.809 76.0859 134.203 76.3984 134.664 76.625C135.133 76.8516 135.664 76.9648 136.258 76.9648C137.023 76.9648 137.672 76.8086 138.203 76.4961C138.734 76.1836 139.199 75.7656 139.598 75.2422L140.91 76.2852C140.637 76.6992 140.289 77.0938 139.867 77.4688C139.445 77.8438 138.926 78.1484 138.309 78.3828C137.699 78.6172 136.977 78.7344 136.141 78.7344ZM148.34 72.4414H146.008V71.1055H148.164C148.766 71.1055 149.242 71.0312 149.594 70.8828C149.945 70.7266 150.195 70.5117 150.344 70.2383C150.492 69.9648 150.566 69.6445 150.566 69.2773C150.566 68.9492 150.48 68.6406 150.309 68.3516C150.145 68.0547 149.879 67.8164 149.512 67.6367C149.145 67.4492 148.652 67.3555 148.035 67.3555C147.535 67.3555 147.082 67.4453 146.676 67.625C146.27 67.7969 145.945 68.0352 145.703 68.3398C145.469 68.6367 145.352 68.9727 145.352 69.3477H143.184C143.184 68.5742 143.402 67.9102 143.84 67.3555C144.285 66.793 144.875 66.3594 145.609 66.0547C146.352 65.75 147.16 65.5977 148.035 65.5977C148.77 65.5977 149.426 65.6797 150.004 65.8438C150.59 66 151.086 66.2344 151.492 66.5469C151.898 66.8516 152.207 67.2344 152.418 67.6953C152.637 68.1484 152.746 68.6758 152.746 69.2773C152.746 69.707 152.645 70.1133 152.441 70.4961C152.238 70.8789 151.945 71.2188 151.562 71.5156C151.18 71.8047 150.715 72.0312 150.168 72.1953C149.629 72.3594 149.02 72.4414 148.34 72.4414ZM146.008 71.6211H148.34C149.098 71.6211 149.766 71.6953 150.344 71.8438C150.922 71.9844 151.406 72.1953 151.797 72.4766C152.188 72.7578 152.48 73.1055 152.676 73.5195C152.879 73.9258 152.98 74.3945 152.98 74.9258C152.98 75.5195 152.859 76.0547 152.617 76.5312C152.383 77 152.047 77.3984 151.609 77.7266C151.172 78.0547 150.648 78.3047 150.039 78.4766C149.438 78.6484 148.77 78.7344 148.035 78.7344C147.215 78.7344 146.418 78.5938 145.645 78.3125C144.871 78.0312 144.234 77.5977 143.734 77.0117C143.234 76.418 142.984 75.6641 142.984 74.75H145.152C145.152 75.1328 145.273 75.4961 145.516 75.8398C145.758 76.1836 146.094 76.4609 146.523 76.6719C146.961 76.8828 147.465 76.9883 148.035 76.9883C148.645 76.9883 149.152 76.8945 149.559 76.707C149.965 76.5195 150.27 76.2695 150.473 75.957C150.684 75.6445 150.789 75.3047 150.789 74.9375C150.789 74.4609 150.695 74.0781 150.508 73.7891C150.32 73.5 150.031 73.2891 149.641 73.1562C149.258 73.0156 148.766 72.9453 148.164 72.9453H146.008V71.6211ZM164.395 71.3164V73.0742H157.691V71.3164H164.395ZM158.148 65.8203V78.5H155.98V65.8203H158.148ZM166.152 65.8203V78.5H163.973V65.8203H166.152ZM173.207 77.1875L176.734 65.8203H179.055L173.969 80.457C173.852 80.7695 173.695 81.1055 173.5 81.4648C173.312 81.832 173.07 82.1797 172.773 82.5078C172.477 82.8359 172.117 83.1016 171.695 83.3047C171.281 83.5156 170.785 83.6211 170.207 83.6211C170.035 83.6211 169.816 83.5977 169.551 83.5508C169.285 83.5039 169.098 83.4648 168.988 83.4336L168.977 81.6758C169.039 81.6836 169.137 81.6914 169.27 81.6992C169.41 81.7148 169.508 81.7227 169.562 81.7227C170.055 81.7227 170.473 81.6562 170.816 81.5234C171.16 81.3984 171.449 81.1836 171.684 80.8789C171.926 80.582 172.133 80.1719 172.305 79.6484L173.207 77.1875ZM170.617 65.8203L173.91 75.6641L174.473 77.9492L172.914 78.7461L168.25 65.8203H170.617ZM188.23 71.1992V72.9688H181.492V71.1992H188.23ZM183.379 65.8203V78.5H181.211V65.8203H183.379ZM186.379 72.3008V72.0312C186.379 71.1172 186.512 70.2695 186.777 69.4883C187.043 68.6992 187.426 68.0156 187.926 67.4375C188.434 66.8516 189.039 66.3984 189.742 66.0781C190.453 65.75 191.25 65.5859 192.133 65.5859C193.031 65.5859 193.836 65.75 194.547 66.0781C195.258 66.3984 195.863 66.8516 196.363 67.4375C196.871 68.0156 197.258 68.6992 197.523 69.4883C197.789 70.2695 197.922 71.1172 197.922 72.0312V72.3008C197.922 73.2148 197.789 74.0625 197.523 74.8438C197.258 75.625 196.875 76.3086 196.375 76.8945C195.875 77.4727 195.27 77.9258 194.559 78.2539C193.848 78.5742 193.047 78.7344 192.156 78.7344C191.266 78.7344 190.465 78.5742 189.754 78.2539C189.043 77.9258 188.434 77.4727 187.926 76.8945C187.426 76.3086 187.043 75.625 186.777 74.8438C186.512 74.0625 186.379 73.2148 186.379 72.3008ZM188.559 72.0312V72.3008C188.559 72.9336 188.633 73.5312 188.781 74.0938C188.93 74.6484 189.152 75.1406 189.449 75.5703C189.754 76 190.129 76.3398 190.574 76.5898C191.027 76.832 191.555 76.9531 192.156 76.9531C192.758 76.9531 193.281 76.832 193.727 76.5898C194.18 76.3398 194.555 76 194.852 75.5703C195.148 75.1406 195.371 74.6484 195.52 74.0938C195.676 73.5312 195.754 72.9336 195.754 72.3008V72.0312C195.754 71.4062 195.676 70.8164 195.52 70.2617C195.371 69.6992 195.145 69.2031 194.84 68.7734C194.543 68.3359 194.168 67.9922 193.715 67.7422C193.262 67.4922 192.734 67.3672 192.133 67.3672C191.539 67.3672 191.02 67.4922 190.574 67.7422C190.129 67.9922 189.754 68.3359 189.449 68.7734C189.152 69.2031 188.93 69.6992 188.781 70.2617C188.633 70.8164 188.559 71.4062 188.559 72.0312ZM208.844 65.8203H211.012L210.824 70.5664C210.777 71.7695 210.641 72.8086 210.414 73.6836C210.188 74.5586 209.898 75.3047 209.547 75.9219C209.195 76.5312 208.801 77.043 208.363 77.457C207.934 77.8711 207.488 78.2188 207.027 78.5H205.949L206.008 76.7305L206.453 76.7188C206.711 76.4141 206.961 76.1016 207.203 75.7812C207.445 75.4531 207.668 75.0664 207.871 74.6211C208.074 74.168 208.242 73.6172 208.375 72.9688C208.516 72.3125 208.605 71.5117 208.645 70.5664L208.844 65.8203ZM209.383 65.8203H217.012V78.5H214.844V67.8242H209.383V65.8203ZM205.457 76.7188H218.641V82.2383H216.473V78.5H207.625V82.2383H205.445L205.457 76.7188ZM229.516 65.8203V67.6133H223.387V65.8203H229.516ZM231.426 65.8203V78.5H229.258V65.8203H231.426ZM222.859 65.8203H225.039L224.711 71.9375C224.656 72.8828 224.566 73.7188 224.441 74.4453C224.324 75.1641 224.16 75.7812 223.949 76.2969C223.746 76.8125 223.488 77.2344 223.176 77.5625C222.871 77.8828 222.504 78.1211 222.074 78.2773C221.645 78.4258 221.148 78.5 220.586 78.5H219.906V76.5898L220.375 76.5547C220.711 76.5312 220.996 76.4531 221.23 76.3203C221.473 76.1875 221.676 75.9922 221.84 75.7344C222.004 75.4688 222.137 75.1289 222.238 74.7148C222.348 74.3008 222.43 73.8086 222.484 73.2383C222.547 72.668 222.594 72.0039 222.625 71.2461L222.859 65.8203ZM237.484 72.4531H239.828L236.16 78.5H233.816L237.484 72.4531ZM239.301 65.8203H244.598V78.5H242.43V67.5781H239.301C238.684 67.5781 238.18 67.6836 237.789 67.8945C237.398 68.0977 237.113 68.3633 236.934 68.6914C236.754 69.0195 236.664 69.3594 236.664 69.7109C236.664 70.0547 236.746 70.3867 236.91 70.707C237.074 71.0195 237.332 71.2773 237.684 71.4805C238.035 71.6836 238.488 71.7852 239.043 71.7852H243.016V73.5664H239.043C238.316 73.5664 237.672 73.4688 237.109 73.2734C236.547 73.0781 236.07 72.8086 235.68 72.4648C235.289 72.1133 234.992 71.7031 234.789 71.2344C234.586 70.7578 234.484 70.2422 234.484 69.6875C234.484 69.1328 234.59 68.6211 234.801 68.1523C235.02 67.6836 235.332 67.2734 235.738 66.9219C236.152 66.5703 236.656 66.3008 237.25 66.1133C237.852 65.918 238.535 65.8203 239.301 65.8203ZM259.211 65.8203V78.5H257.031V65.8203H259.211ZM263.465 65.8203V67.5781H252.859V65.8203H263.465ZM269.922 78.7344C269.039 78.7344 268.238 78.5859 267.52 78.2891C266.809 77.9844 266.195 77.5586 265.68 77.0117C265.172 76.4648 264.781 75.8164 264.508 75.0664C264.234 74.3164 264.098 73.4961 264.098 72.6055V72.1133C264.098 71.082 264.25 70.1641 264.555 69.3594C264.859 68.5469 265.273 67.8594 265.797 67.2969C266.32 66.7344 266.914 66.3086 267.578 66.0195C268.242 65.7305 268.93 65.5859 269.641 65.5859C270.547 65.5859 271.328 65.7422 271.984 66.0547C272.648 66.3672 273.191 66.8047 273.613 67.3672C274.035 67.9219 274.348 68.5781 274.551 69.3359C274.754 70.0859 274.855 70.9062 274.855 71.7969V72.7695H265.387V71H272.688V70.8359C272.656 70.2734 272.539 69.7266 272.336 69.1953C272.141 68.6641 271.828 68.2266 271.398 67.8828C270.969 67.5391 270.383 67.3672 269.641 67.3672C269.148 67.3672 268.695 67.4727 268.281 67.6836C267.867 67.8867 267.512 68.1914 267.215 68.5977C266.918 69.0039 266.688 69.5 266.523 70.0859C266.359 70.6719 266.277 71.3477 266.277 72.1133V72.6055C266.277 73.207 266.359 73.7734 266.523 74.3047C266.695 74.8281 266.941 75.2891 267.262 75.6875C267.59 76.0859 267.984 76.3984 268.445 76.625C268.914 76.8516 269.445 76.9648 270.039 76.9648C270.805 76.9648 271.453 76.8086 271.984 76.4961C272.516 76.1836 272.98 75.7656 273.379 75.2422L274.691 76.2852C274.418 76.6992 274.07 77.0938 273.648 77.4688C273.227 77.8438 272.707 78.1484 272.09 78.3828C271.48 78.6172 270.758 78.7344 269.922 78.7344ZM285.859 65.8203V67.6133H279.73V65.8203H285.859ZM287.77 65.8203V78.5H285.602V65.8203H287.77ZM279.203 65.8203H281.383L281.055 71.9375C281 72.8828 280.91 73.7188 280.785 74.4453C280.668 75.1641 280.504 75.7812 280.293 76.2969C280.09 76.8125 279.832 77.2344 279.52 77.5625C279.215 77.8828 278.848 78.1211 278.418 78.2773C277.988 78.4258 277.492 78.5 276.93 78.5H276.25V76.5898L276.719 76.5547C277.055 76.5312 277.34 76.4531 277.574 76.3203C277.816 76.1875 278.02 75.9922 278.184 75.7344C278.348 75.4688 278.48 75.1289 278.582 74.7148C278.691 74.3008 278.773 73.8086 278.828 73.2383C278.891 72.668 278.938 72.0039 278.969 71.2461L279.203 65.8203ZM298.738 76.332V69.8047C298.738 69.3047 298.637 68.8711 298.434 68.5039C298.238 68.1289 297.941 67.8398 297.543 67.6367C297.145 67.4336 296.652 67.332 296.066 67.332C295.52 67.332 295.039 67.4258 294.625 67.6133C294.219 67.8008 293.898 68.0469 293.664 68.3516C293.438 68.6562 293.324 68.9844 293.324 69.3359H291.156C291.156 68.8828 291.273 68.4336 291.508 67.9883C291.742 67.543 292.078 67.1406 292.516 66.7812C292.961 66.4141 293.492 66.125 294.109 65.9141C294.734 65.6953 295.43 65.5859 296.195 65.5859C297.117 65.5859 297.93 65.7422 298.633 66.0547C299.344 66.3672 299.898 66.8398 300.297 67.4727C300.703 68.0977 300.906 68.8828 300.906 69.8281V75.7344C300.906 76.1562 300.941 76.6055 301.012 77.082C301.09 77.5586 301.203 77.9688 301.352 78.3125V78.5H299.09C298.98 78.25 298.895 77.918 298.832 77.5039C298.77 77.082 298.738 76.6914 298.738 76.332ZM299.113 70.8125L299.137 72.3359H296.945C296.328 72.3359 295.777 72.3867 295.293 72.4883C294.809 72.582 294.402 72.7266 294.074 72.9219C293.746 73.1172 293.496 73.3633 293.324 73.6602C293.152 73.9492 293.066 74.2891 293.066 74.6797C293.066 75.0781 293.156 75.4414 293.336 75.7695C293.516 76.0977 293.785 76.3594 294.145 76.5547C294.512 76.7422 294.961 76.8359 295.492 76.8359C296.156 76.8359 296.742 76.6953 297.25 76.4141C297.758 76.1328 298.16 75.7891 298.457 75.3828C298.762 74.9766 298.926 74.582 298.949 74.1992L299.875 75.2422C299.82 75.5703 299.672 75.9336 299.43 76.332C299.188 76.7305 298.863 77.1133 298.457 77.4805C298.059 77.8398 297.582 78.1406 297.027 78.3828C296.48 78.6172 295.863 78.7344 295.176 78.7344C294.316 78.7344 293.562 78.5664 292.914 78.2305C292.273 77.8945 291.773 77.4453 291.414 76.8828C291.062 76.3125 290.887 75.6758 290.887 74.9727C290.887 74.293 291.02 73.6953 291.285 73.1797C291.551 72.6562 291.934 72.2227 292.434 71.8789C292.934 71.5273 293.535 71.2617 294.238 71.082C294.941 70.9023 295.727 70.8125 296.594 70.8125H299.113ZM91.9961 101.066L97.8438 91.8203H100.023V104.5H97.8438V95.2539L91.9961 104.5H89.8398V91.8203H91.9961V101.066ZM111.742 91.8203H113.91L113.723 96.5664C113.676 97.7695 113.539 98.8086 113.312 99.6836C113.086 100.559 112.797 101.305 112.445 101.922C112.094 102.531 111.699 103.043 111.262 103.457C110.832 103.871 110.387 104.219 109.926 104.5H108.848L108.906 102.73L109.352 102.719C109.609 102.414 109.859 102.102 110.102 101.781C110.344 101.453 110.566 101.066 110.77 100.621C110.973 100.168 111.141 99.6172 111.273 98.9688C111.414 98.3125 111.504 97.5117 111.543 96.5664L111.742 91.8203ZM112.281 91.8203H119.91V104.5H117.742V93.8242H112.281V91.8203ZM108.355 102.719H121.539V108.238H119.371V104.5H110.523V108.238H108.344L108.355 102.719ZM127.504 103.188L131.031 91.8203H133.352L128.266 106.457C128.148 106.77 127.992 107.105 127.797 107.465C127.609 107.832 127.367 108.18 127.07 108.508C126.773 108.836 126.414 109.102 125.992 109.305C125.578 109.516 125.082 109.621 124.504 109.621C124.332 109.621 124.113 109.598 123.848 109.551C123.582 109.504 123.395 109.465 123.285 109.434L123.273 107.676C123.336 107.684 123.434 107.691 123.566 107.699C123.707 107.715 123.805 107.723 123.859 107.723C124.352 107.723 124.77 107.656 125.113 107.523C125.457 107.398 125.746 107.184 125.98 106.879C126.223 106.582 126.43 106.172 126.602 105.648L127.504 103.188ZM124.914 91.8203L128.207 101.664L128.77 103.949L127.211 104.746L122.547 91.8203H124.914ZM135.496 91.8203H137.664V102.719H142.305V91.8203H144.484V102.719H149.113V91.8203H151.281V104.5H135.496V91.8203ZM157.082 101.066L162.93 91.8203H165.109V104.5H162.93V95.2539L157.082 104.5H154.926V91.8203H157.082V101.066Z" fill="white"/>
<defs>
<linearGradient id="paint0_linear_29_1259" x1="142.859" y1="23.9392" x2="264.281" y2="160.155" gradientUnits="userSpaceOnUse">
<stop stop-color="#151720"/>
<stop offset="1" stop-color="#1E212E"/>
</linearGradient>
</defs>
</svg>
