<svg width="431" height="141" viewBox="0 0 431 141" fill="none" xmlns="http://www.w3.org/2000/svg">
<rect width="431" height="141" rx="28" fill="url(#paint0_linear_29_1253)"/>
<path d="M59.7705 88.9688V96H24.0283V89.9575L41.3867 71.0244C43.291 68.876 44.7925 67.0205 45.8911 65.458C46.9897 63.8955 47.7588 62.4917 48.1982 61.2466C48.6621 59.9771 48.894 58.7441 48.894 57.5479C48.894 55.8633 48.5767 54.3862 47.9419 53.1167C47.3315 51.8228 46.4282 50.8096 45.2319 50.0771C44.0356 49.3203 42.583 48.9419 40.874 48.9419C38.8965 48.9419 37.2363 49.3691 35.8936 50.2236C34.5508 51.0781 33.5376 52.2622 32.854 53.7759C32.1704 55.2651 31.8286 56.9741 31.8286 58.9028H23.0029C23.0029 55.8022 23.7109 52.9702 25.127 50.4067C26.543 47.8188 28.5938 45.7681 31.2793 44.2544C33.9648 42.7163 37.1997 41.9473 40.9839 41.9473C44.5483 41.9473 47.5757 42.5454 50.0659 43.7417C52.5562 44.938 54.4482 46.6348 55.7422 48.832C57.0605 51.0293 57.7197 53.6294 57.7197 56.6323C57.7197 58.2925 57.4512 59.9404 56.9141 61.5762C56.377 63.2119 55.6079 64.8477 54.6069 66.4834C53.6304 68.0947 52.4707 69.7183 51.1279 71.354C49.7852 72.9653 48.3081 74.6011 46.6968 76.2612L35.1611 88.9688H59.7705Z" fill="#BCEC30"/>
<path d="M91.4453 35.4375L95.5469 41.9766L99.6484 35.4375H102.285L96.8945 43.8867L102.414 52.5H99.7539L95.5469 45.832L91.3398 52.5H88.6797L94.1992 43.8867L88.8086 35.4375H91.4453ZM103.867 46.3008V46.0312C103.867 45.1172 104 44.2695 104.266 43.4883C104.531 42.6992 104.914 42.0156 105.414 41.4375C105.914 40.8516 106.52 40.3984 107.23 40.0781C107.941 39.75 108.738 39.5859 109.621 39.5859C110.512 39.5859 111.312 39.75 112.023 40.0781C112.742 40.3984 113.352 40.8516 113.852 41.4375C114.359 42.0156 114.746 42.6992 115.012 43.4883C115.277 44.2695 115.41 45.1172 115.41 46.0312V46.3008C115.41 47.2148 115.277 48.0625 115.012 48.8438C114.746 49.625 114.359 50.3086 113.852 50.8945C113.352 51.4727 112.746 51.9258 112.035 52.2539C111.332 52.5742 110.535 52.7344 109.645 52.7344C108.754 52.7344 107.953 52.5742 107.242 52.2539C106.531 51.9258 105.922 51.4727 105.414 50.8945C104.914 50.3086 104.531 49.625 104.266 48.8438C104 48.0625 103.867 47.2148 103.867 46.3008ZM106.035 46.0312V46.3008C106.035 46.9336 106.109 47.5312 106.258 48.0938C106.406 48.6484 106.629 49.1406 106.926 49.5703C107.23 50 107.609 50.3398 108.062 50.5898C108.516 50.832 109.043 50.9531 109.645 50.9531C110.238 50.9531 110.758 50.832 111.203 50.5898C111.656 50.3398 112.031 50 112.328 49.5703C112.625 49.1406 112.848 48.6484 112.996 48.0938C113.152 47.5312 113.23 46.9336 113.23 46.3008V46.0312C113.23 45.4062 113.152 44.8164 112.996 44.2617C112.848 43.6992 112.621 43.2031 112.316 42.7734C112.02 42.3359 111.645 41.9922 111.191 41.7422C110.746 41.4922 110.223 41.3672 109.621 41.3672C109.027 41.3672 108.504 41.4922 108.051 41.7422C107.605 41.9922 107.23 42.3359 106.926 42.7734C106.629 43.2031 106.406 43.6992 106.258 44.2617C106.109 44.8164 106.035 45.4062 106.035 46.0312ZM123.039 39.8203V52.5H120.859V39.8203H123.039ZM127.293 39.8203V41.5781H116.688V39.8203H127.293ZM131.77 49.0664L137.617 39.8203H139.797V52.5H137.617V43.2539L131.77 52.5H129.613V39.8203H131.77V49.0664ZM148.445 39.8203V52.5H146.266V39.8203H148.445ZM152.699 39.8203V41.5781H142.094V39.8203H152.699ZM159.156 52.7344C158.273 52.7344 157.473 52.5859 156.754 52.2891C156.043 51.9844 155.43 51.5586 154.914 51.0117C154.406 50.4648 154.016 49.8164 153.742 49.0664C153.469 48.3164 153.332 47.4961 153.332 46.6055V46.1133C153.332 45.082 153.484 44.1641 153.789 43.3594C154.094 42.5469 154.508 41.8594 155.031 41.2969C155.555 40.7344 156.148 40.3086 156.812 40.0195C157.477 39.7305 158.164 39.5859 158.875 39.5859C159.781 39.5859 160.562 39.7422 161.219 40.0547C161.883 40.3672 162.426 40.8047 162.848 41.3672C163.27 41.9219 163.582 42.5781 163.785 43.3359C163.988 44.0859 164.09 44.9062 164.09 45.7969V46.7695H154.621V45H161.922V44.8359C161.891 44.2734 161.773 43.7266 161.57 43.1953C161.375 42.6641 161.062 42.2266 160.633 41.8828C160.203 41.5391 159.617 41.3672 158.875 41.3672C158.383 41.3672 157.93 41.4727 157.516 41.6836C157.102 41.8867 156.746 42.1914 156.449 42.5977C156.152 43.0039 155.922 43.5 155.758 44.0859C155.594 44.6719 155.512 45.3477 155.512 46.1133V46.6055C155.512 47.207 155.594 47.7734 155.758 48.3047C155.93 48.8281 156.176 49.2891 156.496 49.6875C156.824 50.0859 157.219 50.3984 157.68 50.625C158.148 50.8516 158.68 50.9648 159.273 50.9648C160.039 50.9648 160.688 50.8086 161.219 50.4961C161.75 50.1836 162.215 49.7656 162.613 49.2422L163.926 50.2852C163.652 50.6992 163.305 51.0938 162.883 51.4688C162.461 51.8438 161.941 52.1484 161.324 52.3828C160.715 52.6172 159.992 52.7344 159.156 52.7344ZM176.137 51.1875L179.664 39.8203H181.984L176.898 54.457C176.781 54.7695 176.625 55.1055 176.43 55.4648C176.242 55.832 176 56.1797 175.703 56.5078C175.406 56.8359 175.047 57.1016 174.625 57.3047C174.211 57.5156 173.715 57.6211 173.137 57.6211C172.965 57.6211 172.746 57.5977 172.48 57.5508C172.215 57.5039 172.027 57.4648 171.918 57.4336L171.906 55.6758C171.969 55.6836 172.066 55.6914 172.199 55.6992C172.34 55.7148 172.438 55.7227 172.492 55.7227C172.984 55.7227 173.402 55.6562 173.746 55.5234C174.09 55.3984 174.379 55.1836 174.613 54.8789C174.855 54.582 175.062 54.1719 175.234 53.6484L176.137 51.1875ZM173.547 39.8203L176.84 49.6641L177.402 51.9492L175.844 52.7461L171.18 39.8203H173.547ZM186.297 39.8203V52.5H184.129V39.8203H186.297ZM194.617 39.8203L188.605 47.0859H185.57L185.242 45.1875H187.727L191.98 39.8203H194.617ZM192.285 52.5L187.621 46.7578L189.016 45.1875L195.039 52.5H192.285ZM199.094 42.2578V57.375H196.914V39.8203H198.906L199.094 42.2578ZM207.637 46.0547V46.3008C207.637 47.2227 207.527 48.0781 207.309 48.8672C207.09 49.6484 206.77 50.3281 206.348 50.9062C205.934 51.4844 205.422 51.9336 204.812 52.2539C204.203 52.5742 203.504 52.7344 202.715 52.7344C201.91 52.7344 201.199 52.6016 200.582 52.3359C199.965 52.0703 199.441 51.6836 199.012 51.1758C198.582 50.668 198.238 50.0586 197.98 49.3477C197.73 48.6367 197.559 47.8359 197.465 46.9453V45.6328C197.559 44.6953 197.734 43.8555 197.992 43.1133C198.25 42.3711 198.59 41.7383 199.012 41.2148C199.441 40.6836 199.961 40.2812 200.57 40.0078C201.18 39.7266 201.883 39.5859 202.68 39.5859C203.477 39.5859 204.184 39.7422 204.801 40.0547C205.418 40.3594 205.938 40.7969 206.359 41.3672C206.781 41.9375 207.098 42.6211 207.309 43.418C207.527 44.207 207.637 45.0859 207.637 46.0547ZM205.457 46.3008V46.0547C205.457 45.4219 205.391 44.8281 205.258 44.2734C205.125 43.7109 204.918 43.2188 204.637 42.7969C204.363 42.3672 204.012 42.0312 203.582 41.7891C203.152 41.5391 202.641 41.4141 202.047 41.4141C201.5 41.4141 201.023 41.5078 200.617 41.6953C200.219 41.8828 199.879 42.1367 199.598 42.457C199.316 42.7695 199.086 43.1289 198.906 43.5352C198.734 43.9336 198.605 44.3477 198.52 44.7773V47.8125C198.676 48.3594 198.895 48.875 199.176 49.3594C199.457 49.8359 199.832 50.2227 200.301 50.5195C200.77 50.8086 201.359 50.9531 202.07 50.9531C202.656 50.9531 203.16 50.832 203.582 50.5898C204.012 50.3398 204.363 50 204.637 49.5703C204.918 49.1406 205.125 48.6484 205.258 48.0938C205.391 47.5312 205.457 46.9336 205.457 46.3008ZM215.664 52.7344C214.781 52.7344 213.98 52.5859 213.262 52.2891C212.551 51.9844 211.938 51.5586 211.422 51.0117C210.914 50.4648 210.523 49.8164 210.25 49.0664C209.977 48.3164 209.84 47.4961 209.84 46.6055V46.1133C209.84 45.082 209.992 44.1641 210.297 43.3594C210.602 42.5469 211.016 41.8594 211.539 41.2969C212.062 40.7344 212.656 40.3086 213.32 40.0195C213.984 39.7305 214.672 39.5859 215.383 39.5859C216.289 39.5859 217.07 39.7422 217.727 40.0547C218.391 40.3672 218.934 40.8047 219.355 41.3672C219.777 41.9219 220.09 42.5781 220.293 43.3359C220.496 44.0859 220.598 44.9062 220.598 45.7969V46.7695H211.129V45H218.43V44.8359C218.398 44.2734 218.281 43.7266 218.078 43.1953C217.883 42.6641 217.57 42.2266 217.141 41.8828C216.711 41.5391 216.125 41.3672 215.383 41.3672C214.891 41.3672 214.438 41.4727 214.023 41.6836C213.609 41.8867 213.254 42.1914 212.957 42.5977C212.66 43.0039 212.43 43.5 212.266 44.0859C212.102 44.6719 212.02 45.3477 212.02 46.1133V46.6055C212.02 47.207 212.102 47.7734 212.266 48.3047C212.438 48.8281 212.684 49.2891 213.004 49.6875C213.332 50.0859 213.727 50.3984 214.188 50.625C214.656 50.8516 215.188 50.9648 215.781 50.9648C216.547 50.9648 217.195 50.8086 217.727 50.4961C218.258 50.1836 218.723 49.7656 219.121 49.2422L220.434 50.2852C220.16 50.6992 219.812 51.0938 219.391 51.4688C218.969 51.8438 218.449 52.1484 217.832 52.3828C217.223 52.6172 216.5 52.7344 215.664 52.7344ZM231.578 39.8203V41.6133H225.168V39.8203H231.578ZM225.484 39.8203V52.5H223.316V39.8203H225.484ZM233.5 39.8203V52.5H231.32V39.8203H233.5ZM239.324 49.0664L245.172 39.8203H247.352V52.5H245.172V43.2539L239.324 52.5H237.168V39.8203H239.324V49.0664ZM256 39.8203V52.5H253.82V39.8203H256ZM260.254 39.8203V41.5781H249.648V39.8203H260.254ZM264.168 44.1797H267.977C269 44.1797 269.863 44.3594 270.566 44.7188C271.27 45.0703 271.801 45.5586 272.16 46.1836C272.527 46.8008 272.711 47.5039 272.711 48.293C272.711 48.8789 272.609 49.4297 272.406 49.9453C272.203 50.4531 271.898 50.8984 271.492 51.2812C271.094 51.6641 270.598 51.9648 270.004 52.1836C269.418 52.3945 268.742 52.5 267.977 52.5H262.586V39.8203H264.754V50.7188H267.977C268.602 50.7188 269.102 50.6055 269.477 50.3789C269.852 50.1523 270.121 49.8594 270.285 49.5C270.449 49.1406 270.531 48.7656 270.531 48.375C270.531 47.9922 270.449 47.6172 270.285 47.25C270.121 46.8828 269.852 46.5781 269.477 46.3359C269.102 46.0859 268.602 45.9609 267.977 45.9609H264.168V44.1797ZM98.1016 65.8203V67.6133H91.6914V65.8203H98.1016ZM92.0078 65.8203V78.5H89.8398V65.8203H92.0078ZM100.023 65.8203V78.5H97.8438V65.8203H100.023ZM102.93 72.3008V72.0312C102.93 71.1172 103.062 70.2695 103.328 69.4883C103.594 68.6992 103.977 68.0156 104.477 67.4375C104.977 66.8516 105.582 66.3984 106.293 66.0781C107.004 65.75 107.801 65.5859 108.684 65.5859C109.574 65.5859 110.375 65.75 111.086 66.0781C111.805 66.3984 112.414 66.8516 112.914 67.4375C113.422 68.0156 113.809 68.6992 114.074 69.4883C114.34 70.2695 114.473 71.1172 114.473 72.0312V72.3008C114.473 73.2148 114.34 74.0625 114.074 74.8438C113.809 75.625 113.422 76.3086 112.914 76.8945C112.414 77.4727 111.809 77.9258 111.098 78.2539C110.395 78.5742 109.598 78.7344 108.707 78.7344C107.816 78.7344 107.016 78.5742 106.305 78.2539C105.594 77.9258 104.984 77.4727 104.477 76.8945C103.977 76.3086 103.594 75.625 103.328 74.8438C103.062 74.0625 102.93 73.2148 102.93 72.3008ZM105.098 72.0312V72.3008C105.098 72.9336 105.172 73.5312 105.32 74.0938C105.469 74.6484 105.691 75.1406 105.988 75.5703C106.293 76 106.672 76.3398 107.125 76.5898C107.578 76.832 108.105 76.9531 108.707 76.9531C109.301 76.9531 109.82 76.832 110.266 76.5898C110.719 76.3398 111.094 76 111.391 75.5703C111.688 75.1406 111.91 74.6484 112.059 74.0938C112.215 73.5312 112.293 72.9336 112.293 72.3008V72.0312C112.293 71.4062 112.215 70.8164 112.059 70.2617C111.91 69.6992 111.684 69.2031 111.379 68.7734C111.082 68.3359 110.707 67.9922 110.254 67.7422C109.809 67.4922 109.285 67.3672 108.684 67.3672C108.09 67.3672 107.566 67.4922 107.113 67.7422C106.668 67.9922 106.293 68.3359 105.988 68.7734C105.691 69.2031 105.469 69.6992 105.32 70.2617C105.172 70.8164 105.098 71.4062 105.098 72.0312ZM121.926 72.4414H119.594V71.1055H121.75C122.352 71.1055 122.828 71.0312 123.18 70.8828C123.531 70.7266 123.781 70.5117 123.93 70.2383C124.078 69.9648 124.152 69.6445 124.152 69.2773C124.152 68.9492 124.066 68.6406 123.895 68.3516C123.73 68.0547 123.465 67.8164 123.098 67.6367C122.73 67.4492 122.238 67.3555 121.621 67.3555C121.121 67.3555 120.668 67.4453 120.262 67.625C119.855 67.7969 119.531 68.0352 119.289 68.3398C119.055 68.6367 118.938 68.9727 118.938 69.3477H116.77C116.77 68.5742 116.988 67.9102 117.426 67.3555C117.871 66.793 118.461 66.3594 119.195 66.0547C119.938 65.75 120.746 65.5977 121.621 65.5977C122.355 65.5977 123.012 65.6797 123.59 65.8438C124.176 66 124.672 66.2344 125.078 66.5469C125.484 66.8516 125.793 67.2344 126.004 67.6953C126.223 68.1484 126.332 68.6758 126.332 69.2773C126.332 69.707 126.23 70.1133 126.027 70.4961C125.824 70.8789 125.531 71.2188 125.148 71.5156C124.766 71.8047 124.301 72.0312 123.754 72.1953C123.215 72.3594 122.605 72.4414 121.926 72.4414ZM119.594 71.6211H121.926C122.684 71.6211 123.352 71.6953 123.93 71.8438C124.508 71.9844 124.992 72.1953 125.383 72.4766C125.773 72.7578 126.066 73.1055 126.262 73.5195C126.465 73.9258 126.566 74.3945 126.566 74.9258C126.566 75.5195 126.445 76.0547 126.203 76.5312C125.969 77 125.633 77.3984 125.195 77.7266C124.758 78.0547 124.234 78.3047 123.625 78.4766C123.023 78.6484 122.355 78.7344 121.621 78.7344C120.801 78.7344 120.004 78.5938 119.23 78.3125C118.457 78.0312 117.82 77.5977 117.32 77.0117C116.82 76.418 116.57 75.6641 116.57 74.75H118.738C118.738 75.1328 118.859 75.4961 119.102 75.8398C119.344 76.1836 119.68 76.4609 120.109 76.6719C120.547 76.8828 121.051 76.9883 121.621 76.9883C122.23 76.9883 122.738 76.8945 123.145 76.707C123.551 76.5195 123.855 76.2695 124.059 75.957C124.27 75.6445 124.375 75.3047 124.375 74.9375C124.375 74.4609 124.281 74.0781 124.094 73.7891C123.906 73.5 123.617 73.2891 123.227 73.1562C122.844 73.0156 122.352 72.9453 121.75 72.9453H119.594V71.6211ZM135.332 72.9219H131.172L131.148 71.1875H134.547C135.219 71.1875 135.777 71.1211 136.223 70.9883C136.676 70.8555 137.016 70.6562 137.242 70.3906C137.469 70.125 137.582 69.7969 137.582 69.4062C137.582 69.1016 137.516 68.8359 137.383 68.6094C137.258 68.375 137.066 68.1836 136.809 68.0352C136.551 67.8789 136.23 67.7656 135.848 67.6953C135.473 67.6172 135.031 67.5781 134.523 67.5781H131.746V78.5H129.578V65.8203H134.523C135.328 65.8203 136.051 65.8906 136.691 66.0312C137.34 66.1719 137.891 66.3867 138.344 66.6758C138.805 66.957 139.156 67.3164 139.398 67.7539C139.641 68.1914 139.762 68.707 139.762 69.3008C139.762 69.6836 139.684 70.0469 139.527 70.3906C139.371 70.7344 139.141 71.0391 138.836 71.3047C138.531 71.5703 138.156 71.7891 137.711 71.9609C137.266 72.125 136.754 72.2305 136.176 72.2773L135.332 72.9219ZM135.332 78.5H130.387L131.465 76.7422H135.332C135.934 76.7422 136.434 76.668 136.832 76.5195C137.23 76.3633 137.527 76.1445 137.723 75.8633C137.926 75.5742 138.027 75.2305 138.027 74.832C138.027 74.4336 137.926 74.0938 137.723 73.8125C137.527 73.5234 137.23 73.3047 136.832 73.1562C136.434 73 135.934 72.9219 135.332 72.9219H132.039L132.062 71.1875H136.176L136.961 71.8438C137.656 71.8984 138.246 72.0703 138.73 72.3594C139.215 72.6484 139.582 73.0156 139.832 73.4609C140.082 73.8984 140.207 74.375 140.207 74.8906C140.207 75.4844 140.094 76.0078 139.867 76.4609C139.648 76.9141 139.328 77.293 138.906 77.5977C138.484 77.8945 137.973 78.1211 137.371 78.2773C136.77 78.4258 136.09 78.5 135.332 78.5ZM142.539 72.3008V72.0312C142.539 71.1172 142.672 70.2695 142.938 69.4883C143.203 68.6992 143.586 68.0156 144.086 67.4375C144.586 66.8516 145.191 66.3984 145.902 66.0781C146.613 65.75 147.41 65.5859 148.293 65.5859C149.184 65.5859 149.984 65.75 150.695 66.0781C151.414 66.3984 152.023 66.8516 152.523 67.4375C153.031 68.0156 153.418 68.6992 153.684 69.4883C153.949 70.2695 154.082 71.1172 154.082 72.0312V72.3008C154.082 73.2148 153.949 74.0625 153.684 74.8438C153.418 75.625 153.031 76.3086 152.523 76.8945C152.023 77.4727 151.418 77.9258 150.707 78.2539C150.004 78.5742 149.207 78.7344 148.316 78.7344C147.426 78.7344 146.625 78.5742 145.914 78.2539C145.203 77.9258 144.594 77.4727 144.086 76.8945C143.586 76.3086 143.203 75.625 142.938 74.8438C142.672 74.0625 142.539 73.2148 142.539 72.3008ZM144.707 72.0312V72.3008C144.707 72.9336 144.781 73.5312 144.93 74.0938C145.078 74.6484 145.301 75.1406 145.598 75.5703C145.902 76 146.281 76.3398 146.734 76.5898C147.188 76.832 147.715 76.9531 148.316 76.9531C148.91 76.9531 149.43 76.832 149.875 76.5898C150.328 76.3398 150.703 76 151 75.5703C151.297 75.1406 151.52 74.6484 151.668 74.0938C151.824 73.5312 151.902 72.9336 151.902 72.3008V72.0312C151.902 71.4062 151.824 70.8164 151.668 70.2617C151.52 69.6992 151.293 69.2031 150.988 68.7734C150.691 68.3359 150.316 67.9922 149.863 67.7422C149.418 67.4922 148.895 67.3672 148.293 67.3672C147.699 67.3672 147.176 67.4922 146.723 67.7422C146.277 67.9922 145.902 68.3359 145.598 68.7734C145.301 69.2031 145.078 69.6992 144.93 70.2617C144.781 70.8164 144.707 71.4062 144.707 72.0312ZM165.402 71.3164V73.0742H158.699V71.3164H165.402ZM159.156 65.8203V78.5H156.988V65.8203H159.156ZM167.16 65.8203V78.5H164.98V65.8203H167.16ZM170.078 72.3008V72.0312C170.078 71.1172 170.211 70.2695 170.477 69.4883C170.742 68.6992 171.125 68.0156 171.625 67.4375C172.125 66.8516 172.73 66.3984 173.441 66.0781C174.152 65.75 174.949 65.5859 175.832 65.5859C176.723 65.5859 177.523 65.75 178.234 66.0781C178.953 66.3984 179.562 66.8516 180.062 67.4375C180.57 68.0156 180.957 68.6992 181.223 69.4883C181.488 70.2695 181.621 71.1172 181.621 72.0312V72.3008C181.621 73.2148 181.488 74.0625 181.223 74.8438C180.957 75.625 180.57 76.3086 180.062 76.8945C179.562 77.4727 178.957 77.9258 178.246 78.2539C177.543 78.5742 176.746 78.7344 175.855 78.7344C174.965 78.7344 174.164 78.5742 173.453 78.2539C172.742 77.9258 172.133 77.4727 171.625 76.8945C171.125 76.3086 170.742 75.625 170.477 74.8438C170.211 74.0625 170.078 73.2148 170.078 72.3008ZM172.246 72.0312V72.3008C172.246 72.9336 172.32 73.5312 172.469 74.0938C172.617 74.6484 172.84 75.1406 173.137 75.5703C173.441 76 173.82 76.3398 174.273 76.5898C174.727 76.832 175.254 76.9531 175.855 76.9531C176.449 76.9531 176.969 76.832 177.414 76.5898C177.867 76.3398 178.242 76 178.539 75.5703C178.836 75.1406 179.059 74.6484 179.207 74.0938C179.363 73.5312 179.441 72.9336 179.441 72.3008V72.0312C179.441 71.4062 179.363 70.8164 179.207 70.2617C179.059 69.6992 178.832 69.2031 178.527 68.7734C178.23 68.3359 177.855 67.9922 177.402 67.7422C176.957 67.4922 176.434 67.3672 175.832 67.3672C175.238 67.3672 174.715 67.4922 174.262 67.7422C173.816 67.9922 173.441 68.3359 173.137 68.7734C172.84 69.2031 172.617 69.6992 172.469 70.2617C172.32 70.8164 172.246 71.4062 172.246 72.0312ZM193.902 65.8203V78.5H191.734V65.8203H193.902ZM193.164 71.6445V73.4258C192.727 73.5898 192.281 73.7383 191.828 73.8711C191.383 73.9961 190.91 74.0977 190.41 74.1758C189.918 74.2461 189.383 74.2812 188.805 74.2812C187.805 74.2812 186.938 74.1094 186.203 73.7656C185.469 73.4141 184.902 72.8867 184.504 72.1836C184.105 71.4727 183.906 70.5781 183.906 69.5V65.7969H186.074V69.5C186.074 70.2031 186.18 70.7734 186.391 71.2109C186.602 71.6484 186.91 71.9727 187.316 72.1836C187.723 72.3867 188.219 72.4883 188.805 72.4883C189.367 72.4883 189.895 72.4531 190.387 72.3828C190.887 72.3047 191.363 72.2031 191.816 72.0781C192.277 71.9531 192.727 71.8086 193.164 71.6445ZM205.996 71.3164V73.0742H199.293V71.3164H205.996ZM199.75 65.8203V78.5H197.582V65.8203H199.75ZM207.754 65.8203V78.5H205.574V65.8203H207.754ZM213.59 75.0664L219.438 65.8203H221.617V78.5H219.438V69.2539L213.59 78.5H211.434V65.8203H213.59V75.0664ZM227.453 65.8203V78.5H225.285V65.8203H227.453ZM235.773 65.8203L229.762 73.0859H226.727L226.398 71.1875H228.883L233.137 65.8203H235.773ZM233.441 78.5L228.777 72.7578L230.172 71.1875L236.195 78.5H233.441ZM240.051 75.9219V77.668C240.051 78.3789 239.871 79.1289 239.512 79.918C239.152 80.7148 238.648 81.3789 238 81.9102L236.77 81.0547C237.02 80.7109 237.23 80.3594 237.402 80C237.574 79.6484 237.703 79.2812 237.789 78.8984C237.883 78.5234 237.93 78.125 237.93 77.7031V75.9219H240.051ZM251.113 75.0664L256.961 65.8203H259.141V78.5H256.961V69.2539L251.113 78.5H248.957V65.8203H251.113V75.0664ZM267.355 72.4414H265.023V71.1055H267.18C267.781 71.1055 268.258 71.0312 268.609 70.8828C268.961 70.7266 269.211 70.5117 269.359 70.2383C269.508 69.9648 269.582 69.6445 269.582 69.2773C269.582 68.9492 269.496 68.6406 269.324 68.3516C269.16 68.0547 268.895 67.8164 268.527 67.6367C268.16 67.4492 267.668 67.3555 267.051 67.3555C266.551 67.3555 266.098 67.4453 265.691 67.625C265.285 67.7969 264.961 68.0352 264.719 68.3398C264.484 68.6367 264.367 68.9727 264.367 69.3477H262.199C262.199 68.5742 262.418 67.9102 262.855 67.3555C263.301 66.793 263.891 66.3594 264.625 66.0547C265.367 65.75 266.176 65.5977 267.051 65.5977C267.785 65.5977 268.441 65.6797 269.02 65.8438C269.605 66 270.102 66.2344 270.508 66.5469C270.914 66.8516 271.223 67.2344 271.434 67.6953C271.652 68.1484 271.762 68.6758 271.762 69.2773C271.762 69.707 271.66 70.1133 271.457 70.4961C271.254 70.8789 270.961 71.2188 270.578 71.5156C270.195 71.8047 269.73 72.0312 269.184 72.1953C268.645 72.3594 268.035 72.4414 267.355 72.4414ZM265.023 71.6211H267.355C268.113 71.6211 268.781 71.6953 269.359 71.8438C269.938 71.9844 270.422 72.1953 270.812 72.4766C271.203 72.7578 271.496 73.1055 271.691 73.5195C271.895 73.9258 271.996 74.3945 271.996 74.9258C271.996 75.5195 271.875 76.0547 271.633 76.5312C271.398 77 271.062 77.3984 270.625 77.7266C270.188 78.0547 269.664 78.3047 269.055 78.4766C268.453 78.6484 267.785 78.7344 267.051 78.7344C266.23 78.7344 265.434 78.5938 264.66 78.3125C263.887 78.0312 263.25 77.5977 262.75 77.0117C262.25 76.418 262 75.6641 262 74.75H264.168C264.168 75.1328 264.289 75.4961 264.531 75.8398C264.773 76.1836 265.109 76.4609 265.539 76.6719C265.977 76.8828 266.48 76.9883 267.051 76.9883C267.66 76.9883 268.168 76.8945 268.574 76.707C268.98 76.5195 269.285 76.2695 269.488 75.957C269.699 75.6445 269.805 75.3047 269.805 74.9375C269.805 74.4609 269.711 74.0781 269.523 73.7891C269.336 73.5 269.047 73.2891 268.656 73.1562C268.273 73.0156 267.781 72.9453 267.18 72.9453H265.023V71.6211ZM282.941 60.3008H284.723C284.723 61.0664 284.605 61.6758 284.371 62.1289C284.137 62.5742 283.816 62.918 283.41 63.1602C283.012 63.4023 282.559 63.5859 282.051 63.7109C281.551 63.8359 281.031 63.957 280.492 64.0742C279.82 64.2148 279.195 64.4375 278.617 64.7422C278.047 65.0391 277.555 65.4609 277.141 66.0078C276.734 66.5547 276.434 67.2656 276.238 68.1406C276.051 69.0156 276 70.0977 276.086 71.3867V72.4648H274.305V71.3867C274.305 69.9414 274.441 68.6797 274.715 67.6016C274.996 66.5234 275.391 65.6133 275.898 64.8711C276.406 64.1289 277.008 63.5391 277.703 63.1016C278.406 62.6641 279.18 62.3633 280.023 62.1992C280.633 62.082 281.156 61.957 281.594 61.8242C282.031 61.6836 282.363 61.4961 282.59 61.2617C282.824 61.0273 282.941 60.707 282.941 60.3008ZM280.375 66.5469C281.203 66.5469 281.941 66.6914 282.59 66.9805C283.238 67.2695 283.789 67.6719 284.242 68.1875C284.695 68.7031 285.039 69.3125 285.273 70.0156C285.516 70.7109 285.637 71.4688 285.637 72.2891V72.5469C285.637 73.4297 285.508 74.25 285.25 75.0078C285 75.7578 284.629 76.4141 284.137 76.9766C283.652 77.5312 283.059 77.9648 282.355 78.2773C281.66 78.5898 280.867 78.7461 279.977 78.7461C279.086 78.7461 278.289 78.5898 277.586 78.2773C276.891 77.9648 276.297 77.5312 275.805 76.9766C275.312 76.4141 274.938 75.7578 274.68 75.0078C274.43 74.25 274.305 73.4297 274.305 72.5469V72.2891C274.305 72.0938 274.34 71.9023 274.41 71.7148C274.48 71.5273 274.566 71.3359 274.668 71.1406C274.777 70.9453 274.875 70.7383 274.961 70.5195C275.25 69.8164 275.645 69.1641 276.145 68.5625C276.652 67.9609 277.258 67.4766 277.961 67.1094C278.672 66.7344 279.477 66.5469 280.375 66.5469ZM279.953 68.3164C279.156 68.3164 278.5 68.5 277.984 68.8672C277.477 69.2344 277.098 69.7227 276.848 70.332C276.598 70.9336 276.473 71.5859 276.473 72.2891V72.5469C276.473 73.1406 276.543 73.7031 276.684 74.2344C276.824 74.7656 277.035 75.2383 277.316 75.6523C277.605 76.0586 277.969 76.3789 278.406 76.6133C278.852 76.8477 279.375 76.9648 279.977 76.9648C280.578 76.9648 281.098 76.8477 281.535 76.6133C281.973 76.3789 282.332 76.0586 282.613 75.6523C282.895 75.2383 283.105 74.7656 283.246 74.2344C283.387 73.7031 283.457 73.1406 283.457 72.5469V72.2891C283.457 71.7578 283.387 71.2539 283.246 70.7773C283.105 70.3008 282.891 69.8789 282.602 69.5117C282.32 69.1445 281.957 68.8555 281.512 68.6445C281.074 68.4258 280.555 68.3164 279.953 68.3164ZM295.574 76.332V69.8047C295.574 69.3047 295.473 68.8711 295.27 68.5039C295.074 68.1289 294.777 67.8398 294.379 67.6367C293.98 67.4336 293.488 67.332 292.902 67.332C292.355 67.332 291.875 67.4258 291.461 67.6133C291.055 67.8008 290.734 68.0469 290.5 68.3516C290.273 68.6562 290.16 68.9844 290.16 69.3359H287.992C287.992 68.8828 288.109 68.4336 288.344 67.9883C288.578 67.543 288.914 67.1406 289.352 66.7812C289.797 66.4141 290.328 66.125 290.945 65.9141C291.57 65.6953 292.266 65.5859 293.031 65.5859C293.953 65.5859 294.766 65.7422 295.469 66.0547C296.18 66.3672 296.734 66.8398 297.133 67.4727C297.539 68.0977 297.742 68.8828 297.742 69.8281V75.7344C297.742 76.1562 297.777 76.6055 297.848 77.082C297.926 77.5586 298.039 77.9688 298.188 78.3125V78.5H295.926C295.816 78.25 295.73 77.918 295.668 77.5039C295.605 77.082 295.574 76.6914 295.574 76.332ZM295.949 70.8125L295.973 72.3359H293.781C293.164 72.3359 292.613 72.3867 292.129 72.4883C291.645 72.582 291.238 72.7266 290.91 72.9219C290.582 73.1172 290.332 73.3633 290.16 73.6602C289.988 73.9492 289.902 74.2891 289.902 74.6797C289.902 75.0781 289.992 75.4414 290.172 75.7695C290.352 76.0977 290.621 76.3594 290.98 76.5547C291.348 76.7422 291.797 76.8359 292.328 76.8359C292.992 76.8359 293.578 76.6953 294.086 76.4141C294.594 76.1328 294.996 75.7891 295.293 75.3828C295.598 74.9766 295.762 74.582 295.785 74.1992L296.711 75.2422C296.656 75.5703 296.508 75.9336 296.266 76.332C296.023 76.7305 295.699 77.1133 295.293 77.4805C294.895 77.8398 294.418 78.1406 293.863 78.3828C293.316 78.6172 292.699 78.7344 292.012 78.7344C291.152 78.7344 290.398 78.5664 289.75 78.2305C289.109 77.8945 288.609 77.4453 288.25 76.8828C287.898 76.3125 287.723 75.6758 287.723 74.9727C287.723 74.293 287.855 73.6953 288.121 73.1797C288.387 72.6562 288.77 72.2227 289.27 71.8789C289.77 71.5273 290.371 71.2617 291.074 71.082C291.777 70.9023 292.562 70.8125 293.43 70.8125H295.949ZM307.105 72.9219H302.945L302.922 71.1875H306.32C306.992 71.1875 307.551 71.1211 307.996 70.9883C308.449 70.8555 308.789 70.6562 309.016 70.3906C309.242 70.125 309.355 69.7969 309.355 69.4062C309.355 69.1016 309.289 68.8359 309.156 68.6094C309.031 68.375 308.84 68.1836 308.582 68.0352C308.324 67.8789 308.004 67.7656 307.621 67.6953C307.246 67.6172 306.805 67.5781 306.297 67.5781H303.52V78.5H301.352V65.8203H306.297C307.102 65.8203 307.824 65.8906 308.465 66.0312C309.113 66.1719 309.664 66.3867 310.117 66.6758C310.578 66.957 310.93 67.3164 311.172 67.7539C311.414 68.1914 311.535 68.707 311.535 69.3008C311.535 69.6836 311.457 70.0469 311.301 70.3906C311.145 70.7344 310.914 71.0391 310.609 71.3047C310.305 71.5703 309.93 71.7891 309.484 71.9609C309.039 72.125 308.527 72.2305 307.949 72.2773L307.105 72.9219ZM307.105 78.5H302.16L303.238 76.7422H307.105C307.707 76.7422 308.207 76.668 308.605 76.5195C309.004 76.3633 309.301 76.1445 309.496 75.8633C309.699 75.5742 309.801 75.2305 309.801 74.832C309.801 74.4336 309.699 74.0938 309.496 73.8125C309.301 73.5234 309.004 73.3047 308.605 73.1562C308.207 73 307.707 72.9219 307.105 72.9219H303.812L303.836 71.1875H307.949L308.734 71.8438C309.43 71.8984 310.02 72.0703 310.504 72.3594C310.988 72.6484 311.355 73.0156 311.605 73.4609C311.855 73.8984 311.98 74.375 311.98 74.8906C311.98 75.4844 311.867 76.0078 311.641 76.4609C311.422 76.9141 311.102 77.293 310.68 77.5977C310.258 77.8945 309.746 78.1211 309.145 78.2773C308.543 78.4258 307.863 78.5 307.105 78.5ZM317.23 75.0664L323.078 65.8203H325.258V78.5H323.078V69.2539L317.23 78.5H315.074V65.8203H317.23V75.0664ZM333.906 65.8203V78.5H331.727V65.8203H333.906ZM338.16 65.8203V67.5781H327.555V65.8203H338.16ZM342.074 70.1797H345.883C346.906 70.1797 347.77 70.3594 348.473 70.7188C349.176 71.0703 349.707 71.5586 350.066 72.1836C350.434 72.8008 350.617 73.5039 350.617 74.293C350.617 74.8789 350.516 75.4297 350.312 75.9453C350.109 76.4531 349.805 76.8984 349.398 77.2812C349 77.6641 348.504 77.9648 347.91 78.1836C347.324 78.3945 346.648 78.5 345.883 78.5H340.492V65.8203H342.66V76.7188H345.883C346.508 76.7188 347.008 76.6055 347.383 76.3789C347.758 76.1523 348.027 75.8594 348.191 75.5C348.355 75.1406 348.438 74.7656 348.438 74.375C348.438 73.9922 348.355 73.6172 348.191 73.25C348.027 72.8828 347.758 72.5781 347.383 72.3359C347.008 72.0859 346.508 71.9609 345.883 71.9609H342.074V70.1797ZM358.398 76.9531C358.914 76.9531 359.391 76.8477 359.828 76.6367C360.266 76.4258 360.625 76.1367 360.906 75.7695C361.188 75.3945 361.348 74.9688 361.387 74.4922H363.449C363.41 75.2422 363.156 75.9414 362.688 76.5898C362.227 77.2305 361.621 77.75 360.871 78.1484C360.121 78.5391 359.297 78.7344 358.398 78.7344C357.445 78.7344 356.613 78.5664 355.902 78.2305C355.199 77.8945 354.613 77.4336 354.145 76.8477C353.684 76.2617 353.336 75.5898 353.102 74.832C352.875 74.0664 352.762 73.2578 352.762 72.4062V71.9141C352.762 71.0625 352.875 70.2578 353.102 69.5C353.336 68.7344 353.684 68.0586 354.145 67.4727C354.613 66.8867 355.199 66.4258 355.902 66.0898C356.613 65.7539 357.445 65.5859 358.398 65.5859C359.391 65.5859 360.258 65.7891 361 66.1953C361.742 66.5938 362.324 67.1406 362.746 67.8359C363.176 68.5234 363.41 69.3047 363.449 70.1797H361.387C361.348 69.6562 361.199 69.1836 360.941 68.7617C360.691 68.3398 360.348 68.0039 359.91 67.7539C359.48 67.4961 358.977 67.3672 358.398 67.3672C357.734 67.3672 357.176 67.5 356.723 67.7656C356.277 68.0234 355.922 68.375 355.656 68.8203C355.398 69.2578 355.211 69.7461 355.094 70.2852C354.984 70.8164 354.93 71.3594 354.93 71.9141V72.4062C354.93 72.9609 354.984 73.5078 355.094 74.0469C355.203 74.5859 355.387 75.0742 355.645 75.5117C355.91 75.9492 356.266 76.3008 356.711 76.5664C357.164 76.8242 357.727 76.9531 358.398 76.9531ZM368.453 72.4531H370.797L367.129 78.5H364.785L368.453 72.4531ZM370.27 65.8203H375.566V78.5H373.398V67.5781H370.27C369.652 67.5781 369.148 67.6836 368.758 67.8945C368.367 68.0977 368.082 68.3633 367.902 68.6914C367.723 69.0195 367.633 69.3594 367.633 69.7109C367.633 70.0547 367.715 70.3867 367.879 70.707C368.043 71.0195 368.301 71.2773 368.652 71.4805C369.004 71.6836 369.457 71.7852 370.012 71.7852H373.984V73.5664H370.012C369.285 73.5664 368.641 73.4688 368.078 73.2734C367.516 73.0781 367.039 72.8086 366.648 72.4648C366.258 72.1133 365.961 71.7031 365.758 71.2344C365.555 70.7578 365.453 70.2422 365.453 69.6875C365.453 69.1328 365.559 68.6211 365.77 68.1523C365.988 67.6836 366.301 67.2734 366.707 66.9219C367.121 66.5703 367.625 66.3008 368.219 66.1133C368.82 65.918 369.504 65.8203 370.27 65.8203ZM89.0781 98.3008V98.0312C89.0781 97.1172 89.2109 96.2695 89.4766 95.4883C89.7422 94.6992 90.125 94.0156 90.625 93.4375C91.125 92.8516 91.7305 92.3984 92.4414 92.0781C93.1523 91.75 93.9492 91.5859 94.832 91.5859C95.7227 91.5859 96.5234 91.75 97.2344 92.0781C97.9531 92.3984 98.5625 92.8516 99.0625 93.4375C99.5703 94.0156 99.957 94.6992 100.223 95.4883C100.488 96.2695 100.621 97.1172 100.621 98.0312V98.3008C100.621 99.2148 100.488 100.062 100.223 100.844C99.957 101.625 99.5703 102.309 99.0625 102.895C98.5625 103.473 97.957 103.926 97.2461 104.254C96.543 104.574 95.7461 104.734 94.8555 104.734C93.9648 104.734 93.1641 104.574 92.4531 104.254C91.7422 103.926 91.1328 103.473 90.625 102.895C90.125 102.309 89.7422 101.625 89.4766 100.844C89.2109 100.062 89.0781 99.2148 89.0781 98.3008ZM91.2461 98.0312V98.3008C91.2461 98.9336 91.3203 99.5312 91.4688 100.094C91.6172 100.648 91.8398 101.141 92.1367 101.57C92.4414 102 92.8203 102.34 93.2734 102.59C93.7266 102.832 94.2539 102.953 94.8555 102.953C95.4492 102.953 95.9688 102.832 96.4141 102.59C96.8672 102.34 97.2422 102 97.5391 101.57C97.8359 101.141 98.0586 100.648 98.207 100.094C98.3633 99.5312 98.4414 98.9336 98.4414 98.3008V98.0312C98.4414 97.4062 98.3633 96.8164 98.207 96.2617C98.0586 95.6992 97.832 95.2031 97.5273 94.7734C97.2305 94.3359 96.8555 93.9922 96.4023 93.7422C95.957 93.4922 95.4336 93.3672 94.832 93.3672C94.2383 93.3672 93.7148 93.4922 93.2617 93.7422C92.8164 93.9922 92.4414 94.3359 92.1367 94.7734C91.8398 95.2031 91.6172 95.6992 91.4688 96.2617C91.3203 96.8164 91.2461 97.4062 91.2461 98.0312ZM108.25 91.8203V104.5H106.07V91.8203H108.25ZM112.504 91.8203V93.5781H101.898V91.8203H112.504ZM128.723 86.3008H130.504C130.504 87.0664 130.387 87.6758 130.152 88.1289C129.918 88.5742 129.598 88.918 129.191 89.1602C128.793 89.4023 128.34 89.5859 127.832 89.7109C127.332 89.8359 126.812 89.957 126.273 90.0742C125.602 90.2148 124.977 90.4375 124.398 90.7422C123.828 91.0391 123.336 91.4609 122.922 92.0078C122.516 92.5547 122.215 93.2656 122.02 94.1406C121.832 95.0156 121.781 96.0977 121.867 97.3867V98.4648H120.086V97.3867C120.086 95.9414 120.223 94.6797 120.496 93.6016C120.777 92.5234 121.172 91.6133 121.68 90.8711C122.188 90.1289 122.789 89.5391 123.484 89.1016C124.188 88.6641 124.961 88.3633 125.805 88.1992C126.414 88.082 126.938 87.957 127.375 87.8242C127.812 87.6836 128.145 87.4961 128.371 87.2617C128.605 87.0273 128.723 86.707 128.723 86.3008ZM126.156 92.5469C126.984 92.5469 127.723 92.6914 128.371 92.9805C129.02 93.2695 129.57 93.6719 130.023 94.1875C130.477 94.7031 130.82 95.3125 131.055 96.0156C131.297 96.7109 131.418 97.4688 131.418 98.2891V98.5469C131.418 99.4297 131.289 100.25 131.031 101.008C130.781 101.758 130.41 102.414 129.918 102.977C129.434 103.531 128.84 103.965 128.137 104.277C127.441 104.59 126.648 104.746 125.758 104.746C124.867 104.746 124.07 104.59 123.367 104.277C122.672 103.965 122.078 103.531 121.586 102.977C121.094 102.414 120.719 101.758 120.461 101.008C120.211 100.25 120.086 99.4297 120.086 98.5469V98.2891C120.086 98.0938 120.121 97.9023 120.191 97.7148C120.262 97.5273 120.348 97.3359 120.449 97.1406C120.559 96.9453 120.656 96.7383 120.742 96.5195C121.031 95.8164 121.426 95.1641 121.926 94.5625C122.434 93.9609 123.039 93.4766 123.742 93.1094C124.453 92.7344 125.258 92.5469 126.156 92.5469ZM125.734 94.3164C124.938 94.3164 124.281 94.5 123.766 94.8672C123.258 95.2344 122.879 95.7227 122.629 96.332C122.379 96.9336 122.254 97.5859 122.254 98.2891V98.5469C122.254 99.1406 122.324 99.7031 122.465 100.234C122.605 100.766 122.816 101.238 123.098 101.652C123.387 102.059 123.75 102.379 124.188 102.613C124.633 102.848 125.156 102.965 125.758 102.965C126.359 102.965 126.879 102.848 127.316 102.613C127.754 102.379 128.113 102.059 128.395 101.652C128.676 101.238 128.887 100.766 129.027 100.234C129.168 99.7031 129.238 99.1406 129.238 98.5469V98.2891C129.238 97.7578 129.168 97.2539 129.027 96.7773C128.887 96.3008 128.672 95.8789 128.383 95.5117C128.102 95.1445 127.738 94.8555 127.293 94.6445C126.855 94.4258 126.336 94.3164 125.734 94.3164ZM133.305 98.3008V98.0312C133.305 97.1172 133.438 96.2695 133.703 95.4883C133.969 94.6992 134.352 94.0156 134.852 93.4375C135.352 92.8516 135.957 92.3984 136.668 92.0781C137.379 91.75 138.176 91.5859 139.059 91.5859C139.949 91.5859 140.75 91.75 141.461 92.0781C142.18 92.3984 142.789 92.8516 143.289 93.4375C143.797 94.0156 144.184 94.6992 144.449 95.4883C144.715 96.2695 144.848 97.1172 144.848 98.0312V98.3008C144.848 99.2148 144.715 100.062 144.449 100.844C144.184 101.625 143.797 102.309 143.289 102.895C142.789 103.473 142.184 103.926 141.473 104.254C140.77 104.574 139.973 104.734 139.082 104.734C138.191 104.734 137.391 104.574 136.68 104.254C135.969 103.926 135.359 103.473 134.852 102.895C134.352 102.309 133.969 101.625 133.703 100.844C133.438 100.062 133.305 99.2148 133.305 98.3008ZM135.473 98.0312V98.3008C135.473 98.9336 135.547 99.5312 135.695 100.094C135.844 100.648 136.066 101.141 136.363 101.57C136.668 102 137.047 102.34 137.5 102.59C137.953 102.832 138.48 102.953 139.082 102.953C139.676 102.953 140.195 102.832 140.641 102.59C141.094 102.34 141.469 102 141.766 101.57C142.062 101.141 142.285 100.648 142.434 100.094C142.59 99.5312 142.668 98.9336 142.668 98.3008V98.0312C142.668 97.4062 142.59 96.8164 142.434 96.2617C142.285 95.6992 142.059 95.2031 141.754 94.7734C141.457 94.3359 141.082 93.9922 140.629 93.7422C140.184 93.4922 139.66 93.3672 139.059 93.3672C138.465 93.3672 137.941 93.4922 137.488 93.7422C137.043 93.9922 136.668 94.3359 136.363 94.7734C136.066 95.2031 135.844 95.6992 135.695 96.2617C135.547 96.8164 135.473 97.4062 135.473 98.0312ZM155.852 91.8203V93.6133H149.723V91.8203H155.852ZM157.762 91.8203V104.5H155.594V91.8203H157.762ZM149.195 91.8203H151.375L151.047 97.9375C150.992 98.8828 150.902 99.7188 150.777 100.445C150.66 101.164 150.496 101.781 150.285 102.297C150.082 102.812 149.824 103.234 149.512 103.562C149.207 103.883 148.84 104.121 148.41 104.277C147.98 104.426 147.484 104.5 146.922 104.5H146.242V102.59L146.711 102.555C147.047 102.531 147.332 102.453 147.566 102.32C147.809 102.188 148.012 101.992 148.176 101.734C148.34 101.469 148.473 101.129 148.574 100.715C148.684 100.301 148.766 99.8086 148.82 99.2383C148.883 98.668 148.93 98.0039 148.961 97.2461L149.195 91.8203ZM166.516 104.734C165.633 104.734 164.832 104.586 164.113 104.289C163.402 103.984 162.789 103.559 162.273 103.012C161.766 102.465 161.375 101.816 161.102 101.066C160.828 100.316 160.691 99.4961 160.691 98.6055V98.1133C160.691 97.082 160.844 96.1641 161.148 95.3594C161.453 94.5469 161.867 93.8594 162.391 93.2969C162.914 92.7344 163.508 92.3086 164.172 92.0195C164.836 91.7305 165.523 91.5859 166.234 91.5859C167.141 91.5859 167.922 91.7422 168.578 92.0547C169.242 92.3672 169.785 92.8047 170.207 93.3672C170.629 93.9219 170.941 94.5781 171.145 95.3359C171.348 96.0859 171.449 96.9062 171.449 97.7969V98.7695H161.98V97H169.281V96.8359C169.25 96.2734 169.133 95.7266 168.93 95.1953C168.734 94.6641 168.422 94.2266 167.992 93.8828C167.562 93.5391 166.977 93.3672 166.234 93.3672C165.742 93.3672 165.289 93.4727 164.875 93.6836C164.461 93.8867 164.105 94.1914 163.809 94.5977C163.512 95.0039 163.281 95.5 163.117 96.0859C162.953 96.6719 162.871 97.3477 162.871 98.1133V98.6055C162.871 99.207 162.953 99.7734 163.117 100.305C163.289 100.828 163.535 101.289 163.855 101.688C164.184 102.086 164.578 102.398 165.039 102.625C165.508 102.852 166.039 102.965 166.633 102.965C167.398 102.965 168.047 102.809 168.578 102.496C169.109 102.184 169.574 101.766 169.973 101.242L171.285 102.285C171.012 102.699 170.664 103.094 170.242 103.469C169.82 103.844 169.301 104.148 168.684 104.383C168.074 104.617 167.352 104.734 166.516 104.734ZM176.324 101.066L182.172 91.8203H184.352V104.5H182.172V95.2539L176.324 104.5H174.168V91.8203H176.324V101.066ZM180.988 87.2266H182.746C182.746 87.8359 182.605 88.3789 182.324 88.8555C182.043 89.3242 181.641 89.6914 181.117 89.957C180.594 90.2227 179.973 90.3555 179.254 90.3555C178.168 90.3555 177.309 90.0664 176.676 89.4883C176.051 88.9023 175.738 88.1484 175.738 87.2266H177.496C177.496 87.6875 177.629 88.0938 177.895 88.4453C178.16 88.7969 178.613 88.9727 179.254 88.9727C179.879 88.9727 180.324 88.7969 180.59 88.4453C180.855 88.0938 180.988 87.6875 180.988 87.2266ZM199.738 98.9219H195.578L195.555 97.1875H198.953C199.625 97.1875 200.184 97.1211 200.629 96.9883C201.082 96.8555 201.422 96.6562 201.648 96.3906C201.875 96.125 201.988 95.7969 201.988 95.4062C201.988 95.1016 201.922 94.8359 201.789 94.6094C201.664 94.375 201.473 94.1836 201.215 94.0352C200.957 93.8789 200.637 93.7656 200.254 93.6953C199.879 93.6172 199.438 93.5781 198.93 93.5781H196.152V104.5H193.984V91.8203H198.93C199.734 91.8203 200.457 91.8906 201.098 92.0312C201.746 92.1719 202.297 92.3867 202.75 92.6758C203.211 92.957 203.562 93.3164 203.805 93.7539C204.047 94.1914 204.168 94.707 204.168 95.3008C204.168 95.6836 204.09 96.0469 203.934 96.3906C203.777 96.7344 203.547 97.0391 203.242 97.3047C202.938 97.5703 202.562 97.7891 202.117 97.9609C201.672 98.125 201.16 98.2305 200.582 98.2773L199.738 98.9219ZM199.738 104.5H194.793L195.871 102.742H199.738C200.34 102.742 200.84 102.668 201.238 102.52C201.637 102.363 201.934 102.145 202.129 101.863C202.332 101.574 202.434 101.23 202.434 100.832C202.434 100.434 202.332 100.094 202.129 99.8125C201.934 99.5234 201.637 99.3047 201.238 99.1562C200.84 99 200.34 98.9219 199.738 98.9219H196.445L196.469 97.1875H200.582L201.367 97.8438C202.062 97.8984 202.652 98.0703 203.137 98.3594C203.621 98.6484 203.988 99.0156 204.238 99.4609C204.488 99.8984 204.613 100.375 204.613 100.891C204.613 101.484 204.5 102.008 204.273 102.461C204.055 102.914 203.734 103.293 203.312 103.598C202.891 103.895 202.379 104.121 201.777 104.277C201.176 104.426 200.496 104.5 199.738 104.5ZM218.547 102.953C219.062 102.953 219.539 102.848 219.977 102.637C220.414 102.426 220.773 102.137 221.055 101.77C221.336 101.395 221.496 100.969 221.535 100.492H223.598C223.559 101.242 223.305 101.941 222.836 102.59C222.375 103.23 221.77 103.75 221.02 104.148C220.27 104.539 219.445 104.734 218.547 104.734C217.594 104.734 216.762 104.566 216.051 104.23C215.348 103.895 214.762 103.434 214.293 102.848C213.832 102.262 213.484 101.59 213.25 100.832C213.023 100.066 212.91 99.2578 212.91 98.4062V97.9141C212.91 97.0625 213.023 96.2578 213.25 95.5C213.484 94.7344 213.832 94.0586 214.293 93.4727C214.762 92.8867 215.348 92.4258 216.051 92.0898C216.762 91.7539 217.594 91.5859 218.547 91.5859C219.539 91.5859 220.406 91.7891 221.148 92.1953C221.891 92.5938 222.473 93.1406 222.895 93.8359C223.324 94.5234 223.559 95.3047 223.598 96.1797H221.535C221.496 95.6562 221.348 95.1836 221.09 94.7617C220.84 94.3398 220.496 94.0039 220.059 93.7539C219.629 93.4961 219.125 93.3672 218.547 93.3672C217.883 93.3672 217.324 93.5 216.871 93.7656C216.426 94.0234 216.07 94.375 215.805 94.8203C215.547 95.2578 215.359 95.7461 215.242 96.2852C215.133 96.8164 215.078 97.3594 215.078 97.9141V98.4062C215.078 98.9609 215.133 99.5078 215.242 100.047C215.352 100.586 215.535 101.074 215.793 101.512C216.059 101.949 216.414 102.301 216.859 102.566C217.312 102.824 217.875 102.953 218.547 102.953ZM234.484 91.8203V93.6133H228.074V91.8203H234.484ZM228.391 91.8203V104.5H226.223V91.8203H228.391ZM236.406 91.8203V104.5H234.227V91.8203H236.406ZM242.23 101.066L248.078 91.8203H250.258V104.5H248.078V95.2539L242.23 104.5H240.074V91.8203H242.23V101.066ZM262.34 97.3164V99.0742H255.637V97.3164H262.34ZM256.094 91.8203V104.5H253.926V91.8203H256.094ZM264.098 91.8203V104.5H261.918V91.8203H264.098ZM272.852 104.734C271.969 104.734 271.168 104.586 270.449 104.289C269.738 103.984 269.125 103.559 268.609 103.012C268.102 102.465 267.711 101.816 267.438 101.066C267.164 100.316 267.027 99.4961 267.027 98.6055V98.1133C267.027 97.082 267.18 96.1641 267.484 95.3594C267.789 94.5469 268.203 93.8594 268.727 93.2969C269.25 92.7344 269.844 92.3086 270.508 92.0195C271.172 91.7305 271.859 91.5859 272.57 91.5859C273.477 91.5859 274.258 91.7422 274.914 92.0547C275.578 92.3672 276.121 92.8047 276.543 93.3672C276.965 93.9219 277.277 94.5781 277.48 95.3359C277.684 96.0859 277.785 96.9062 277.785 97.7969V98.7695H268.316V97H275.617V96.8359C275.586 96.2734 275.469 95.7266 275.266 95.1953C275.07 94.6641 274.758 94.2266 274.328 93.8828C273.898 93.5391 273.312 93.3672 272.57 93.3672C272.078 93.3672 271.625 93.4727 271.211 93.6836C270.797 93.8867 270.441 94.1914 270.145 94.5977C269.848 95.0039 269.617 95.5 269.453 96.0859C269.289 96.6719 269.207 97.3477 269.207 98.1133V98.6055C269.207 99.207 269.289 99.7734 269.453 100.305C269.625 100.828 269.871 101.289 270.191 101.688C270.52 102.086 270.914 102.398 271.375 102.625C271.844 102.852 272.375 102.965 272.969 102.965C273.734 102.965 274.383 102.809 274.914 102.496C275.445 102.184 275.91 101.766 276.309 101.242L277.621 102.285C277.348 102.699 277 103.094 276.578 103.469C276.156 103.844 275.637 104.148 275.02 104.383C274.41 104.617 273.688 104.734 272.852 104.734ZM288.613 101.066L294.461 91.8203H296.641V104.5H294.461V95.2539L288.613 104.5H286.457V91.8203H288.613V101.066ZM311.148 102.953C311.664 102.953 312.141 102.848 312.578 102.637C313.016 102.426 313.375 102.137 313.656 101.77C313.938 101.395 314.098 100.969 314.137 100.492H316.199C316.16 101.242 315.906 101.941 315.438 102.59C314.977 103.23 314.371 103.75 313.621 104.148C312.871 104.539 312.047 104.734 311.148 104.734C310.195 104.734 309.363 104.566 308.652 104.23C307.949 103.895 307.363 103.434 306.895 102.848C306.434 102.262 306.086 101.59 305.852 100.832C305.625 100.066 305.512 99.2578 305.512 98.4062V97.9141C305.512 97.0625 305.625 96.2578 305.852 95.5C306.086 94.7344 306.434 94.0586 306.895 93.4727C307.363 92.8867 307.949 92.4258 308.652 92.0898C309.363 91.7539 310.195 91.5859 311.148 91.5859C312.141 91.5859 313.008 91.7891 313.75 92.1953C314.492 92.5938 315.074 93.1406 315.496 93.8359C315.926 94.5234 316.16 95.3047 316.199 96.1797H314.137C314.098 95.6562 313.949 95.1836 313.691 94.7617C313.441 94.3398 313.098 94.0039 312.66 93.7539C312.23 93.4961 311.727 93.3672 311.148 93.3672C310.484 93.3672 309.926 93.5 309.473 93.7656C309.027 94.0234 308.672 94.375 308.406 94.8203C308.148 95.2578 307.961 95.7461 307.844 96.2852C307.734 96.8164 307.68 97.3594 307.68 97.9141V98.4062C307.68 98.9609 307.734 99.5078 307.844 100.047C307.953 100.586 308.137 101.074 308.395 101.512C308.66 101.949 309.016 102.301 309.461 102.566C309.914 102.824 310.477 102.953 311.148 102.953ZM322.199 103.188L325.727 91.8203H328.047L322.961 106.457C322.844 106.77 322.688 107.105 322.492 107.465C322.305 107.832 322.062 108.18 321.766 108.508C321.469 108.836 321.109 109.102 320.688 109.305C320.273 109.516 319.777 109.621 319.199 109.621C319.027 109.621 318.809 109.598 318.543 109.551C318.277 109.504 318.09 109.465 317.98 109.434L317.969 107.676C318.031 107.684 318.129 107.691 318.262 107.699C318.402 107.715 318.5 107.723 318.555 107.723C319.047 107.723 319.465 107.656 319.809 107.523C320.152 107.398 320.441 107.184 320.676 106.879C320.918 106.582 321.125 106.172 321.297 105.648L322.199 103.188ZM319.609 91.8203L322.902 101.664L323.465 103.949L321.906 104.746L317.242 91.8203H319.609ZM334.914 102.953C335.43 102.953 335.906 102.848 336.344 102.637C336.781 102.426 337.141 102.137 337.422 101.77C337.703 101.395 337.863 100.969 337.902 100.492H339.965C339.926 101.242 339.672 101.941 339.203 102.59C338.742 103.23 338.137 103.75 337.387 104.148C336.637 104.539 335.812 104.734 334.914 104.734C333.961 104.734 333.129 104.566 332.418 104.23C331.715 103.895 331.129 103.434 330.66 102.848C330.199 102.262 329.852 101.59 329.617 100.832C329.391 100.066 329.277 99.2578 329.277 98.4062V97.9141C329.277 97.0625 329.391 96.2578 329.617 95.5C329.852 94.7344 330.199 94.0586 330.66 93.4727C331.129 92.8867 331.715 92.4258 332.418 92.0898C333.129 91.7539 333.961 91.5859 334.914 91.5859C335.906 91.5859 336.773 91.7891 337.516 92.1953C338.258 92.5938 338.84 93.1406 339.262 93.8359C339.691 94.5234 339.926 95.3047 339.965 96.1797H337.902C337.863 95.6562 337.715 95.1836 337.457 94.7617C337.207 94.3398 336.863 94.0039 336.426 93.7539C335.996 93.4961 335.492 93.3672 334.914 93.3672C334.25 93.3672 333.691 93.5 333.238 93.7656C332.793 94.0234 332.438 94.375 332.172 94.8203C331.914 95.2578 331.727 95.7461 331.609 96.2852C331.5 96.8164 331.445 97.3594 331.445 97.9141V98.4062C331.445 98.9609 331.5 99.5078 331.609 100.047C331.719 100.586 331.902 101.074 332.16 101.512C332.426 101.949 332.781 102.301 333.227 102.566C333.68 102.824 334.242 102.953 334.914 102.953ZM347.57 91.8203V104.5H345.391V91.8203H347.57ZM351.824 91.8203V93.5781H341.219V91.8203H351.824ZM361.246 102.332V95.8047C361.246 95.3047 361.145 94.8711 360.941 94.5039C360.746 94.1289 360.449 93.8398 360.051 93.6367C359.652 93.4336 359.16 93.332 358.574 93.332C358.027 93.332 357.547 93.4258 357.133 93.6133C356.727 93.8008 356.406 94.0469 356.172 94.3516C355.945 94.6562 355.832 94.9844 355.832 95.3359H353.664C353.664 94.8828 353.781 94.4336 354.016 93.9883C354.25 93.543 354.586 93.1406 355.023 92.7812C355.469 92.4141 356 92.125 356.617 91.9141C357.242 91.6953 357.938 91.5859 358.703 91.5859C359.625 91.5859 360.438 91.7422 361.141 92.0547C361.852 92.3672 362.406 92.8398 362.805 93.4727C363.211 94.0977 363.414 94.8828 363.414 95.8281V101.734C363.414 102.156 363.449 102.605 363.52 103.082C363.598 103.559 363.711 103.969 363.859 104.312V104.5H361.598C361.488 104.25 361.402 103.918 361.34 103.504C361.277 103.082 361.246 102.691 361.246 102.332ZM361.621 96.8125L361.645 98.3359H359.453C358.836 98.3359 358.285 98.3867 357.801 98.4883C357.316 98.582 356.91 98.7266 356.582 98.9219C356.254 99.1172 356.004 99.3633 355.832 99.6602C355.66 99.9492 355.574 100.289 355.574 100.68C355.574 101.078 355.664 101.441 355.844 101.77C356.023 102.098 356.293 102.359 356.652 102.555C357.02 102.742 357.469 102.836 358 102.836C358.664 102.836 359.25 102.695 359.758 102.414C360.266 102.133 360.668 101.789 360.965 101.383C361.27 100.977 361.434 100.582 361.457 100.199L362.383 101.242C362.328 101.57 362.18 101.934 361.938 102.332C361.695 102.73 361.371 103.113 360.965 103.48C360.566 103.84 360.09 104.141 359.535 104.383C358.988 104.617 358.371 104.734 357.684 104.734C356.824 104.734 356.07 104.566 355.422 104.23C354.781 103.895 354.281 103.445 353.922 102.883C353.57 102.312 353.395 101.676 353.395 100.973C353.395 100.293 353.527 99.6953 353.793 99.1797C354.059 98.6562 354.441 98.2227 354.941 97.8789C355.441 97.5273 356.043 97.2617 356.746 97.082C357.449 96.9023 358.234 96.8125 359.102 96.8125H361.621ZM372.777 98.9219H368.617L368.594 97.1875H371.992C372.664 97.1875 373.223 97.1211 373.668 96.9883C374.121 96.8555 374.461 96.6562 374.688 96.3906C374.914 96.125 375.027 95.7969 375.027 95.4062C375.027 95.1016 374.961 94.8359 374.828 94.6094C374.703 94.375 374.512 94.1836 374.254 94.0352C373.996 93.8789 373.676 93.7656 373.293 93.6953C372.918 93.6172 372.477 93.5781 371.969 93.5781H369.191V104.5H367.023V91.8203H371.969C372.773 91.8203 373.496 91.8906 374.137 92.0312C374.785 92.1719 375.336 92.3867 375.789 92.6758C376.25 92.957 376.602 93.3164 376.844 93.7539C377.086 94.1914 377.207 94.707 377.207 95.3008C377.207 95.6836 377.129 96.0469 376.973 96.3906C376.816 96.7344 376.586 97.0391 376.281 97.3047C375.977 97.5703 375.602 97.7891 375.156 97.9609C374.711 98.125 374.199 98.2305 373.621 98.2773L372.777 98.9219ZM372.777 104.5H367.832L368.91 102.742H372.777C373.379 102.742 373.879 102.668 374.277 102.52C374.676 102.363 374.973 102.145 375.168 101.863C375.371 101.574 375.473 101.23 375.473 100.832C375.473 100.434 375.371 100.094 375.168 99.8125C374.973 99.5234 374.676 99.3047 374.277 99.1562C373.879 99 373.379 98.9219 372.777 98.9219H369.484L369.508 97.1875H373.621L374.406 97.8438C375.102 97.8984 375.691 98.0703 376.176 98.3594C376.66 98.6484 377.027 99.0156 377.277 99.4609C377.527 99.8984 377.652 100.375 377.652 100.891C377.652 101.484 377.539 102.008 377.312 102.461C377.094 102.914 376.773 103.293 376.352 103.598C375.93 103.895 375.418 104.121 374.816 104.277C374.215 104.426 373.535 104.5 372.777 104.5ZM388.035 102.332V95.8047C388.035 95.3047 387.934 94.8711 387.73 94.5039C387.535 94.1289 387.238 93.8398 386.84 93.6367C386.441 93.4336 385.949 93.332 385.363 93.332C384.816 93.332 384.336 93.4258 383.922 93.6133C383.516 93.8008 383.195 94.0469 382.961 94.3516C382.734 94.6562 382.621 94.9844 382.621 95.3359H380.453C380.453 94.8828 380.57 94.4336 380.805 93.9883C381.039 93.543 381.375 93.1406 381.812 92.7812C382.258 92.4141 382.789 92.125 383.406 91.9141C384.031 91.6953 384.727 91.5859 385.492 91.5859C386.414 91.5859 387.227 91.7422 387.93 92.0547C388.641 92.3672 389.195 92.8398 389.594 93.4727C390 94.0977 390.203 94.8828 390.203 95.8281V101.734C390.203 102.156 390.238 102.605 390.309 103.082C390.387 103.559 390.5 103.969 390.648 104.312V104.5H388.387C388.277 104.25 388.191 103.918 388.129 103.504C388.066 103.082 388.035 102.691 388.035 102.332ZM388.41 96.8125L388.434 98.3359H386.242C385.625 98.3359 385.074 98.3867 384.59 98.4883C384.105 98.582 383.699 98.7266 383.371 98.9219C383.043 99.1172 382.793 99.3633 382.621 99.6602C382.449 99.9492 382.363 100.289 382.363 100.68C382.363 101.078 382.453 101.441 382.633 101.77C382.812 102.098 383.082 102.359 383.441 102.555C383.809 102.742 384.258 102.836 384.789 102.836C385.453 102.836 386.039 102.695 386.547 102.414C387.055 102.133 387.457 101.789 387.754 101.383C388.059 100.977 388.223 100.582 388.246 100.199L389.172 101.242C389.117 101.57 388.969 101.934 388.727 102.332C388.484 102.73 388.16 103.113 387.754 103.48C387.355 103.84 386.879 104.141 386.324 104.383C385.777 104.617 385.16 104.734 384.473 104.734C383.613 104.734 382.859 104.566 382.211 104.23C381.57 103.895 381.07 103.445 380.711 102.883C380.359 102.312 380.184 101.676 380.184 100.973C380.184 100.293 380.316 99.6953 380.582 99.1797C380.848 98.6562 381.23 98.2227 381.73 97.8789C382.23 97.5273 382.832 97.2617 383.535 97.082C384.238 96.9023 385.023 96.8125 385.891 96.8125H388.41ZM395.078 91.8203L397.855 96.4375L400.668 91.8203H403.211L399.062 98.0781L403.34 104.5H400.832L397.902 99.7422L394.973 104.5H392.453L396.719 98.0781L392.582 91.8203H395.078Z" fill="white"/>
<defs>
<linearGradient id="paint0_linear_29_1253" x1="188.294" y1="23.9392" x2="301.732" y2="191.672" gradientUnits="userSpaceOnUse">
<stop stop-color="#151720"/>
<stop offset="1" stop-color="#1E212E"/>
</linearGradient>
</defs>
</svg>
