<svg width="129" height="38" viewBox="0 0 129 38" fill="none" xmlns="http://www.w3.org/2000/svg">
<rect width="129" height="38" rx="19" fill="#F7F7F7"/>
<g clip-path="url(#clip0_17_2309)">
<path fill-rule="evenodd" clip-rule="evenodd" d="M25 12.625C25.2984 12.625 25.5845 12.7435 25.7955 12.9545C26.0065 13.1655 26.125 13.4516 26.125 13.75V24.25C26.125 24.5484 26.0065 24.8345 25.7955 25.0455C25.5845 25.2565 25.2984 25.375 25 25.375C24.7016 25.375 24.4155 25.2565 24.2045 25.0455C23.9935 24.8345 23.875 24.5484 23.875 24.25V13.75C23.875 13.4516 23.9935 13.1655 24.2045 12.9545C24.4155 12.7435 24.7016 12.625 25 12.625Z" fill="#D9D9D9"/>
<path fill-rule="evenodd" clip-rule="evenodd" d="M22 14.875C22.2984 14.875 22.5845 14.9935 22.7955 15.2045C23.0065 15.4155 23.125 15.7016 23.125 16V24.25C23.125 24.5484 23.0065 24.8345 22.7955 25.0455C22.5845 25.2565 22.2984 25.375 22 25.375C21.7016 25.375 21.4155 25.2565 21.2045 25.0455C20.9935 24.8345 20.875 24.5484 20.875 24.25V16C20.875 15.7016 20.9935 15.4155 21.2045 15.2045C21.4155 14.9935 21.7016 14.875 22 14.875Z" fill="#D9D9D9"/>
<path fill-rule="evenodd" clip-rule="evenodd" d="M19 17.125C19.2984 17.125 19.5845 17.2435 19.7955 17.4545C20.0065 17.6655 20.125 17.9516 20.125 18.25V24.25C20.125 24.5484 20.0065 24.8345 19.7955 25.0455C19.5845 25.2565 19.2984 25.375 19 25.375C18.7016 25.375 18.4155 25.2565 18.2045 25.0455C17.9935 24.8345 17.875 24.5484 17.875 24.25V18.25C17.875 17.9516 17.9935 17.6655 18.2045 17.4545C18.4155 17.2435 18.7016 17.125 19 17.125Z" fill="#00C1FF"/>
<path fill-rule="evenodd" clip-rule="evenodd" d="M16 19.375C16.2984 19.375 16.5845 19.4935 16.7955 19.7045C17.0065 19.9155 17.125 20.2016 17.125 20.5V24.25C17.125 24.5484 17.0065 24.8345 16.7955 25.0455C16.5845 25.2565 16.2984 25.375 16 25.375C15.7016 25.375 15.4155 25.2565 15.2045 25.0455C14.9935 24.8345 14.875 24.5484 14.875 24.25V20.5C14.875 20.2016 14.9935 19.9155 15.2045 19.7045C15.4155 19.4935 15.7016 19.375 16 19.375Z" fill="#00C1FF"/>
<path fill-rule="evenodd" clip-rule="evenodd" d="M13 21.625C13.2984 21.625 13.5845 21.7435 13.7955 21.9545C14.0065 22.1655 14.125 22.4516 14.125 22.75V24.25C14.125 24.5484 14.0065 24.8345 13.7955 25.0455C13.5845 25.2565 13.2984 25.375 13 25.375C12.7016 25.375 12.4155 25.2565 12.2045 25.0455C11.9935 24.8345 11.875 24.5484 11.875 24.25V22.75C11.875 22.4516 11.9935 22.1655 12.2045 21.9545C12.4155 21.7435 12.7016 21.625 13 21.625Z" fill="#00C1FF"/>
</g>
<path d="M42.1875 20.3828H43.6875C43.6094 21.1016 43.4036 21.7448 43.0703 22.3125C42.737 22.8802 42.2656 23.3307 41.6562 23.6641C41.0469 23.9922 40.2865 24.1562 39.375 24.1562C38.7083 24.1562 38.1016 24.0312 37.5547 23.7812C37.013 23.5312 36.5469 23.1771 36.1562 22.7188C35.7656 22.2552 35.4635 21.7005 35.25 21.0547C35.0417 20.4036 34.9375 19.6797 34.9375 18.8828V17.75C34.9375 16.9531 35.0417 16.2318 35.25 15.5859C35.4635 14.9349 35.7682 14.3776 36.1641 13.9141C36.5651 13.4505 37.0469 13.0938 37.6094 12.8438C38.1719 12.5938 38.8047 12.4688 39.5078 12.4688C40.3672 12.4688 41.0938 12.6302 41.6875 12.9531C42.2812 13.276 42.7422 13.724 43.0703 14.2969C43.4036 14.8646 43.6094 15.5234 43.6875 16.2734H42.1875C42.1146 15.7422 41.9792 15.2865 41.7812 14.9062C41.5833 14.5208 41.3021 14.224 40.9375 14.0156C40.5729 13.8073 40.0964 13.7031 39.5078 13.7031C39.0026 13.7031 38.5573 13.7995 38.1719 13.9922C37.7917 14.1849 37.4714 14.4583 37.2109 14.8125C36.9557 15.1667 36.763 15.5911 36.6328 16.0859C36.5026 16.5807 36.4375 17.1302 36.4375 17.7344V18.8828C36.4375 19.4401 36.4948 19.9635 36.6094 20.4531C36.7292 20.9427 36.9089 21.3724 37.1484 21.7422C37.388 22.112 37.6927 22.4036 38.0625 22.6172C38.4323 22.8255 38.8698 22.9297 39.375 22.9297C40.0156 22.9297 40.526 22.8281 40.9062 22.625C41.2865 22.4219 41.5729 22.1302 41.7656 21.75C41.9635 21.3698 42.1042 20.9141 42.1875 20.3828ZM51.1719 15.5469V16.7422H47.0859V15.5469H51.1719ZM52.4453 15.5469V24H51V15.5469H52.4453ZM46.7344 15.5469H48.1875L47.9688 19.625C47.9323 20.2552 47.8724 20.8125 47.7891 21.2969C47.7109 21.776 47.6016 22.1875 47.4609 22.5312C47.3255 22.875 47.1536 23.1562 46.9453 23.375C46.7422 23.5885 46.4974 23.7474 46.2109 23.8516C45.9245 23.9505 45.5938 24 45.2188 24H44.7656V22.7266L45.0781 22.7031C45.3021 22.6875 45.4922 22.6354 45.6484 22.5469C45.8099 22.4583 45.9453 22.3281 46.0547 22.1562C46.1641 21.9792 46.2526 21.7526 46.3203 21.4766C46.3932 21.2005 46.4479 20.8724 46.4844 20.4922C46.526 20.112 46.5573 19.6693 46.5781 19.1641L46.7344 15.5469ZM54.3906 19.8672V19.6875C54.3906 19.0781 54.4792 18.513 54.6562 17.9922C54.8333 17.4661 55.0885 17.0104 55.4219 16.625C55.7552 16.2344 56.1589 15.9323 56.6328 15.7188C57.1068 15.5 57.638 15.3906 58.2266 15.3906C58.8203 15.3906 59.3542 15.5 59.8281 15.7188C60.3073 15.9323 60.7135 16.2344 61.0469 16.625C61.3854 17.0104 61.6432 17.4661 61.8203 17.9922C61.9974 18.513 62.0859 19.0781 62.0859 19.6875V19.8672C62.0859 20.4766 61.9974 21.0417 61.8203 21.5625C61.6432 22.0833 61.3854 22.5391 61.0469 22.9297C60.7135 23.3151 60.3099 23.6172 59.8359 23.8359C59.3672 24.0495 58.8359 24.1562 58.2422 24.1562C57.6484 24.1562 57.1146 24.0495 56.6406 23.8359C56.1667 23.6172 55.7604 23.3151 55.4219 22.9297C55.0885 22.5391 54.8333 22.0833 54.6562 21.5625C54.4792 21.0417 54.3906 20.4766 54.3906 19.8672ZM55.8359 19.6875V19.8672C55.8359 20.2891 55.8854 20.6875 55.9844 21.0625C56.0833 21.4323 56.2318 21.7604 56.4297 22.0469C56.6328 22.3333 56.8854 22.5599 57.1875 22.7266C57.4896 22.888 57.8411 22.9688 58.2422 22.9688C58.638 22.9688 58.9844 22.888 59.2812 22.7266C59.5833 22.5599 59.8333 22.3333 60.0312 22.0469C60.2292 21.7604 60.3776 21.4323 60.4766 21.0625C60.5807 20.6875 60.6328 20.2891 60.6328 19.8672V19.6875C60.6328 19.2708 60.5807 18.8776 60.4766 18.5078C60.3776 18.1328 60.2266 17.8021 60.0234 17.5156C59.8255 17.224 59.5755 16.9948 59.2734 16.8281C58.9766 16.6615 58.6276 16.5781 58.2266 16.5781C57.8307 16.5781 57.4818 16.6615 57.1797 16.8281C56.8828 16.9948 56.6328 17.224 56.4297 17.5156C56.2318 17.8021 56.0833 18.1328 55.9844 18.5078C55.8854 18.8776 55.8359 19.2708 55.8359 19.6875ZM66.2891 20.3203L63.0859 15.5469H64.8281L67.0156 19.0469H68.7031L68.4922 20.3203H66.2891ZM67.0781 20.1719L64.625 24H62.7969L66.1641 19.125L67.0781 20.1719ZM69.4453 15.5469V24H68V15.5469H69.4453ZM74.375 15.5469L71.1719 20.3203H68.9688L68.7422 19.0469H70.4375L72.625 15.5469H74.375ZM72.8281 24L70.3672 20.1719L71.2969 19.125L74.6562 24H72.8281ZM81.7266 19.2109V20.3828H77.2578V19.2109H81.7266ZM77.5625 15.5469V24H76.1172V15.5469H77.5625ZM82.8984 15.5469V24H81.4453V15.5469H82.8984ZM84.8438 19.8672V19.6875C84.8438 19.0781 84.9323 18.513 85.1094 17.9922C85.2865 17.4661 85.5417 17.0104 85.875 16.625C86.2083 16.2344 86.612 15.9323 87.0859 15.7188C87.5599 15.5 88.0911 15.3906 88.6797 15.3906C89.2734 15.3906 89.8073 15.5 90.2812 15.7188C90.7604 15.9323 91.1667 16.2344 91.5 16.625C91.8385 17.0104 92.0964 17.4661 92.2734 17.9922C92.4505 18.513 92.5391 19.0781 92.5391 19.6875V19.8672C92.5391 20.4766 92.4505 21.0417 92.2734 21.5625C92.0964 22.0833 91.8385 22.5391 91.5 22.9297C91.1667 23.3151 90.763 23.6172 90.2891 23.8359C89.8203 24.0495 89.2891 24.1562 88.6953 24.1562C88.1016 24.1562 87.5677 24.0495 87.0938 23.8359C86.6198 23.6172 86.2135 23.3151 85.875 22.9297C85.5417 22.5391 85.2865 22.0833 85.1094 21.5625C84.9323 21.0417 84.8438 20.4766 84.8438 19.8672ZM86.2891 19.6875V19.8672C86.2891 20.2891 86.3385 20.6875 86.4375 21.0625C86.5365 21.4323 86.6849 21.7604 86.8828 22.0469C87.0859 22.3333 87.3385 22.5599 87.6406 22.7266C87.9427 22.888 88.2943 22.9688 88.6953 22.9688C89.0911 22.9688 89.4375 22.888 89.7344 22.7266C90.0365 22.5599 90.2865 22.3333 90.4844 22.0469C90.6823 21.7604 90.8307 21.4323 90.9297 21.0625C91.0339 20.6875 91.0859 20.2891 91.0859 19.8672V19.6875C91.0859 19.2708 91.0339 18.8776 90.9297 18.5078C90.8307 18.1328 90.6797 17.8021 90.4766 17.5156C90.2786 17.224 90.0286 16.9948 89.7266 16.8281C89.4297 16.6615 89.0807 16.5781 88.6797 16.5781C88.2839 16.5781 87.9349 16.6615 87.6328 16.8281C87.3359 16.9948 87.0859 17.224 86.8828 17.5156C86.6849 17.8021 86.5365 18.1328 86.4375 18.5078C86.3385 18.8776 86.2891 19.2708 86.2891 19.6875ZM97.7344 22.9688C98.0781 22.9688 98.3958 22.8984 98.6875 22.7578C98.9792 22.6172 99.2188 22.4245 99.4062 22.1797C99.5938 21.9297 99.7005 21.6458 99.7266 21.3281H101.102C101.076 21.8281 100.906 22.2943 100.594 22.7266C100.286 23.1536 99.8828 23.5 99.3828 23.7656C98.8828 24.026 98.3333 24.1562 97.7344 24.1562C97.099 24.1562 96.5443 24.0443 96.0703 23.8203C95.6016 23.5964 95.2109 23.2891 94.8984 22.8984C94.5911 22.5078 94.3594 22.0599 94.2031 21.5547C94.0521 21.0443 93.9766 20.5052 93.9766 19.9375V19.6094C93.9766 19.0417 94.0521 18.5052 94.2031 18C94.3594 17.4896 94.5911 17.0391 94.8984 16.6484C95.2109 16.2578 95.6016 15.9505 96.0703 15.7266C96.5443 15.5026 97.099 15.3906 97.7344 15.3906C98.3958 15.3906 98.974 15.526 99.4688 15.7969C99.9635 16.0625 100.352 16.4271 100.633 16.8906C100.919 17.349 101.076 17.8698 101.102 18.4531H99.7266C99.7005 18.1042 99.6016 17.7891 99.4297 17.5078C99.263 17.2266 99.0339 17.0026 98.7422 16.8359C98.4557 16.6641 98.1198 16.5781 97.7344 16.5781C97.2917 16.5781 96.9193 16.6667 96.6172 16.8438C96.3203 17.0156 96.0833 17.25 95.9062 17.5469C95.7344 17.8385 95.6094 18.1641 95.5312 18.5234C95.4583 18.8776 95.4219 19.2396 95.4219 19.6094V19.9375C95.4219 20.3073 95.4583 20.6719 95.5312 21.0312C95.6042 21.3906 95.7266 21.7161 95.8984 22.0078C96.0755 22.2995 96.3125 22.5339 96.6094 22.7109C96.9115 22.8828 97.2865 22.9688 97.7344 22.9688ZM106.172 15.5469V24H104.719V15.5469H106.172ZM109.008 15.5469V16.7188H101.938V15.5469H109.008ZM111.617 18.4531H114.156C114.839 18.4531 115.414 18.5729 115.883 18.8125C116.352 19.0469 116.706 19.3724 116.945 19.7891C117.19 20.2005 117.312 20.6693 117.312 21.1953C117.312 21.5859 117.245 21.9531 117.109 22.2969C116.974 22.6354 116.771 22.9323 116.5 23.1875C116.234 23.4427 115.904 23.6432 115.508 23.7891C115.117 23.9297 114.667 24 114.156 24H110.562V15.5469H112.008V22.8125H114.156C114.573 22.8125 114.906 22.737 115.156 22.5859C115.406 22.4349 115.586 22.2396 115.695 22C115.805 21.7604 115.859 21.5104 115.859 21.25C115.859 20.9948 115.805 20.7448 115.695 20.5C115.586 20.2552 115.406 20.0521 115.156 19.8906C114.906 19.724 114.573 19.6406 114.156 19.6406H111.617V18.4531Z" fill="#202020"/>
<defs>
<clipPath id="clip0_17_2309">
<rect width="18" height="18" fill="white" transform="translate(10 10)"/>
</clipPath>
</defs>
</svg>
